%TF.GenerationSoftware,KiCad,Pcbnew,10.0.5*%
%TF.CreationDate,2026-08-11T11:25:45+02:00*%
%TF.ProjectId,obd2-simulator,6f626432-2d73-4696-9d75-6c61746f722e,rev?*%
%TF.SameCoordinates,Original*%
%TF.FileFunction,Other,User*%
%FSLAX46Y46*%
G04 Gerber Fmt 4.6, Leading zero omitted, Abs format (unit mm)*
G04 Created by KiCad (PCBNEW 10.0.5) date 2026-08-11 11:25:45*
%MOMM*%
%LPD*%
G01*
G04 APERTURE LIST*
%ADD10C,0.050000*%
G04 APERTURE END LIST*
%TO.C,C3*%
D10*
X115006900Y-70626200D02*
G75*
G02*
X108206900Y-70626200I-3400000J0D01*
G01*
X108206900Y-70626200D02*
G75*
G02*
X115006900Y-70626200I3400000J0D01*
G01*
%TO.C,TP6*%
X104903800Y-111963700D02*
X104903800Y-114963700D01*
X104903800Y-111963700D02*
X107903800Y-111963700D01*
X107903800Y-114963700D02*
X104903800Y-114963700D01*
X107903800Y-114963700D02*
X107903800Y-111963700D01*
%TO.C,C28*%
X138701400Y-85237600D02*
G75*
G02*
X131901400Y-85237600I-3400000J0D01*
G01*
X131901400Y-85237600D02*
G75*
G02*
X138701400Y-85237600I3400000J0D01*
G01*
%TO.C,SW4*%
X132500000Y-20500000D02*
X132750000Y-20500000D01*
X132500000Y-20750000D02*
X132500000Y-20500000D01*
X132500000Y-27750000D02*
X132500000Y-20750000D01*
X132500000Y-27750000D02*
X132500000Y-28000000D01*
X132500000Y-28000000D02*
X132750000Y-28000000D01*
X132750000Y-20500000D02*
X141750000Y-20500000D01*
X141750000Y-20500000D02*
X142000000Y-20500000D01*
X141750000Y-28000000D02*
X132750000Y-28000000D01*
X141750000Y-28000000D02*
X142000000Y-28000000D01*
X142000000Y-20500000D02*
X142000000Y-20750000D01*
X142000000Y-20750000D02*
X142000000Y-27750000D01*
X142000000Y-28000000D02*
X142000000Y-27750000D01*
%TO.C,SW2*%
X164250000Y-99250000D02*
X164500000Y-99250000D01*
X164250000Y-99500000D02*
X164250000Y-99250000D01*
X164250000Y-106500000D02*
X164250000Y-99500000D01*
X164250000Y-106500000D02*
X164250000Y-106750000D01*
X164250000Y-106750000D02*
X164500000Y-106750000D01*
X164500000Y-99250000D02*
X173500000Y-99250000D01*
X173500000Y-99250000D02*
X173750000Y-99250000D01*
X173500000Y-106750000D02*
X164500000Y-106750000D01*
X173500000Y-106750000D02*
X173750000Y-106750000D01*
X173750000Y-99250000D02*
X173750000Y-99500000D01*
X173750000Y-99500000D02*
X173750000Y-106500000D01*
X173750000Y-106750000D02*
X173750000Y-106500000D01*
%TO.C,R9*%
X146850000Y-70500000D02*
X159110000Y-70500000D01*
X159110000Y-73500000D01*
X146850000Y-73500000D01*
X146850000Y-70500000D01*
%TO.C,C36*%
X85952500Y-113524900D02*
X88352500Y-113524900D01*
X88352500Y-120624900D01*
X85952500Y-120624900D01*
X85952500Y-113524900D01*
%TO.C,C37*%
X66366800Y-112724700D02*
G75*
G02*
X60866800Y-112724700I-2750000J0D01*
G01*
X60866800Y-112724700D02*
G75*
G02*
X66366800Y-112724700I2750000J0D01*
G01*
%TO.C,C15*%
X91375300Y-75813800D02*
X94375300Y-75813800D01*
X94375300Y-82913800D01*
X91375300Y-82913800D01*
X91375300Y-75813800D01*
%TO.C,R40*%
X175002300Y-69984200D02*
X178002300Y-69984200D01*
X178002300Y-77614200D01*
X175002300Y-77614200D01*
X175002300Y-69984200D01*
%TO.C,U2*%
X109445000Y-80355000D02*
X110445000Y-80355000D01*
X109445000Y-83355000D02*
X109445000Y-80355000D01*
X110445000Y-80155000D02*
X112545000Y-80155000D01*
X110445000Y-80355000D02*
X110445000Y-80155000D01*
X110445000Y-83355000D02*
X109445000Y-83355000D01*
X110445000Y-83555000D02*
X110445000Y-83355000D01*
X112545000Y-80155000D02*
X112545000Y-80355000D01*
X112545000Y-80355000D02*
X113545000Y-80355000D01*
X112545000Y-83355000D02*
X112545000Y-83555000D01*
X112545000Y-83555000D02*
X110445000Y-83555000D01*
X113545000Y-80355000D02*
X113545000Y-83355000D01*
X113545000Y-83355000D02*
X112545000Y-83355000D01*
%TO.C,C24*%
X109951800Y-58436200D02*
X112951800Y-58436200D01*
X112951800Y-65536200D01*
X109951800Y-65536200D01*
X109951800Y-58436200D01*
%TO.C,D3*%
X110884400Y-36701100D02*
X114384400Y-36701100D01*
X110884400Y-43701100D02*
X110884400Y-36701100D01*
X114384400Y-36701100D02*
X114384400Y-43701100D01*
X114384400Y-43701100D02*
X110884400Y-43701100D01*
%TO.C,R10*%
X146850000Y-83500000D02*
X159110000Y-83500000D01*
X159110000Y-86500000D01*
X146850000Y-86500000D01*
X146850000Y-83500000D01*
%TO.C,TP2*%
X97298300Y-68718600D02*
X97298300Y-71718600D01*
X97298300Y-68718600D02*
X100298300Y-68718600D01*
X100298300Y-71718600D02*
X97298300Y-71718600D01*
X100298300Y-71718600D02*
X100298300Y-68718600D01*
%TO.C,SW1*%
X164250000Y-87250000D02*
X164500000Y-87250000D01*
X164250000Y-87500000D02*
X164250000Y-87250000D01*
X164250000Y-94500000D02*
X164250000Y-87500000D01*
X164250000Y-94500000D02*
X164250000Y-94750000D01*
X164250000Y-94750000D02*
X164500000Y-94750000D01*
X164500000Y-87250000D02*
X173500000Y-87250000D01*
X173500000Y-87250000D02*
X173750000Y-87250000D01*
X173500000Y-94750000D02*
X164500000Y-94750000D01*
X173500000Y-94750000D02*
X173750000Y-94750000D01*
X173750000Y-87250000D02*
X173750000Y-87500000D01*
X173750000Y-87500000D02*
X173750000Y-94500000D01*
X173750000Y-94750000D02*
X173750000Y-94500000D01*
%TO.C,U5*%
X65945000Y-73655000D02*
X66185000Y-73655000D01*
X65945000Y-78055000D02*
X65945000Y-73655000D01*
X66185000Y-72155000D02*
X71105000Y-72155000D01*
X66185000Y-73655000D02*
X66185000Y-72155000D01*
X66185000Y-78055000D02*
X65945000Y-78055000D01*
X66185000Y-79555000D02*
X66185000Y-78055000D01*
X71105000Y-72155000D02*
X71105000Y-73655000D01*
X71105000Y-73655000D02*
X71345000Y-73655000D01*
X71105000Y-78055000D02*
X71105000Y-79555000D01*
X71105000Y-79555000D02*
X66185000Y-79555000D01*
X71345000Y-73655000D02*
X71345000Y-78055000D01*
X71345000Y-78055000D02*
X71105000Y-78055000D01*
%TO.C,U7*%
X109445000Y-104175000D02*
X111195000Y-104175000D01*
X109445000Y-109135000D02*
X109445000Y-104175000D01*
X111195000Y-103755000D02*
X116995000Y-103755000D01*
X111195000Y-104175000D02*
X111195000Y-103755000D01*
X111195000Y-109135000D02*
X109445000Y-109135000D01*
X111195000Y-109555000D02*
X111195000Y-109135000D01*
X116995000Y-103755000D02*
X116995000Y-104175000D01*
X116995000Y-104175000D02*
X118745000Y-104175000D01*
X116995000Y-109135000D02*
X116995000Y-109555000D01*
X116995000Y-109555000D02*
X111195000Y-109555000D01*
X118745000Y-104175000D02*
X118745000Y-109135000D01*
X118745000Y-109135000D02*
X116995000Y-109135000D01*
%TO.C,L3*%
X129651400Y-85237600D02*
G75*
G02*
X120451400Y-85237600I-4600000J0D01*
G01*
X120451400Y-85237600D02*
G75*
G02*
X129651400Y-85237600I4600000J0D01*
G01*
%TO.C,C25*%
X131688700Y-76068800D02*
G75*
G02*
X126188700Y-76068800I-2750000J0D01*
G01*
X126188700Y-76068800D02*
G75*
G02*
X131688700Y-76068800I2750000J0D01*
G01*
%TO.C,ENC1*%
X160000000Y-53900000D02*
X160000000Y-68100000D01*
X160000000Y-53900000D02*
X177500000Y-53900000D01*
X177500000Y-68100000D02*
X160000000Y-68100000D01*
X177500000Y-68100000D02*
X177500000Y-53900000D01*
%TO.C,R12*%
X146850000Y-107500000D02*
X159110000Y-107500000D01*
X159110000Y-110500000D01*
X146850000Y-110500000D01*
X146850000Y-107500000D01*
%TO.C,R19*%
X56120300Y-100944800D02*
X68380300Y-100944800D01*
X68380300Y-103944800D01*
X56120300Y-103944800D01*
X56120300Y-100944800D01*
%TO.C,R14*%
X89947100Y-113741400D02*
X92947100Y-113741400D01*
X92947100Y-126001400D01*
X89947100Y-126001400D01*
X89947100Y-113741400D01*
%TO.C,R22*%
X116374600Y-41627200D02*
X119374600Y-41627200D01*
X119374600Y-53887200D01*
X116374600Y-53887200D01*
X116374600Y-41627200D01*
%TO.C,TP1*%
X97542400Y-73915300D02*
X97542400Y-76915300D01*
X97542400Y-73915300D02*
X100542400Y-73915300D01*
X100542400Y-76915300D02*
X97542400Y-76915300D01*
X100542400Y-76915300D02*
X100542400Y-73915300D01*
%TO.C,J2*%
X60100000Y-16400000D02*
X103900000Y-16400000D01*
X60100000Y-37600000D02*
X60100000Y-16400000D01*
X103900000Y-16400000D02*
X103900000Y-37600000D01*
X103900000Y-37600000D02*
X60100000Y-37600000D01*
%TO.C,U4*%
X52445000Y-69625000D02*
X52845000Y-69625000D01*
X52445000Y-77625000D02*
X52445000Y-69625000D01*
X52845000Y-67695000D02*
X64105000Y-67695000D01*
X52845000Y-69625000D02*
X52845000Y-67695000D01*
X52845000Y-77625000D02*
X52445000Y-77625000D01*
X52845000Y-79555000D02*
X52845000Y-77625000D01*
X64105000Y-67695000D02*
X64105000Y-69625000D01*
X64105000Y-69625000D02*
X64505000Y-69625000D01*
X64105000Y-77625000D02*
X64105000Y-79555000D01*
X64105000Y-79555000D02*
X52845000Y-79555000D01*
X64505000Y-69625000D02*
X64505000Y-77625000D01*
X64505000Y-77625000D02*
X64105000Y-77625000D01*
%TO.C,R23*%
X121140500Y-41724800D02*
X124140500Y-41724800D01*
X124140500Y-53984800D01*
X121140500Y-53984800D01*
X121140500Y-41724800D01*
%TO.C,C7*%
X61782100Y-88472400D02*
X64182100Y-88472400D01*
X64182100Y-95572400D01*
X61782100Y-95572400D01*
X61782100Y-88472400D01*
%TO.C,R15*%
X51547600Y-91146300D02*
X54547600Y-91146300D01*
X54547600Y-103406300D01*
X51547600Y-103406300D01*
X51547600Y-91146300D01*
%TO.C,C10*%
X52146200Y-58932900D02*
X55146200Y-58932900D01*
X55146200Y-66032900D01*
X52146200Y-66032900D01*
X52146200Y-58932900D01*
%TO.C,J1*%
X111750000Y-21860000D02*
X111750000Y-11690000D01*
X122300000Y-11690000D02*
X111750000Y-11690000D01*
X122300000Y-21860000D02*
X111750000Y-21860000D01*
X122300000Y-21860000D02*
X122300000Y-11690000D01*
%TO.C,C6*%
X56902100Y-88472400D02*
X59302100Y-88472400D01*
X59302100Y-95572400D01*
X56902100Y-95572400D01*
X56902100Y-88472400D01*
%TO.C,U9*%
X74422700Y-112005100D02*
X78322700Y-112005100D01*
X74422700Y-115905100D02*
X74422700Y-112005100D01*
X74422700Y-115905100D02*
X78322700Y-115905100D01*
X78322700Y-115905100D02*
X78322700Y-112005100D01*
%TO.C,C26*%
X81827900Y-70390500D02*
X84827900Y-70390500D01*
X84827900Y-77490500D01*
X81827900Y-77490500D01*
X81827900Y-70390500D01*
%TO.C,R27*%
X146850000Y-64500000D02*
X159110000Y-64500000D01*
X159110000Y-67500000D01*
X146850000Y-67500000D01*
X146850000Y-64500000D01*
%TO.C,R17A*%
X103559100Y-50238700D02*
X106559100Y-50238700D01*
X106559100Y-62498700D01*
X103559100Y-62498700D01*
X103559100Y-50238700D01*
%TO.C,C21*%
X107332000Y-75475800D02*
X114432000Y-75475800D01*
X114432000Y-78475800D01*
X107332000Y-78475800D01*
X107332000Y-75475800D01*
%TO.C,D5*%
X80074400Y-112729400D02*
X81074400Y-112729400D01*
X80074400Y-115729400D02*
X80074400Y-112729400D01*
X81074400Y-112529400D02*
X83174400Y-112529400D01*
X81074400Y-112729400D02*
X81074400Y-112529400D01*
X81074400Y-115729400D02*
X80074400Y-115729400D01*
X81074400Y-115929400D02*
X81074400Y-115729400D01*
X83174400Y-112529400D02*
X83174400Y-112729400D01*
X83174400Y-112729400D02*
X84174400Y-112729400D01*
X83174400Y-115729400D02*
X83174400Y-115929400D01*
X83174400Y-115929400D02*
X81074400Y-115929400D01*
X84174400Y-112729400D02*
X84174400Y-115729400D01*
X84174400Y-115729400D02*
X83174400Y-115729400D01*
%TO.C,C1*%
X130800000Y-20800000D02*
G75*
G02*
X124000000Y-20800000I-3400000J0D01*
G01*
X124000000Y-20800000D02*
G75*
G02*
X130800000Y-20800000I3400000J0D01*
G01*
%TO.C,R21*%
X115947300Y-36580000D02*
X128207300Y-36580000D01*
X128207300Y-39580000D01*
X115947300Y-39580000D01*
X115947300Y-36580000D01*
%TO.C,D4*%
X106516900Y-17514000D02*
X106716900Y-17514000D01*
X106516900Y-19614000D02*
X106516900Y-17514000D01*
X106716900Y-16514000D02*
X109716900Y-16514000D01*
X106716900Y-17514000D02*
X106716900Y-16514000D01*
X106716900Y-19614000D02*
X106516900Y-19614000D01*
X106716900Y-20614000D02*
X106716900Y-19614000D01*
X109716900Y-16514000D02*
X109716900Y-17514000D01*
X109716900Y-17514000D02*
X109916900Y-17514000D01*
X109716900Y-19614000D02*
X109716900Y-20614000D01*
X109716900Y-20614000D02*
X106716900Y-20614000D01*
X109916900Y-17514000D02*
X109916900Y-19614000D01*
X109916900Y-19614000D02*
X109716900Y-19614000D01*
%TO.C,R37*%
X55914300Y-105524300D02*
X68174300Y-105524300D01*
X68174300Y-108524300D01*
X55914300Y-108524300D01*
X55914300Y-105524300D01*
%TO.C,D1*%
X84692100Y-40654600D02*
X85722100Y-40654600D01*
X84692100Y-41754600D02*
X84692100Y-40654600D01*
X85722100Y-39504600D02*
X87522100Y-39504600D01*
X85722100Y-40654600D02*
X85722100Y-39504600D01*
X85722100Y-41754600D02*
X84692100Y-41754600D01*
X85722100Y-42904600D02*
X85722100Y-41754600D01*
X87522100Y-39504600D02*
X87522100Y-39704600D01*
X87522100Y-39704600D02*
X88552100Y-39704600D01*
X87522100Y-40814600D02*
X87522100Y-41594600D01*
X87522100Y-41594600D02*
X88552100Y-41594600D01*
X87522100Y-42704600D02*
X87522100Y-42904600D01*
X87522100Y-42904600D02*
X85722100Y-42904600D01*
X88552100Y-39704600D02*
X88552100Y-40814600D01*
X88552100Y-40814600D02*
X87522100Y-40814600D01*
X88552100Y-41594600D02*
X88552100Y-42704600D01*
X88552100Y-42704600D02*
X87522100Y-42704600D01*
%TO.C,C34*%
X83304300Y-104991800D02*
X90404300Y-104991800D01*
X90404300Y-107391800D01*
X83304300Y-107391800D01*
X83304300Y-104991800D01*
%TO.C,SW3*%
X164250000Y-111250000D02*
X164500000Y-111250000D01*
X164250000Y-111500000D02*
X164250000Y-111250000D01*
X164250000Y-118500000D02*
X164250000Y-111500000D01*
X164250000Y-118500000D02*
X164250000Y-118750000D01*
X164250000Y-118750000D02*
X164500000Y-118750000D01*
X164500000Y-111250000D02*
X173500000Y-111250000D01*
X173500000Y-111250000D02*
X173750000Y-111250000D01*
X173500000Y-118750000D02*
X164500000Y-118750000D01*
X173500000Y-118750000D02*
X173750000Y-118750000D01*
X173750000Y-111250000D02*
X173750000Y-111500000D01*
X173750000Y-111500000D02*
X173750000Y-118500000D01*
X173750000Y-118750000D02*
X173750000Y-118500000D01*
%TO.C,D2*%
X94871500Y-39778700D02*
X101871500Y-39778700D01*
X94871500Y-43278700D02*
X94871500Y-39778700D01*
X101871500Y-39778700D02*
X101871500Y-43278700D01*
X101871500Y-43278700D02*
X94871500Y-43278700D01*
%TO.C,R16*%
X102323000Y-64202900D02*
X105323000Y-64202900D01*
X105323000Y-76462900D01*
X102323000Y-76462900D01*
X102323000Y-64202900D01*
%TO.C,SW5*%
X132500000Y-28500000D02*
X132750000Y-28500000D01*
X132500000Y-28750000D02*
X132500000Y-28500000D01*
X132500000Y-35750000D02*
X132500000Y-28750000D01*
X132500000Y-35750000D02*
X132500000Y-36000000D01*
X132500000Y-36000000D02*
X132750000Y-36000000D01*
X132750000Y-28500000D02*
X141750000Y-28500000D01*
X141750000Y-28500000D02*
X142000000Y-28500000D01*
X141750000Y-36000000D02*
X132750000Y-36000000D01*
X141750000Y-36000000D02*
X142000000Y-36000000D01*
X142000000Y-28500000D02*
X142000000Y-28750000D01*
X142000000Y-28750000D02*
X142000000Y-35750000D01*
X142000000Y-36000000D02*
X142000000Y-35750000D01*
%TO.C,C13*%
X109643000Y-110998700D02*
X116743000Y-110998700D01*
X116743000Y-113998700D01*
X109643000Y-113998700D01*
X109643000Y-110998700D01*
%TO.C,J4*%
X65800000Y-132890000D02*
X66450000Y-132890000D01*
X65800000Y-134190000D02*
X65800000Y-132890000D01*
X65800000Y-134190000D02*
X81200000Y-134190000D01*
X66450000Y-117930000D02*
X66450000Y-121460000D01*
X66450000Y-117930000D02*
X80550000Y-117930000D01*
X66450000Y-132890000D02*
X66450000Y-125360000D01*
X80550000Y-117930000D02*
X80550000Y-121460000D01*
X80550000Y-132890000D02*
X80550000Y-125360000D01*
X81200000Y-132890000D02*
X80550000Y-132890000D01*
X81200000Y-134190000D02*
X81200000Y-132890000D01*
X66450000Y-125360000D02*
G75*
G02*
X66450000Y-121460000I480000J1950000D01*
G01*
X80550000Y-121460000D02*
G75*
G02*
X80550000Y-125360000I-480000J-1950000D01*
G01*
%TO.C,R36*%
X95507000Y-107203900D02*
X107767000Y-107203900D01*
X107767000Y-110203900D01*
X95507000Y-110203900D01*
X95507000Y-107203900D01*
%TO.C,C32*%
X175451400Y-79748400D02*
X178451400Y-79748400D01*
X178451400Y-86848400D01*
X175451400Y-86848400D01*
X175451400Y-79748400D01*
%TO.C,F1*%
X105716100Y-22806100D02*
X107976100Y-22806100D01*
X107976100Y-27366100D01*
X105716100Y-27366100D01*
X105716100Y-22806100D01*
%TO.C,R7*%
X89992800Y-39851100D02*
X92992800Y-39851100D01*
X92992800Y-52111100D01*
X89992800Y-52111100D01*
X89992800Y-39851100D01*
%TO.C,R28*%
X160950000Y-43500000D02*
X173210000Y-43500000D01*
X173210000Y-46500000D01*
X160950000Y-46500000D01*
X160950000Y-43500000D01*
%TO.C,R13*%
X86470900Y-65399900D02*
X89470900Y-65399900D01*
X89470900Y-77659900D01*
X86470900Y-77659900D01*
X86470900Y-65399900D01*
%TO.C,L2*%
X118839000Y-89568800D02*
G75*
G02*
X109639000Y-89568800I-4600000J0D01*
G01*
X109639000Y-89568800D02*
G75*
G02*
X118839000Y-89568800I4600000J0D01*
G01*
%TO.C,TP8*%
X109817800Y-24482300D02*
X109817800Y-27482300D01*
X109817800Y-24482300D02*
X112817800Y-24482300D01*
X112817800Y-27482300D02*
X109817800Y-27482300D01*
X112817800Y-27482300D02*
X112817800Y-24482300D01*
%TO.C,U10*%
X68076000Y-112701200D02*
X69076000Y-112701200D01*
X68076000Y-113811200D02*
X68076000Y-112701200D01*
X68076000Y-114591200D02*
X69076000Y-114591200D01*
X68076000Y-115701200D02*
X68076000Y-114591200D01*
X69076000Y-112501200D02*
X71176000Y-112501200D01*
X69076000Y-112701200D02*
X69076000Y-112501200D01*
X69076000Y-113811200D02*
X68076000Y-113811200D01*
X69076000Y-114591200D02*
X69076000Y-113811200D01*
X69076000Y-115701200D02*
X68076000Y-115701200D01*
X69076000Y-115901200D02*
X69076000Y-115701200D01*
X71176000Y-112501200D02*
X71176000Y-112701200D01*
X71176000Y-112701200D02*
X72176000Y-112701200D01*
X71176000Y-115701200D02*
X71176000Y-115901200D01*
X71176000Y-115901200D02*
X69076000Y-115901200D01*
X72176000Y-112701200D02*
X72176000Y-115701200D01*
X72176000Y-115701200D02*
X71176000Y-115701200D01*
%TO.C,TP5*%
X125682500Y-107060000D02*
X125682500Y-110060000D01*
X125682500Y-107060000D02*
X128682500Y-107060000D01*
X128682500Y-110060000D02*
X125682500Y-110060000D01*
X128682500Y-110060000D02*
X128682500Y-107060000D01*
%TO.C,U11*%
X114945000Y-80355000D02*
X115945000Y-80355000D01*
X114945000Y-83355000D02*
X114945000Y-80355000D01*
X115945000Y-80155000D02*
X118045000Y-80155000D01*
X115945000Y-80355000D02*
X115945000Y-80155000D01*
X115945000Y-83355000D02*
X114945000Y-83355000D01*
X115945000Y-83555000D02*
X115945000Y-83355000D01*
X118045000Y-80155000D02*
X118045000Y-80355000D01*
X118045000Y-80355000D02*
X119045000Y-80355000D01*
X118045000Y-83355000D02*
X118045000Y-83555000D01*
X118045000Y-83555000D02*
X115945000Y-83555000D01*
X119045000Y-80355000D02*
X119045000Y-83355000D01*
X119045000Y-83355000D02*
X118045000Y-83355000D01*
%TO.C,C27*%
X124242500Y-70092000D02*
G75*
G02*
X117442500Y-70092000I-3400000J0D01*
G01*
X117442500Y-70092000D02*
G75*
G02*
X124242500Y-70092000I3400000J0D01*
G01*
%TO.C,R17B*%
X95335300Y-45541200D02*
X107595300Y-45541200D01*
X107595300Y-48541200D01*
X95335300Y-48541200D01*
X95335300Y-45541200D01*
%TO.C,R31*%
X76859200Y-70781800D02*
X79859200Y-70781800D01*
X79859200Y-83041800D01*
X76859200Y-83041800D01*
X76859200Y-70781800D01*
%TO.C,SW6*%
X164693720Y-80011163D02*
X167995908Y-83299209D01*
X164700791Y-77995908D02*
X164693720Y-80011163D01*
X167995908Y-83299209D02*
X169989949Y-83299209D01*
X168002979Y-74707862D02*
X164700791Y-77995908D01*
X169989949Y-83299209D02*
X173306280Y-79997021D01*
X170004092Y-74700791D02*
X168002979Y-74707862D01*
X173299209Y-77995908D02*
X170004092Y-74700791D01*
X173306280Y-79997021D02*
X173299209Y-77995908D01*
%TO.C,R39*%
X162722300Y-70052300D02*
X170352300Y-70052300D01*
X170352300Y-73052300D01*
X162722300Y-73052300D01*
X162722300Y-70052300D01*
%TO.C,R29*%
X160950000Y-39500000D02*
X173210000Y-39500000D01*
X173210000Y-42500000D01*
X160950000Y-42500000D01*
X160950000Y-39500000D01*
%TO.C,R34*%
X150169900Y-88152800D02*
X162429900Y-88152800D01*
X162429900Y-91152800D01*
X150169900Y-91152800D01*
X150169900Y-88152800D01*
%TO.C,R33*%
X166004900Y-48670100D02*
X178264900Y-48670100D01*
X178264900Y-51670100D01*
X166004900Y-51670100D01*
X166004900Y-48670100D01*
%TO.C,C31*%
X156277800Y-42937000D02*
X159277800Y-42937000D01*
X159277800Y-50037000D01*
X156277800Y-50037000D01*
X156277800Y-42937000D01*
%TO.C,R25*%
X120617600Y-100871900D02*
X123617600Y-100871900D01*
X123617600Y-113131900D01*
X120617600Y-113131900D01*
X120617600Y-100871900D01*
%TO.C,R35*%
X52183400Y-53887400D02*
X64443400Y-53887400D01*
X64443400Y-56887400D01*
X52183400Y-56887400D01*
X52183400Y-53887400D01*
%TO.C,R32*%
X150933500Y-49894400D02*
X153933500Y-49894400D01*
X153933500Y-62154400D01*
X150933500Y-62154400D01*
X150933500Y-49894400D01*
%TO.C,C29*%
X116456300Y-75297700D02*
X123556300Y-75297700D01*
X123556300Y-78297700D01*
X116456300Y-78297700D01*
X116456300Y-75297700D01*
%TO.C,C33*%
X175503500Y-90505800D02*
X178503500Y-90505800D01*
X178503500Y-97605800D01*
X175503500Y-97605800D01*
X175503500Y-90505800D01*
%TO.C,C20*%
X98390100Y-78615200D02*
X105490100Y-78615200D01*
X105490100Y-81615200D01*
X98390100Y-81615200D01*
X98390100Y-78615200D01*
%TO.C,TP4*%
X79603500Y-39509200D02*
X79603500Y-42509200D01*
X79603500Y-39509200D02*
X82603500Y-39509200D01*
X82603500Y-42509200D02*
X79603500Y-42509200D01*
X82603500Y-42509200D02*
X82603500Y-39509200D01*
%TO.C,C35*%
X86302900Y-109279600D02*
X93402900Y-109279600D01*
X93402900Y-111679600D01*
X86302900Y-111679600D01*
X86302900Y-109279600D01*
%TO.C,H1*%
X58450000Y-125000000D02*
G75*
G02*
X51550000Y-125000000I-3450000J0D01*
G01*
X51550000Y-125000000D02*
G75*
G02*
X58450000Y-125000000I3450000J0D01*
G01*
%TO.C,TP7*%
X118540200Y-114992800D02*
X118540200Y-117992800D01*
X118540200Y-114992800D02*
X121540200Y-114992800D01*
X121540200Y-117992800D02*
X118540200Y-117992800D01*
X121540200Y-117992800D02*
X121540200Y-114992800D01*
%TO.C,C19*%
X99336600Y-64272000D02*
G75*
G02*
X93836600Y-64272000I-2750000J0D01*
G01*
X93836600Y-64272000D02*
G75*
G02*
X99336600Y-64272000I2750000J0D01*
G01*
%TO.C,H4*%
X58450000Y-20000000D02*
G75*
G02*
X51550000Y-20000000I-3450000J0D01*
G01*
X51550000Y-20000000D02*
G75*
G02*
X58450000Y-20000000I3450000J0D01*
G01*
%TO.C,U1*%
X115300000Y-28800000D02*
X115450000Y-28800000D01*
X115300000Y-33200000D02*
X115300000Y-28800000D01*
X115450000Y-27300000D02*
X120550000Y-27300000D01*
X115450000Y-28800000D02*
X115450000Y-27300000D01*
X115450000Y-33200000D02*
X115300000Y-33200000D01*
X115450000Y-34700000D02*
X115450000Y-33200000D01*
X120550000Y-27300000D02*
X120550000Y-28800000D01*
X120550000Y-28800000D02*
X120700000Y-28800000D01*
X120550000Y-33200000D02*
X120550000Y-34700000D01*
X120550000Y-34700000D02*
X115450000Y-34700000D01*
X120700000Y-28800000D02*
X120700000Y-33200000D01*
X120700000Y-33200000D02*
X120550000Y-33200000D01*
%TO.C,TP3*%
X84823500Y-44458800D02*
X84823500Y-47458800D01*
X84823500Y-44458800D02*
X87823500Y-44458800D01*
X87823500Y-47458800D02*
X84823500Y-47458800D01*
X87823500Y-47458800D02*
X87823500Y-44458800D01*
%TO.C,R26*%
X146850000Y-76500000D02*
X159110000Y-76500000D01*
X159110000Y-79500000D01*
X146850000Y-79500000D01*
X146850000Y-76500000D01*
%TO.C,C5*%
X79698900Y-66219700D02*
G75*
G02*
X74198900Y-66219700I-2750000J0D01*
G01*
X74198900Y-66219700D02*
G75*
G02*
X79698900Y-66219700I2750000J0D01*
G01*
%TO.C,J5*%
X104230000Y-84030000D02*
X107770000Y-84030000D01*
X107770000Y-105350000D01*
X104230000Y-105350000D01*
X104230000Y-84030000D01*
%TO.C,R8*%
X98691700Y-112030000D02*
X101691700Y-112030000D01*
X101691700Y-124290000D01*
X98691700Y-124290000D01*
X98691700Y-112030000D01*
%TO.C,J6*%
X105230000Y-29230000D02*
X108770000Y-29230000D01*
X108770000Y-37850000D01*
X105230000Y-37850000D01*
X105230000Y-29230000D01*
%TO.C,C18*%
X59033800Y-114397600D02*
G75*
G02*
X53533800Y-114397600I-2750000J0D01*
G01*
X53533800Y-114397600D02*
G75*
G02*
X59033800Y-114397600I2750000J0D01*
G01*
%TO.C,C14*%
X76025800Y-107435800D02*
X83125800Y-107435800D01*
X83125800Y-110435800D01*
X76025800Y-110435800D01*
X76025800Y-107435800D01*
%TO.C,U6*%
X74500000Y-84550000D02*
X101050000Y-84550000D01*
X101050000Y-103450000D01*
X74500000Y-103450000D01*
X74500000Y-84550000D01*
%TO.C,C12*%
X69397600Y-63426600D02*
X72397600Y-63426600D01*
X72397600Y-70526600D01*
X69397600Y-70526600D01*
X69397600Y-63426600D01*
%TO.C,R38*%
X155528300Y-51866200D02*
X158528300Y-51866200D01*
X158528300Y-59496200D01*
X155528300Y-59496200D01*
X155528300Y-51866200D01*
%TO.C,C23*%
X59979400Y-119062300D02*
X62979400Y-119062300D01*
X62979400Y-126162300D01*
X59979400Y-126162300D01*
X59979400Y-119062300D01*
%TO.C,C16*%
X82372800Y-79563700D02*
X89472800Y-79563700D01*
X89472800Y-82563700D01*
X82372800Y-82563700D01*
X82372800Y-79563700D01*
%TO.C,H2*%
X178450000Y-125000000D02*
G75*
G02*
X171550000Y-125000000I-3450000J0D01*
G01*
X171550000Y-125000000D02*
G75*
G02*
X178450000Y-125000000I3450000J0D01*
G01*
%TO.C,R30*%
X70031500Y-91813700D02*
X73031500Y-91813700D01*
X73031500Y-104073700D01*
X70031500Y-104073700D01*
X70031500Y-91813700D01*
%TO.C,C11*%
X56985500Y-62923600D02*
X64085500Y-62923600D01*
X64085500Y-65923600D01*
X56985500Y-65923600D01*
X56985500Y-62923600D01*
%TO.C,C22*%
X122934200Y-31660200D02*
X130034200Y-31660200D01*
X130034200Y-34660200D01*
X122934200Y-34660200D01*
X122934200Y-31660200D01*
%TO.C,H3*%
X178450000Y-20000000D02*
G75*
G02*
X171550000Y-20000000I-3450000J0D01*
G01*
X171550000Y-20000000D02*
G75*
G02*
X178450000Y-20000000I3450000J0D01*
G01*
%TO.C,C4*%
X130901700Y-95524900D02*
G75*
G02*
X124101700Y-95524900I-3400000J0D01*
G01*
X124101700Y-95524900D02*
G75*
G02*
X130901700Y-95524900I3400000J0D01*
G01*
%TO.C,R24*%
X109910300Y-96004400D02*
X122170300Y-96004400D01*
X122170300Y-99004400D01*
X109910300Y-99004400D01*
X109910300Y-96004400D01*
%TO.C,R11*%
X146850000Y-95500000D02*
X159110000Y-95500000D01*
X159110000Y-98500000D01*
X146850000Y-98500000D01*
X146850000Y-95500000D01*
%TO.C,Y1*%
X59513600Y-81068700D02*
X65753600Y-81068700D01*
X65753600Y-86728700D02*
X59513600Y-86728700D01*
X59513600Y-86728700D02*
G75*
G02*
X59513600Y-81068700I0J2830000D01*
G01*
X65753600Y-81068700D02*
G75*
G02*
X65753600Y-86728700I0J-2830000D01*
G01*
%TD*%
M02*
