%TF.GenerationSoftware,KiCad,Pcbnew,10.0.5*%
%TF.CreationDate,2026-08-11T11:25:45+02:00*%
%TF.ProjectId,obd2-simulator,6f626432-2d73-4696-9d75-6c61746f722e,rev?*%
%TF.SameCoordinates,Original*%
%TF.FileFunction,Soldermask,Top*%
%TF.FilePolarity,Negative*%
%FSLAX46Y46*%
G04 Gerber Fmt 4.6, Leading zero omitted, Abs format (unit mm)*
G04 Created by KiCad (PCBNEW 10.0.5) date 2026-08-11 11:25:45*
%MOMM*%
%LPD*%
G01*
G04 APERTURE LIST*
G04 Aperture macros list*
%AMRoundRect*
0 Rectangle with rounded corners*
0 $1 Rounding radius*
0 $2 $3 $4 $5 $6 $7 $8 $9 X,Y pos of 4 corners*
0 Add a 4 corners polygon primitive as box body*
4,1,4,$2,$3,$4,$5,$6,$7,$8,$9,$2,$3,0*
0 Add four circle primitives for the rounded corners*
1,1,$1+$1,$2,$3*
1,1,$1+$1,$4,$5*
1,1,$1+$1,$6,$7*
1,1,$1+$1,$8,$9*
0 Add four rect primitives between the rounded corners*
20,1,$1+$1,$2,$3,$4,$5,0*
20,1,$1+$1,$4,$5,$6,$7,0*
20,1,$1+$1,$6,$7,$8,$9,0*
20,1,$1+$1,$8,$9,$2,$3,0*%
%AMRotRect*
0 Rectangle, with rotation*
0 The origin of the aperture is its center*
0 $1 length*
0 $2 width*
0 $3 Rotation angle, in degrees counterclockwise*
0 Add horizontal line*
21,1,$1,$2,0,0,$3*%
%AMFreePoly0*
4,1,21,-0.125000,1.200000,0.125000,1.200000,0.125000,1.700000,0.375000,1.700000,0.375000,1.200000,0.825000,1.200000,0.825000,-1.200000,0.375000,-1.200000,0.375000,-1.700000,0.125000,-1.700000,0.125000,-1.200000,-0.125000,-1.200000,-0.125000,-1.700000,-0.375000,-1.700000,-0.375000,-1.200000,-0.825000,-1.200000,-0.825000,1.200000,-0.375000,1.200000,-0.375000,1.700000,-0.125000,1.700000,
-0.125000,1.200000,-0.125000,1.200000,$1*%
G04 Aperture macros list end*
%ADD10RoundRect,0.250000X0.550000X-0.550000X0.550000X0.550000X-0.550000X0.550000X-0.550000X-0.550000X0*%
%ADD11C,1.600000*%
%ADD12R,2.000000X2.000000*%
%ADD13RoundRect,0.250000X-0.550000X-0.550000X0.550000X-0.550000X0.550000X0.550000X-0.550000X0.550000X0*%
%ADD14C,2.000000*%
%ADD15RoundRect,0.250000X0.550000X0.550000X-0.550000X0.550000X-0.550000X-0.550000X0.550000X-0.550000X0*%
%ADD16RoundRect,0.150000X-0.512500X-0.150000X0.512500X-0.150000X0.512500X0.150000X-0.512500X0.150000X0*%
%ADD17RoundRect,0.250000X0.650000X-1.000000X0.650000X1.000000X-0.650000X1.000000X-0.650000X-1.000000X0*%
%ADD18RoundRect,0.150000X0.150000X-0.825000X0.150000X0.825000X-0.150000X0.825000X-0.150000X-0.825000X0*%
%ADD19RoundRect,0.162500X-0.650000X-0.162500X0.650000X-0.162500X0.650000X0.162500X-0.650000X0.162500X0*%
%ADD20C,2.600000*%
%ADD21R,3.200000X2.000000*%
%ADD22O,2.000000X3.800000*%
%ADD23RoundRect,0.150000X0.150000X-0.875000X0.150000X0.875000X-0.150000X0.875000X-0.150000X-0.875000X0*%
%ADD24C,0.700000*%
%ADD25O,0.900000X2.400000*%
%ADD26O,0.900000X1.700000*%
%ADD27RoundRect,0.060000X0.060000X-0.240000X0.060000X0.240000X-0.060000X0.240000X-0.060000X-0.240000X0*%
%ADD28FreePoly0,90.000000*%
%ADD29RoundRect,0.150000X0.512500X0.150000X-0.512500X0.150000X-0.512500X-0.150000X0.512500X-0.150000X0*%
%ADD30RoundRect,0.150000X-0.150000X0.512500X-0.150000X-0.512500X0.150000X-0.512500X0.150000X0.512500X0*%
%ADD31RoundRect,0.150000X0.587500X0.150000X-0.587500X0.150000X-0.587500X-0.150000X0.587500X-0.150000X0*%
%ADD32RoundRect,0.250000X-1.000000X-0.650000X1.000000X-0.650000X1.000000X0.650000X-1.000000X0.650000X0*%
%ADD33RoundRect,0.250000X-0.550000X-0.500000X0.550000X-0.500000X0.550000X0.500000X-0.550000X0.500000X0*%
%ADD34C,3.000000*%
%ADD35RoundRect,0.250000X0.625000X-0.375000X0.625000X0.375000X-0.625000X0.375000X-0.625000X-0.375000X0*%
%ADD36C,0.900000*%
%ADD37C,1.200000*%
%ADD38RotRect,1.400000X1.000000X45.000000*%
%ADD39RotRect,2.000000X1.800000X45.000000*%
%ADD40C,3.200000*%
%ADD41C,0.600000*%
%ADD42R,3.200000X2.300000*%
%ADD43RoundRect,0.150000X0.150000X-0.637500X0.150000X0.637500X-0.150000X0.637500X-0.150000X-0.637500X0*%
%ADD44R,1.700000X1.700000*%
%ADD45C,1.700000*%
%ADD46R,0.900000X1.500000*%
%ADD47R,1.500000X0.900000*%
%ADD48R,3.900000X3.900000*%
%ADD49C,1.500000*%
G04 APERTURE END LIST*
D10*
%TO.C,C3*%
X111606900Y-71876200D03*
D11*
X111606900Y-69376200D03*
%TD*%
D12*
%TO.C,TP6*%
X106403800Y-113463700D03*
%TD*%
D13*
%TO.C,C28*%
X134051400Y-85237600D03*
D11*
X136551400Y-85237600D03*
%TD*%
D14*
%TO.C,SW4*%
X134000000Y-22000000D03*
X140500000Y-22000000D03*
X134000000Y-26500000D03*
X140500000Y-26500000D03*
%TD*%
%TO.C,SW2*%
X165750000Y-100750000D03*
X172250000Y-100750000D03*
X165750000Y-105250000D03*
X172250000Y-105250000D03*
%TD*%
D11*
%TO.C,R9*%
X147900000Y-72000000D03*
X158060000Y-72000000D03*
%TD*%
%TO.C,C36*%
X87152500Y-114574900D03*
X87152500Y-119574900D03*
%TD*%
D15*
%TO.C,C37*%
X64616800Y-112724700D03*
D11*
X62616800Y-112724700D03*
%TD*%
%TO.C,C15*%
X92875300Y-81863800D03*
X92875300Y-76863800D03*
%TD*%
%TO.C,R40*%
X176502300Y-71484200D03*
X176502300Y-76564200D03*
%TD*%
D16*
%TO.C,U2*%
X110357500Y-80905000D03*
X110357500Y-81855000D03*
X110357500Y-82805000D03*
X112632500Y-82805000D03*
X112632500Y-81855000D03*
X112632500Y-80905000D03*
%TD*%
D11*
%TO.C,C24*%
X111451800Y-64486200D03*
X111451800Y-59486200D03*
%TD*%
D17*
%TO.C,D3*%
X112634400Y-42201100D03*
X112634400Y-38201100D03*
%TD*%
D11*
%TO.C,R10*%
X147900000Y-85000000D03*
X158060000Y-85000000D03*
%TD*%
D12*
%TO.C,TP2*%
X98798300Y-70218600D03*
%TD*%
D14*
%TO.C,SW1*%
X165750000Y-88750000D03*
X172250000Y-88750000D03*
X165750000Y-93250000D03*
X172250000Y-93250000D03*
%TD*%
D18*
%TO.C,U5*%
X66740000Y-78330000D03*
X68010000Y-78330000D03*
X69280000Y-78330000D03*
X70550000Y-78330000D03*
X70550000Y-73380000D03*
X69280000Y-73380000D03*
X68010000Y-73380000D03*
X66740000Y-73380000D03*
%TD*%
D19*
%TO.C,U7*%
X110507500Y-104750000D03*
X110507500Y-106020000D03*
X110507500Y-107290000D03*
X110507500Y-108560000D03*
X117682500Y-108560000D03*
X117682500Y-107290000D03*
X117682500Y-106020000D03*
X117682500Y-104750000D03*
%TD*%
D20*
%TO.C,L3*%
X122551400Y-85237600D03*
X127551400Y-85237600D03*
%TD*%
D13*
%TO.C,C25*%
X127938700Y-76068800D03*
D11*
X129938700Y-76068800D03*
%TD*%
D12*
%TO.C,ENC1*%
X161500000Y-58500000D03*
D14*
X161500000Y-63500000D03*
X161500000Y-61000000D03*
D21*
X169000000Y-55400000D03*
X169000000Y-66600000D03*
D14*
X176000000Y-63500000D03*
X176000000Y-58500000D03*
%TD*%
D11*
%TO.C,R12*%
X147900000Y-109000000D03*
X158060000Y-109000000D03*
%TD*%
%TO.C,R19*%
X67330300Y-102444800D03*
X57170300Y-102444800D03*
%TD*%
%TO.C,R14*%
X91447100Y-114791400D03*
X91447100Y-124951400D03*
%TD*%
%TO.C,R22*%
X117874600Y-52837200D03*
X117874600Y-42677200D03*
%TD*%
D12*
%TO.C,TP1*%
X99042400Y-75415300D03*
%TD*%
D20*
%TO.C,J2*%
X66000000Y-27000000D03*
X98000000Y-27000000D03*
D22*
X68000000Y-22700000D03*
X72000000Y-22700000D03*
X76000000Y-22700000D03*
X80000000Y-22700000D03*
X84000000Y-22700000D03*
X88000000Y-22700000D03*
X92000000Y-22700000D03*
X96000000Y-22700000D03*
X68000000Y-31300000D03*
X72000000Y-31300000D03*
X76000000Y-31300000D03*
X80000000Y-31300000D03*
X84000000Y-31300000D03*
X88000000Y-31300000D03*
X92000000Y-31300000D03*
X96000000Y-31300000D03*
%TD*%
D23*
%TO.C,U4*%
X53395000Y-78275000D03*
X54665000Y-78275000D03*
X55935000Y-78275000D03*
X57205000Y-78275000D03*
X58475000Y-78275000D03*
X59745000Y-78275000D03*
X61015000Y-78275000D03*
X62285000Y-78275000D03*
X63555000Y-78275000D03*
X63555000Y-68975000D03*
X62285000Y-68975000D03*
X61015000Y-68975000D03*
X59745000Y-68975000D03*
X58475000Y-68975000D03*
X57205000Y-68975000D03*
X55935000Y-68975000D03*
X54665000Y-68975000D03*
X53395000Y-68975000D03*
%TD*%
D11*
%TO.C,R23*%
X122640500Y-42774800D03*
X122640500Y-52934800D03*
%TD*%
%TO.C,C7*%
X62982100Y-89522400D03*
X62982100Y-94522400D03*
%TD*%
%TO.C,R15*%
X53047600Y-102356300D03*
X53047600Y-92196300D03*
%TD*%
%TO.C,C10*%
X53646200Y-64982900D03*
X53646200Y-59982900D03*
%TD*%
D24*
%TO.C,J1*%
X120000000Y-20800000D03*
X119150000Y-20800000D03*
X118300000Y-20800000D03*
X117450000Y-20800000D03*
X116600000Y-20800000D03*
X115750000Y-20800000D03*
X114900000Y-20800000D03*
X114050000Y-20800000D03*
X114050000Y-19450000D03*
X114900000Y-19450000D03*
X115750000Y-19450000D03*
X116600000Y-19450000D03*
X117450000Y-19450000D03*
X118300000Y-19450000D03*
X119150000Y-19450000D03*
X120000000Y-19450000D03*
D25*
X121350000Y-19820000D03*
D26*
X121350000Y-16440000D03*
D25*
X112700000Y-19820000D03*
D26*
X112700000Y-16440000D03*
%TD*%
D11*
%TO.C,C6*%
X58102100Y-89522400D03*
X58102100Y-94522400D03*
%TD*%
D27*
%TO.C,U9*%
X75372700Y-115355100D03*
X75872700Y-115355100D03*
X76372700Y-115355100D03*
X76872700Y-115355100D03*
X77372700Y-115355100D03*
X77372700Y-112555100D03*
X76872700Y-112555100D03*
X76372700Y-112555100D03*
X75872700Y-112555100D03*
X75372700Y-112555100D03*
D28*
X76372700Y-113955100D03*
%TD*%
D11*
%TO.C,C26*%
X83327900Y-76440500D03*
X83327900Y-71440500D03*
%TD*%
%TO.C,R27*%
X147900000Y-66000000D03*
X158060000Y-66000000D03*
%TD*%
%TO.C,R17A*%
X105059100Y-61448700D03*
X105059100Y-51288700D03*
%TD*%
%TO.C,C21*%
X113382000Y-76975800D03*
X108382000Y-76975800D03*
%TD*%
D29*
%TO.C,D5*%
X83261900Y-115179400D03*
X83261900Y-114229400D03*
X83261900Y-113279400D03*
X80986900Y-113279400D03*
X80986900Y-114229400D03*
X80986900Y-115179400D03*
%TD*%
D13*
%TO.C,C1*%
X126150000Y-20800000D03*
D11*
X128650000Y-20800000D03*
%TD*%
%TO.C,R21*%
X127157300Y-38080000D03*
X116997300Y-38080000D03*
%TD*%
D30*
%TO.C,D4*%
X109166900Y-17426500D03*
X108216900Y-17426500D03*
X107266900Y-17426500D03*
X107266900Y-19701500D03*
X108216900Y-19701500D03*
X109166900Y-19701500D03*
%TD*%
D11*
%TO.C,R37*%
X67124300Y-107024300D03*
X56964300Y-107024300D03*
%TD*%
D31*
%TO.C,D1*%
X87559600Y-42154600D03*
X87559600Y-40254600D03*
X85684600Y-41204600D03*
%TD*%
D11*
%TO.C,C34*%
X89354300Y-106191800D03*
X84354300Y-106191800D03*
%TD*%
D14*
%TO.C,SW3*%
X165750000Y-112750000D03*
X172250000Y-112750000D03*
X165750000Y-117250000D03*
X172250000Y-117250000D03*
%TD*%
D32*
%TO.C,D2*%
X96371500Y-41528700D03*
X100371500Y-41528700D03*
%TD*%
D11*
%TO.C,R16*%
X103823000Y-75412900D03*
X103823000Y-65252900D03*
%TD*%
D14*
%TO.C,SW5*%
X134000000Y-30000000D03*
X140500000Y-30000000D03*
X134000000Y-34500000D03*
X140500000Y-34500000D03*
%TD*%
D11*
%TO.C,C13*%
X115693000Y-112498700D03*
X110693000Y-112498700D03*
%TD*%
D33*
%TO.C,J4*%
X70000000Y-120700000D03*
D11*
X72500000Y-120700000D03*
X74500000Y-120700000D03*
X77000000Y-120700000D03*
D34*
X66930000Y-123410000D03*
X80070000Y-123410000D03*
%TD*%
D11*
%TO.C,R36*%
X96557000Y-108703900D03*
X106717000Y-108703900D03*
%TD*%
%TO.C,C32*%
X176951400Y-80798400D03*
X176951400Y-85798400D03*
%TD*%
D35*
%TO.C,F1*%
X106846100Y-26486100D03*
X106846100Y-23686100D03*
%TD*%
D11*
%TO.C,R7*%
X91492800Y-51061100D03*
X91492800Y-40901100D03*
%TD*%
%TO.C,R28*%
X162000000Y-45000000D03*
X172160000Y-45000000D03*
%TD*%
%TO.C,R13*%
X87970900Y-66449900D03*
X87970900Y-76609900D03*
%TD*%
D20*
%TO.C,L2*%
X114239000Y-87068800D03*
X114239000Y-92068800D03*
%TD*%
D12*
%TO.C,TP8*%
X111317800Y-25982300D03*
%TD*%
D29*
%TO.C,U10*%
X71263500Y-115151200D03*
X71263500Y-114201200D03*
X71263500Y-113251200D03*
X68988500Y-113251200D03*
X68988500Y-115151200D03*
%TD*%
D12*
%TO.C,TP5*%
X127182500Y-108560000D03*
%TD*%
D16*
%TO.C,U11*%
X115857500Y-80905000D03*
X115857500Y-81855000D03*
X115857500Y-82805000D03*
X118132500Y-82805000D03*
X118132500Y-81855000D03*
X118132500Y-80905000D03*
%TD*%
D10*
%TO.C,C27*%
X120842500Y-71342000D03*
D11*
X120842500Y-68842000D03*
%TD*%
%TO.C,R17B*%
X106545300Y-47041200D03*
X96385300Y-47041200D03*
%TD*%
%TO.C,R31*%
X78359200Y-81991800D03*
X78359200Y-71831800D03*
%TD*%
D36*
%TO.C,SW6*%
X167656497Y-77656497D03*
D37*
X170343503Y-80343503D03*
D38*
X165443253Y-80534422D03*
X166454416Y-81545584D03*
X167465578Y-82556747D03*
X170534422Y-75443253D03*
X171545584Y-76454416D03*
X172556747Y-77465578D03*
D39*
X166136218Y-76136218D03*
X171863782Y-81863782D03*
%TD*%
D11*
%TO.C,R39*%
X164222300Y-71552300D03*
X169302300Y-71552300D03*
%TD*%
%TO.C,R29*%
X162000000Y-41000000D03*
X172160000Y-41000000D03*
%TD*%
%TO.C,R34*%
X161379900Y-89652800D03*
X151219900Y-89652800D03*
%TD*%
%TO.C,R33*%
X167054900Y-50170100D03*
X177214900Y-50170100D03*
%TD*%
%TO.C,C31*%
X157777800Y-48987000D03*
X157777800Y-43987000D03*
%TD*%
%TO.C,R25*%
X122117600Y-101921900D03*
X122117600Y-112081900D03*
%TD*%
%TO.C,R35*%
X63393400Y-55387400D03*
X53233400Y-55387400D03*
%TD*%
%TO.C,R32*%
X152433500Y-50944400D03*
X152433500Y-61104400D03*
%TD*%
%TO.C,C29*%
X122506300Y-76797700D03*
X117506300Y-76797700D03*
%TD*%
%TO.C,C33*%
X177003500Y-91555800D03*
X177003500Y-96555800D03*
%TD*%
%TO.C,C20*%
X104440100Y-80115200D03*
X99440100Y-80115200D03*
%TD*%
D12*
%TO.C,TP4*%
X81103500Y-41009200D03*
%TD*%
D11*
%TO.C,C35*%
X87352900Y-110479600D03*
X92352900Y-110479600D03*
%TD*%
D40*
%TO.C,H1*%
X55000000Y-125000000D03*
%TD*%
D12*
%TO.C,TP7*%
X120040200Y-116492800D03*
%TD*%
D10*
%TO.C,C19*%
X96586600Y-65272000D03*
D11*
X96586600Y-63272000D03*
%TD*%
D40*
%TO.C,H4*%
X55000000Y-20000000D03*
%TD*%
D41*
%TO.C,U1*%
X117000000Y-31700000D03*
X118000000Y-31700000D03*
X119000000Y-31700000D03*
X117000000Y-31000000D03*
X118000000Y-31000000D03*
D42*
X118000000Y-31000000D03*
D41*
X119000000Y-31000000D03*
X117000000Y-30300000D03*
X118000000Y-30300000D03*
X119000000Y-30300000D03*
D43*
X116000000Y-33662500D03*
X117000000Y-33662500D03*
X118000000Y-33662500D03*
X119000000Y-33662500D03*
X120000000Y-33662500D03*
X120000000Y-28337500D03*
X119000000Y-28337500D03*
X118000000Y-28337500D03*
X117000000Y-28337500D03*
X116000000Y-28337500D03*
%TD*%
D12*
%TO.C,TP3*%
X86323500Y-45958800D03*
%TD*%
D11*
%TO.C,R26*%
X147900000Y-78000000D03*
X158060000Y-78000000D03*
%TD*%
D10*
%TO.C,C5*%
X76948900Y-67219700D03*
D11*
X76948900Y-65219700D03*
%TD*%
D44*
%TO.C,J5*%
X106000000Y-85800000D03*
D45*
X106000000Y-88340000D03*
X106000000Y-90880000D03*
X106000000Y-93420000D03*
X106000000Y-95960000D03*
X106000000Y-98500000D03*
X106000000Y-101040000D03*
X106000000Y-103580000D03*
%TD*%
D11*
%TO.C,R8*%
X100191700Y-123240000D03*
X100191700Y-113080000D03*
%TD*%
D44*
%TO.C,J6*%
X107000000Y-31000000D03*
D45*
X107000000Y-33540000D03*
X107000000Y-36080000D03*
%TD*%
D15*
%TO.C,C18*%
X57283800Y-114397600D03*
D11*
X55283800Y-114397600D03*
%TD*%
%TO.C,C14*%
X77075800Y-108935800D03*
X82075800Y-108935800D03*
%TD*%
D46*
%TO.C,U6*%
X93260000Y-85250000D03*
X91990000Y-85250000D03*
X90720000Y-85250000D03*
X89450000Y-85250000D03*
X88180000Y-85250000D03*
X86910000Y-85250000D03*
X85640000Y-85250000D03*
X84370000Y-85250000D03*
X83100000Y-85250000D03*
X81830000Y-85250000D03*
X80560000Y-85250000D03*
X79290000Y-85250000D03*
X78020000Y-85250000D03*
X76750000Y-85250000D03*
D47*
X75500000Y-87015000D03*
X75500000Y-88285000D03*
X75500000Y-89555000D03*
X75500000Y-90825000D03*
X75500000Y-92095000D03*
X75500000Y-93365000D03*
X75500000Y-94635000D03*
X75500000Y-95905000D03*
X75500000Y-97175000D03*
X75500000Y-98445000D03*
X75500000Y-99715000D03*
X75500000Y-100985000D03*
D46*
X76750000Y-102750000D03*
X78020000Y-102750000D03*
X79290000Y-102750000D03*
X80560000Y-102750000D03*
X81830000Y-102750000D03*
X83100000Y-102750000D03*
X84370000Y-102750000D03*
X85640000Y-102750000D03*
X86910000Y-102750000D03*
X88180000Y-102750000D03*
X89450000Y-102750000D03*
X90720000Y-102750000D03*
X91990000Y-102750000D03*
X93260000Y-102750000D03*
D41*
X86240000Y-91100000D03*
X84840000Y-91100000D03*
X86940000Y-91800000D03*
X85540000Y-91800000D03*
X84140000Y-91800000D03*
X86240000Y-92500000D03*
D48*
X85540000Y-92500000D03*
D41*
X84840000Y-92500000D03*
X86940000Y-93200000D03*
X85540000Y-93200000D03*
X84140000Y-93200000D03*
X86240000Y-93900000D03*
X84840000Y-93900000D03*
%TD*%
D11*
%TO.C,C12*%
X70897600Y-69476600D03*
X70897600Y-64476600D03*
%TD*%
%TO.C,R38*%
X157028300Y-57996200D03*
X157028300Y-52916200D03*
%TD*%
%TO.C,C23*%
X61479400Y-120112300D03*
X61479400Y-125112300D03*
%TD*%
%TO.C,C16*%
X88422800Y-81063700D03*
X83422800Y-81063700D03*
%TD*%
D40*
%TO.C,H2*%
X175000000Y-125000000D03*
%TD*%
D11*
%TO.C,R30*%
X71531500Y-92863700D03*
X71531500Y-103023700D03*
%TD*%
%TO.C,C11*%
X58035500Y-64423600D03*
X63035500Y-64423600D03*
%TD*%
%TO.C,C22*%
X123984200Y-33160200D03*
X128984200Y-33160200D03*
%TD*%
D40*
%TO.C,H3*%
X175000000Y-20000000D03*
%TD*%
D13*
%TO.C,C4*%
X126251700Y-95524900D03*
D11*
X128751700Y-95524900D03*
%TD*%
%TO.C,R24*%
X121120300Y-97504400D03*
X110960300Y-97504400D03*
%TD*%
%TO.C,R11*%
X147900000Y-97000000D03*
X158060000Y-97000000D03*
%TD*%
D49*
%TO.C,Y1*%
X60193600Y-83898700D03*
X65073600Y-83898700D03*
%TD*%
M02*
