%TF.GenerationSoftware,KiCad,Pcbnew,10.0.5*%
%TF.CreationDate,2026-08-11T11:25:44+02:00*%
%TF.ProjectId,obd2-simulator,6f626432-2d73-4696-9d75-6c61746f722e,rev?*%
%TF.SameCoordinates,Original*%
%TF.FileFunction,Copper,L1,Top*%
%TF.FilePolarity,Positive*%
%FSLAX46Y46*%
G04 Gerber Fmt 4.6, Leading zero omitted, Abs format (unit mm)*
G04 Created by KiCad (PCBNEW 10.0.5) date 2026-08-11 11:25:44*
%MOMM*%
%LPD*%
G01*
G04 APERTURE LIST*
G04 Aperture macros list*
%AMRoundRect*
0 Rectangle with rounded corners*
0 $1 Rounding radius*
0 $2 $3 $4 $5 $6 $7 $8 $9 X,Y pos of 4 corners*
0 Add a 4 corners polygon primitive as box body*
4,1,4,$2,$3,$4,$5,$6,$7,$8,$9,$2,$3,0*
0 Add four circle primitives for the rounded corners*
1,1,$1+$1,$2,$3*
1,1,$1+$1,$4,$5*
1,1,$1+$1,$6,$7*
1,1,$1+$1,$8,$9*
0 Add four rect primitives between the rounded corners*
20,1,$1+$1,$2,$3,$4,$5,0*
20,1,$1+$1,$4,$5,$6,$7,0*
20,1,$1+$1,$6,$7,$8,$9,0*
20,1,$1+$1,$8,$9,$2,$3,0*%
%AMRotRect*
0 Rectangle, with rotation*
0 The origin of the aperture is its center*
0 $1 length*
0 $2 width*
0 $3 Rotation angle, in degrees counterclockwise*
0 Add horizontal line*
21,1,$1,$2,0,0,$3*%
%AMFreePoly0*
4,1,21,-0.125000,1.200000,0.125000,1.200000,0.125000,1.700000,0.375000,1.700000,0.375000,1.200000,0.825000,1.200000,0.825000,-1.200000,0.375000,-1.200000,0.375000,-1.700000,0.125000,-1.700000,0.125000,-1.200000,-0.125000,-1.200000,-0.125000,-1.700000,-0.375000,-1.700000,-0.375000,-1.200000,-0.825000,-1.200000,-0.825000,1.200000,-0.375000,1.200000,-0.375000,1.700000,-0.125000,1.700000,
-0.125000,1.200000,-0.125000,1.200000,$1*%
G04 Aperture macros list end*
%TA.AperFunction,ComponentPad*%
%ADD10RoundRect,0.250000X0.550000X-0.550000X0.550000X0.550000X-0.550000X0.550000X-0.550000X-0.550000X0*%
%TD*%
%TA.AperFunction,ComponentPad*%
%ADD11C,1.600000*%
%TD*%
%TA.AperFunction,ComponentPad*%
%ADD12R,2.000000X2.000000*%
%TD*%
%TA.AperFunction,ComponentPad*%
%ADD13RoundRect,0.250000X-0.550000X-0.550000X0.550000X-0.550000X0.550000X0.550000X-0.550000X0.550000X0*%
%TD*%
%TA.AperFunction,ComponentPad*%
%ADD14C,2.000000*%
%TD*%
%TA.AperFunction,ComponentPad*%
%ADD15RoundRect,0.250000X0.550000X0.550000X-0.550000X0.550000X-0.550000X-0.550000X0.550000X-0.550000X0*%
%TD*%
%TA.AperFunction,SMDPad,CuDef*%
%ADD16RoundRect,0.150000X-0.512500X-0.150000X0.512500X-0.150000X0.512500X0.150000X-0.512500X0.150000X0*%
%TD*%
%TA.AperFunction,SMDPad,CuDef*%
%ADD17RoundRect,0.250000X0.650000X-1.000000X0.650000X1.000000X-0.650000X1.000000X-0.650000X-1.000000X0*%
%TD*%
%TA.AperFunction,SMDPad,CuDef*%
%ADD18RoundRect,0.150000X0.150000X-0.825000X0.150000X0.825000X-0.150000X0.825000X-0.150000X-0.825000X0*%
%TD*%
%TA.AperFunction,SMDPad,CuDef*%
%ADD19RoundRect,0.162500X-0.650000X-0.162500X0.650000X-0.162500X0.650000X0.162500X-0.650000X0.162500X0*%
%TD*%
%TA.AperFunction,ComponentPad*%
%ADD20C,2.600000*%
%TD*%
%TA.AperFunction,ComponentPad*%
%ADD21R,3.200000X2.000000*%
%TD*%
%TA.AperFunction,ComponentPad*%
%ADD22O,2.000000X3.800000*%
%TD*%
%TA.AperFunction,SMDPad,CuDef*%
%ADD23RoundRect,0.150000X0.150000X-0.875000X0.150000X0.875000X-0.150000X0.875000X-0.150000X-0.875000X0*%
%TD*%
%TA.AperFunction,ComponentPad*%
%ADD24C,0.700000*%
%TD*%
%TA.AperFunction,ComponentPad*%
%ADD25O,0.900000X2.400000*%
%TD*%
%TA.AperFunction,ComponentPad*%
%ADD26O,0.900000X1.700000*%
%TD*%
%TA.AperFunction,SMDPad,CuDef*%
%ADD27RoundRect,0.060000X0.060000X-0.240000X0.060000X0.240000X-0.060000X0.240000X-0.060000X-0.240000X0*%
%TD*%
%TA.AperFunction,SMDPad,CuDef*%
%ADD28FreePoly0,90.000000*%
%TD*%
%TA.AperFunction,SMDPad,CuDef*%
%ADD29RoundRect,0.150000X0.512500X0.150000X-0.512500X0.150000X-0.512500X-0.150000X0.512500X-0.150000X0*%
%TD*%
%TA.AperFunction,SMDPad,CuDef*%
%ADD30RoundRect,0.150000X-0.150000X0.512500X-0.150000X-0.512500X0.150000X-0.512500X0.150000X0.512500X0*%
%TD*%
%TA.AperFunction,SMDPad,CuDef*%
%ADD31RoundRect,0.150000X0.587500X0.150000X-0.587500X0.150000X-0.587500X-0.150000X0.587500X-0.150000X0*%
%TD*%
%TA.AperFunction,SMDPad,CuDef*%
%ADD32RoundRect,0.250000X-1.000000X-0.650000X1.000000X-0.650000X1.000000X0.650000X-1.000000X0.650000X0*%
%TD*%
%TA.AperFunction,ComponentPad*%
%ADD33RoundRect,0.250000X-0.550000X-0.500000X0.550000X-0.500000X0.550000X0.500000X-0.550000X0.500000X0*%
%TD*%
%TA.AperFunction,ComponentPad*%
%ADD34C,3.000000*%
%TD*%
%TA.AperFunction,SMDPad,CuDef*%
%ADD35RoundRect,0.250000X0.625000X-0.375000X0.625000X0.375000X-0.625000X0.375000X-0.625000X-0.375000X0*%
%TD*%
%TA.AperFunction,SMDPad,CuDef*%
%ADD36RotRect,1.400000X1.000000X45.000000*%
%TD*%
%TA.AperFunction,SMDPad,CuDef*%
%ADD37RotRect,2.000000X1.800000X45.000000*%
%TD*%
%TA.AperFunction,ComponentPad*%
%ADD38C,0.600000*%
%TD*%
%TA.AperFunction,SMDPad,CuDef*%
%ADD39R,3.200000X2.300000*%
%TD*%
%TA.AperFunction,SMDPad,CuDef*%
%ADD40RoundRect,0.150000X0.150000X-0.637500X0.150000X0.637500X-0.150000X0.637500X-0.150000X-0.637500X0*%
%TD*%
%TA.AperFunction,ComponentPad*%
%ADD41R,1.700000X1.700000*%
%TD*%
%TA.AperFunction,ComponentPad*%
%ADD42C,1.700000*%
%TD*%
%TA.AperFunction,SMDPad,CuDef*%
%ADD43R,0.900000X1.500000*%
%TD*%
%TA.AperFunction,SMDPad,CuDef*%
%ADD44R,1.500000X0.900000*%
%TD*%
%TA.AperFunction,HeatsinkPad*%
%ADD45C,0.600000*%
%TD*%
%TA.AperFunction,HeatsinkPad*%
%ADD46R,3.900000X3.900000*%
%TD*%
%TA.AperFunction,ComponentPad*%
%ADD47C,1.500000*%
%TD*%
%TA.AperFunction,ViaPad*%
%ADD48C,0.600000*%
%TD*%
%TA.AperFunction,ViaPad*%
%ADD49C,0.800000*%
%TD*%
%TA.AperFunction,Conductor*%
%ADD50C,0.200000*%
%TD*%
%TA.AperFunction,Conductor*%
%ADD51C,0.250000*%
%TD*%
%TA.AperFunction,Conductor*%
%ADD52C,0.400000*%
%TD*%
G04 APERTURE END LIST*
D10*
%TO.P,C3,1*%
%TO.N,VBUS*%
X111606900Y-71876200D03*
D11*
%TO.P,C3,2*%
%TO.N,GND*%
X111606900Y-69376200D03*
%TD*%
D12*
%TO.P,TP6,1*%
%TO.N,MISO*%
X106403800Y-113463700D03*
%TD*%
D13*
%TO.P,C28,1*%
%TO.N,V5_STICK*%
X134051400Y-85237600D03*
D11*
%TO.P,C28,2*%
%TO.N,GND*%
X136551400Y-85237600D03*
%TD*%
D14*
%TO.P,SW4,1*%
%TO.N,BOOT*%
X134000000Y-22000000D03*
X140500000Y-22000000D03*
%TO.P,SW4,2*%
%TO.N,GND*%
X134000000Y-26500000D03*
X140500000Y-26500000D03*
%TD*%
%TO.P,SW2,1*%
%TO.N,BTN_CLEAR*%
X165750000Y-100750000D03*
X172250000Y-100750000D03*
%TO.P,SW2,2*%
%TO.N,GND*%
X165750000Y-105250000D03*
X172250000Y-105250000D03*
%TD*%
D11*
%TO.P,R9,1*%
%TO.N,+3V3*%
X147900000Y-72000000D03*
%TO.P,R9,2*%
%TO.N,JOY_SW*%
X158060000Y-72000000D03*
%TD*%
%TO.P,C36,1*%
%TO.N,ENC_SW*%
X87152500Y-114574900D03*
%TO.P,C36,2*%
%TO.N,GND*%
X87152500Y-119574900D03*
%TD*%
D15*
%TO.P,C37,1*%
%TO.N,V5_STICK*%
X64616800Y-112724700D03*
D11*
%TO.P,C37,2*%
%TO.N,GND*%
X62616800Y-112724700D03*
%TD*%
%TO.P,C15,1*%
%TO.N,+3V3*%
X92875300Y-81863800D03*
%TO.P,C15,2*%
%TO.N,GND*%
X92875300Y-76863800D03*
%TD*%
%TO.P,R40,1*%
%TO.N,ENC_SW_RAW*%
X176502300Y-71484200D03*
%TO.P,R40,2*%
%TO.N,ENC_SW*%
X176502300Y-76564200D03*
%TD*%
D16*
%TO.P,U2,1*%
%TO.N,GND*%
X110357500Y-80905000D03*
%TO.P,U2,2*%
%TO.N,SW_3V3*%
X110357500Y-81855000D03*
%TO.P,U2,3*%
%TO.N,VBUS*%
X110357500Y-82805000D03*
%TO.P,U2,4*%
%TO.N,FB_3V3*%
X112632500Y-82805000D03*
%TO.P,U2,5*%
%TO.N,VBUS*%
X112632500Y-81855000D03*
%TO.P,U2,6*%
%TO.N,BST_3V3*%
X112632500Y-80905000D03*
%TD*%
D11*
%TO.P,C24,1*%
%TO.N,+3V3*%
X111451800Y-64486200D03*
%TO.P,C24,2*%
%TO.N,GND*%
X111451800Y-59486200D03*
%TD*%
D17*
%TO.P,D3,1*%
%TO.N,OBD_12V*%
X112634400Y-42201100D03*
%TO.P,D3,2*%
%TO.N,FUSED_12V*%
X112634400Y-38201100D03*
%TD*%
D11*
%TO.P,R10,1*%
%TO.N,+3V3*%
X147900000Y-85000000D03*
%TO.P,R10,2*%
%TO.N,BTN_CONFIRM*%
X158060000Y-85000000D03*
%TD*%
D12*
%TO.P,TP2,1*%
%TO.N,GND*%
X98798300Y-70218600D03*
%TD*%
D14*
%TO.P,SW1,1*%
%TO.N,BTN_CONFIRM*%
X165750000Y-88750000D03*
X172250000Y-88750000D03*
%TO.P,SW1,2*%
%TO.N,GND*%
X165750000Y-93250000D03*
X172250000Y-93250000D03*
%TD*%
D18*
%TO.P,U5,1*%
%TO.N,CAN_TX*%
X66740000Y-78330000D03*
%TO.P,U5,2*%
%TO.N,GND*%
X68010000Y-78330000D03*
%TO.P,U5,3*%
%TO.N,+3V3*%
X69280000Y-78330000D03*
%TO.P,U5,4*%
%TO.N,CAN_RX*%
X70550000Y-78330000D03*
%TO.P,U5,5*%
%TO.N,N/C*%
X70550000Y-73380000D03*
%TO.P,U5,6*%
%TO.N,CANL*%
X69280000Y-73380000D03*
%TO.P,U5,7*%
%TO.N,CANH*%
X68010000Y-73380000D03*
%TO.P,U5,8*%
%TO.N,GND*%
X66740000Y-73380000D03*
%TD*%
D19*
%TO.P,U7,1*%
%TO.N,CS_FLASH*%
X110507500Y-104750000D03*
%TO.P,U7,2*%
%TO.N,MISO*%
X110507500Y-106020000D03*
%TO.P,U7,3*%
%TO.N,+3V3*%
X110507500Y-107290000D03*
%TO.P,U7,4*%
%TO.N,GND*%
X110507500Y-108560000D03*
%TO.P,U7,5*%
%TO.N,MOSI*%
X117682500Y-108560000D03*
%TO.P,U7,6*%
%TO.N,SCK*%
X117682500Y-107290000D03*
%TO.P,U7,7*%
%TO.N,+3V3*%
X117682500Y-106020000D03*
%TO.P,U7,8*%
X117682500Y-104750000D03*
%TD*%
D20*
%TO.P,L3,1*%
%TO.N,SW_5V*%
X122551400Y-85237600D03*
%TO.P,L3,2*%
%TO.N,V5_STICK*%
X127551400Y-85237600D03*
%TD*%
D13*
%TO.P,C25,1*%
%TO.N,+3V3*%
X127938700Y-76068800D03*
D11*
%TO.P,C25,2*%
%TO.N,GND*%
X129938700Y-76068800D03*
%TD*%
D12*
%TO.P,ENC1,A*%
%TO.N,ENC_A_RAW*%
X161500000Y-58500000D03*
D14*
%TO.P,ENC1,B*%
%TO.N,ENC_B_RAW*%
X161500000Y-63500000D03*
%TO.P,ENC1,C*%
%TO.N,GND*%
X161500000Y-61000000D03*
D21*
%TO.P,ENC1,MP*%
X169000000Y-55400000D03*
X169000000Y-66600000D03*
D14*
%TO.P,ENC1,S1*%
%TO.N,ENC_SW_RAW*%
X176000000Y-63500000D03*
%TO.P,ENC1,S2*%
%TO.N,GND*%
X176000000Y-58500000D03*
%TD*%
D11*
%TO.P,R12,1*%
%TO.N,+3V3*%
X147900000Y-109000000D03*
%TO.P,R12,2*%
%TO.N,BTN_RETURN*%
X158060000Y-109000000D03*
%TD*%
%TO.P,R19,1*%
%TO.N,ISET*%
X67330300Y-102444800D03*
%TO.P,R19,2*%
%TO.N,GND*%
X57170300Y-102444800D03*
%TD*%
%TO.P,R14,1*%
%TO.N,+3V3*%
X91447100Y-114791400D03*
%TO.P,R14,2*%
%TO.N,BOOT*%
X91447100Y-124951400D03*
%TD*%
%TO.P,R22,1*%
%TO.N,VBUS*%
X117874600Y-52837200D03*
%TO.P,R22,2*%
%TO.N,PD_SENSE*%
X117874600Y-42677200D03*
%TD*%
D12*
%TO.P,TP1,1*%
%TO.N,+3V3*%
X99042400Y-75415300D03*
%TD*%
D22*
%TO.P,J2,1*%
%TO.N,N/C*%
X68000000Y-22700000D03*
%TO.P,J2,2*%
X72000000Y-22700000D03*
%TO.P,J2,3*%
X76000000Y-22700000D03*
%TO.P,J2,4*%
%TO.N,GND*%
X80000000Y-22700000D03*
%TO.P,J2,5*%
X84000000Y-22700000D03*
%TO.P,J2,6*%
%TO.N,CANH*%
X88000000Y-22700000D03*
%TO.P,J2,7*%
%TO.N,N/C*%
X92000000Y-22700000D03*
%TO.P,J2,8*%
X96000000Y-22700000D03*
%TO.P,J2,9*%
X68000000Y-31300000D03*
%TO.P,J2,10*%
X72000000Y-31300000D03*
%TO.P,J2,11*%
X76000000Y-31300000D03*
%TO.P,J2,12*%
X80000000Y-31300000D03*
%TO.P,J2,13*%
X84000000Y-31300000D03*
%TO.P,J2,14*%
%TO.N,CANL*%
X88000000Y-31300000D03*
%TO.P,J2,15*%
%TO.N,N/C*%
X92000000Y-31300000D03*
%TO.P,J2,16*%
%TO.N,OBD_12V*%
X96000000Y-31300000D03*
%TD*%
D23*
%TO.P,U4,1*%
%TO.N,CAN_TX*%
X53395000Y-78275000D03*
%TO.P,U4,2*%
%TO.N,CAN_RX*%
X54665000Y-78275000D03*
%TO.P,U4,3*%
%TO.N,N/C*%
X55935000Y-78275000D03*
%TO.P,U4,4*%
%TO.N,+3V3*%
X57205000Y-78275000D03*
%TO.P,U4,5*%
X58475000Y-78275000D03*
%TO.P,U4,6*%
X59745000Y-78275000D03*
%TO.P,U4,7*%
%TO.N,XTAL2*%
X61015000Y-78275000D03*
%TO.P,U4,8*%
%TO.N,XTAL1*%
X62285000Y-78275000D03*
%TO.P,U4,9*%
%TO.N,GND*%
X63555000Y-78275000D03*
%TO.P,U4,10*%
%TO.N,N/C*%
X63555000Y-68975000D03*
%TO.P,U4,11*%
X62285000Y-68975000D03*
%TO.P,U4,12*%
%TO.N,INT_CAN*%
X61015000Y-68975000D03*
%TO.P,U4,13*%
%TO.N,SCK*%
X59745000Y-68975000D03*
%TO.P,U4,14*%
%TO.N,MOSI*%
X58475000Y-68975000D03*
%TO.P,U4,15*%
%TO.N,MISO*%
X57205000Y-68975000D03*
%TO.P,U4,16*%
%TO.N,CS_CAN*%
X55935000Y-68975000D03*
%TO.P,U4,17*%
%TO.N,+3V3*%
X54665000Y-68975000D03*
%TO.P,U4,18*%
X53395000Y-68975000D03*
%TD*%
D11*
%TO.P,R23,1*%
%TO.N,PD_CFG1*%
X122640500Y-42774800D03*
%TO.P,R23,2*%
%TO.N,GND*%
X122640500Y-52934800D03*
%TD*%
%TO.P,C7,1*%
%TO.N,XTAL2*%
X62982100Y-89522400D03*
%TO.P,C7,2*%
%TO.N,GND*%
X62982100Y-94522400D03*
%TD*%
%TO.P,R15,1*%
%TO.N,USB_SEL*%
X53047600Y-102356300D03*
%TO.P,R15,2*%
%TO.N,GND*%
X53047600Y-92196300D03*
%TD*%
%TO.P,C10,1*%
%TO.N,+3V3*%
X53646200Y-64982900D03*
%TO.P,C10,2*%
%TO.N,GND*%
X53646200Y-59982900D03*
%TD*%
D24*
%TO.P,J1,A1*%
%TO.N,GND*%
X120000000Y-20800000D03*
%TO.P,J1,A4*%
%TO.N,VBUS*%
X119150000Y-20800000D03*
%TO.P,J1,A5*%
%TO.N,CC1*%
X118300000Y-20800000D03*
%TO.P,J1,A6*%
%TO.N,USBC_DP*%
X117450000Y-20800000D03*
%TO.P,J1,A7*%
%TO.N,USBC_DM*%
X116600000Y-20800000D03*
%TO.P,J1,A8*%
%TO.N,N/C*%
X115750000Y-20800000D03*
%TO.P,J1,A9*%
%TO.N,VBUS*%
X114900000Y-20800000D03*
%TO.P,J1,A12*%
%TO.N,GND*%
X114050000Y-20800000D03*
%TO.P,J1,B1*%
X114050000Y-19450000D03*
%TO.P,J1,B4*%
%TO.N,VBUS*%
X114900000Y-19450000D03*
%TO.P,J1,B5*%
%TO.N,CC2*%
X115750000Y-19450000D03*
%TO.P,J1,B6*%
%TO.N,USBC_DP*%
X116600000Y-19450000D03*
%TO.P,J1,B7*%
%TO.N,USBC_DM*%
X117450000Y-19450000D03*
%TO.P,J1,B8*%
%TO.N,N/C*%
X118300000Y-19450000D03*
%TO.P,J1,B9*%
%TO.N,VBUS*%
X119150000Y-19450000D03*
%TO.P,J1,B12*%
%TO.N,GND*%
X120000000Y-19450000D03*
D25*
%TO.P,J1,SH*%
X121350000Y-19820000D03*
D26*
X121350000Y-16440000D03*
D25*
X112700000Y-19820000D03*
D26*
X112700000Y-16440000D03*
%TD*%
D11*
%TO.P,C6,1*%
%TO.N,XTAL1*%
X58102100Y-89522400D03*
%TO.P,C6,2*%
%TO.N,GND*%
X58102100Y-94522400D03*
%TD*%
D27*
%TO.P,U9,1*%
%TO.N,USBC_DP*%
X75372700Y-115355100D03*
%TO.P,U9,2*%
%TO.N,USBC_DM*%
X75872700Y-115355100D03*
%TO.P,U9,3*%
%TO.N,USBA_DP*%
X76372700Y-115355100D03*
%TO.P,U9,4*%
%TO.N,USBA_DM*%
X76872700Y-115355100D03*
%TO.P,U9,5*%
%TO.N,GND*%
X77372700Y-115355100D03*
%TO.P,U9,6*%
X77372700Y-112555100D03*
%TO.P,U9,7*%
%TO.N,USB_DM*%
X76872700Y-112555100D03*
%TO.P,U9,8*%
%TO.N,USB_DP*%
X76372700Y-112555100D03*
%TO.P,U9,9*%
%TO.N,USB_SEL*%
X75872700Y-112555100D03*
%TO.P,U9,10*%
%TO.N,+3V3*%
X75372700Y-112555100D03*
D28*
%TO.P,U9,11*%
%TO.N,GND*%
X76372700Y-113955100D03*
%TD*%
D11*
%TO.P,C26,1*%
%TO.N,MCU_EN*%
X83327900Y-76440500D03*
%TO.P,C26,2*%
%TO.N,GND*%
X83327900Y-71440500D03*
%TD*%
%TO.P,R27,1*%
%TO.N,+3V3*%
X147900000Y-66000000D03*
%TO.P,R27,2*%
%TO.N,JOY_Y*%
X158060000Y-66000000D03*
%TD*%
%TO.P,R17A,1*%
%TO.N,FB_3V3*%
X105059100Y-61448700D03*
%TO.P,R17A,2*%
%TO.N,FB_MID*%
X105059100Y-51288700D03*
%TD*%
%TO.P,C21,1*%
%TO.N,SW_3V3*%
X113382000Y-76975800D03*
%TO.P,C21,2*%
%TO.N,BST_3V3*%
X108382000Y-76975800D03*
%TD*%
D29*
%TO.P,D5,1*%
%TO.N,USBA_DP*%
X83261900Y-115179400D03*
%TO.P,D5,2*%
%TO.N,GND*%
X83261900Y-114229400D03*
%TO.P,D5,3*%
%TO.N,USBA_DM*%
X83261900Y-113279400D03*
%TO.P,D5,4*%
X80986900Y-113279400D03*
%TO.P,D5,5*%
%TO.N,+3V3*%
X80986900Y-114229400D03*
%TO.P,D5,6*%
%TO.N,USBA_DP*%
X80986900Y-115179400D03*
%TD*%
D13*
%TO.P,C1,1*%
%TO.N,VBUS*%
X126150000Y-20800000D03*
D11*
%TO.P,C1,2*%
%TO.N,GND*%
X128650000Y-20800000D03*
%TD*%
%TO.P,R21,1*%
%TO.N,VBUS*%
X127157300Y-38080000D03*
%TO.P,R21,2*%
%TO.N,PD_VDD*%
X116997300Y-38080000D03*
%TD*%
D30*
%TO.P,D4,1*%
%TO.N,USBC_DP*%
X109166900Y-17426500D03*
%TO.P,D4,2*%
%TO.N,GND*%
X108216900Y-17426500D03*
%TO.P,D4,3*%
%TO.N,USBC_DM*%
X107266900Y-17426500D03*
%TO.P,D4,4*%
X107266900Y-19701500D03*
%TO.P,D4,5*%
%TO.N,+3V3*%
X108216900Y-19701500D03*
%TO.P,D4,6*%
%TO.N,USBC_DP*%
X109166900Y-19701500D03*
%TD*%
D11*
%TO.P,R37,1*%
%TO.N,USB_HOST_EN*%
X67124300Y-107024300D03*
%TO.P,R37,2*%
%TO.N,GND*%
X56964300Y-107024300D03*
%TD*%
D31*
%TO.P,D1,1*%
%TO.N,CANH*%
X87559600Y-42154600D03*
%TO.P,D1,2*%
%TO.N,CANL*%
X87559600Y-40254600D03*
%TO.P,D1,3*%
%TO.N,GND*%
X85684600Y-41204600D03*
%TD*%
D11*
%TO.P,C34,1*%
%TO.N,ENC_A*%
X89354300Y-106191800D03*
%TO.P,C34,2*%
%TO.N,GND*%
X84354300Y-106191800D03*
%TD*%
D14*
%TO.P,SW3,1*%
%TO.N,BTN_RETURN*%
X165750000Y-112750000D03*
X172250000Y-112750000D03*
%TO.P,SW3,2*%
%TO.N,GND*%
X165750000Y-117250000D03*
X172250000Y-117250000D03*
%TD*%
D32*
%TO.P,D2,1*%
%TO.N,OBD_12V*%
X96371500Y-41528700D03*
%TO.P,D2,2*%
%TO.N,GND*%
X100371500Y-41528700D03*
%TD*%
D11*
%TO.P,R16,1*%
%TO.N,+3V3*%
X103823000Y-75412900D03*
%TO.P,R16,2*%
%TO.N,FB_3V3*%
X103823000Y-65252900D03*
%TD*%
D14*
%TO.P,SW5,1*%
%TO.N,MCU_EN*%
X134000000Y-30000000D03*
X140500000Y-30000000D03*
%TO.P,SW5,2*%
%TO.N,GND*%
X134000000Y-34500000D03*
X140500000Y-34500000D03*
%TD*%
D11*
%TO.P,C13,1*%
%TO.N,+3V3*%
X115693000Y-112498700D03*
%TO.P,C13,2*%
%TO.N,GND*%
X110693000Y-112498700D03*
%TD*%
D33*
%TO.P,J4,1*%
%TO.N,VBUS_STICK*%
X70000000Y-120700000D03*
D11*
%TO.P,J4,2*%
%TO.N,USBA_DM*%
X72500000Y-120700000D03*
%TO.P,J4,3*%
%TO.N,USBA_DP*%
X74500000Y-120700000D03*
%TO.P,J4,4*%
%TO.N,GND*%
X77000000Y-120700000D03*
D34*
%TO.P,J4,SH*%
X66930000Y-123410000D03*
X80070000Y-123410000D03*
%TD*%
D11*
%TO.P,R36,1*%
%TO.N,+3V3*%
X96557000Y-108703900D03*
%TO.P,R36,2*%
%TO.N,CS_FLASH*%
X106717000Y-108703900D03*
%TD*%
%TO.P,C32,1*%
%TO.N,ENC_B*%
X176951400Y-80798400D03*
%TO.P,C32,2*%
%TO.N,GND*%
X176951400Y-85798400D03*
%TD*%
D35*
%TO.P,F1,1*%
%TO.N,VBUS*%
X106846100Y-26486100D03*
%TO.P,F1,2*%
%TO.N,FUSED_12V*%
X106846100Y-23686100D03*
%TD*%
D11*
%TO.P,R7,1*%
%TO.N,CANH*%
X91492800Y-51061100D03*
%TO.P,R7,2*%
%TO.N,CANL*%
X91492800Y-40901100D03*
%TD*%
%TO.P,R28,1*%
%TO.N,JOY_X*%
X162000000Y-45000000D03*
%TO.P,R28,2*%
%TO.N,JOY_XB*%
X172160000Y-45000000D03*
%TD*%
%TO.P,R13,1*%
%TO.N,+3V3*%
X87970900Y-66449900D03*
%TO.P,R13,2*%
%TO.N,MCU_EN*%
X87970900Y-76609900D03*
%TD*%
D20*
%TO.P,L2,1*%
%TO.N,SW_3V3*%
X114239000Y-87068800D03*
%TO.P,L2,2*%
%TO.N,+3V3*%
X114239000Y-92068800D03*
%TD*%
D12*
%TO.P,TP8,1*%
%TO.N,VBUS*%
X111317800Y-25982300D03*
%TD*%
D29*
%TO.P,U10,1*%
%TO.N,VBUS_STICK*%
X71263500Y-115151200D03*
%TO.P,U10,2*%
%TO.N,GND*%
X71263500Y-114201200D03*
%TO.P,U10,3*%
%TO.N,ISET*%
X71263500Y-113251200D03*
%TO.P,U10,4*%
%TO.N,USB_HOST_EN*%
X68988500Y-113251200D03*
%TO.P,U10,5*%
%TO.N,V5_STICK*%
X68988500Y-115151200D03*
%TD*%
D12*
%TO.P,TP5,1*%
%TO.N,MOSI*%
X127182500Y-108560000D03*
%TD*%
D16*
%TO.P,U11,1*%
%TO.N,GND*%
X115857500Y-80905000D03*
%TO.P,U11,2*%
%TO.N,SW_5V*%
X115857500Y-81855000D03*
%TO.P,U11,3*%
%TO.N,VBUS*%
X115857500Y-82805000D03*
%TO.P,U11,4*%
%TO.N,FB_5V*%
X118132500Y-82805000D03*
%TO.P,U11,5*%
%TO.N,VBUS*%
X118132500Y-81855000D03*
%TO.P,U11,6*%
%TO.N,BST_5V*%
X118132500Y-80905000D03*
%TD*%
D10*
%TO.P,C27,1*%
%TO.N,VBUS*%
X120842500Y-71342000D03*
D11*
%TO.P,C27,2*%
%TO.N,GND*%
X120842500Y-68842000D03*
%TD*%
%TO.P,R17B,1*%
%TO.N,FB_MID*%
X106545300Y-47041200D03*
%TO.P,R17B,2*%
%TO.N,GND*%
X96385300Y-47041200D03*
%TD*%
%TO.P,R31,1*%
%TO.N,MOSI_MCU*%
X78359200Y-81991800D03*
%TO.P,R31,2*%
%TO.N,MOSI*%
X78359200Y-71831800D03*
%TD*%
D36*
%TO.P,SW6,1*%
%TO.N,JOY_X*%
X165443253Y-80534422D03*
%TO.P,SW6,2*%
%TO.N,JOY_SW*%
X166454416Y-81545584D03*
%TO.P,SW6,3*%
%TO.N,JOY_Y*%
X167465578Y-82556747D03*
%TO.P,SW6,4*%
%TO.N,JOY_YB*%
X170534422Y-75443253D03*
%TO.P,SW6,5*%
%TO.N,GND*%
X171545584Y-76454416D03*
%TO.P,SW6,6*%
%TO.N,JOY_XB*%
X172556747Y-77465578D03*
D37*
%TO.P,SW6,7*%
%TO.N,GND*%
X166136218Y-76136218D03*
%TO.P,SW6,8*%
X171863782Y-81863782D03*
%TD*%
D11*
%TO.P,R39,1*%
%TO.N,ENC_B_RAW*%
X164222300Y-71552300D03*
%TO.P,R39,2*%
%TO.N,ENC_B*%
X169302300Y-71552300D03*
%TD*%
%TO.P,R29,1*%
%TO.N,JOY_Y*%
X162000000Y-41000000D03*
%TO.P,R29,2*%
%TO.N,JOY_YB*%
X172160000Y-41000000D03*
%TD*%
%TO.P,R34,1*%
%TO.N,+3V3*%
X161379900Y-89652800D03*
%TO.P,R34,2*%
%TO.N,ENC_SW*%
X151219900Y-89652800D03*
%TD*%
%TO.P,R33,1*%
%TO.N,+3V3*%
X167054900Y-50170100D03*
%TO.P,R33,2*%
%TO.N,ENC_B*%
X177214900Y-50170100D03*
%TD*%
%TO.P,C31,1*%
%TO.N,ENC_A*%
X157777800Y-48987000D03*
%TO.P,C31,2*%
%TO.N,GND*%
X157777800Y-43987000D03*
%TD*%
%TO.P,R25,1*%
%TO.N,FB_5V*%
X122117600Y-101921900D03*
%TO.P,R25,2*%
%TO.N,GND*%
X122117600Y-112081900D03*
%TD*%
%TO.P,R35,1*%
%TO.N,+3V3*%
X63393400Y-55387400D03*
%TO.P,R35,2*%
%TO.N,CS_CAN*%
X53233400Y-55387400D03*
%TD*%
%TO.P,R32,1*%
%TO.N,+3V3*%
X152433500Y-50944400D03*
%TO.P,R32,2*%
%TO.N,ENC_A*%
X152433500Y-61104400D03*
%TD*%
%TO.P,C29,1*%
%TO.N,SW_5V*%
X122506300Y-76797700D03*
%TO.P,C29,2*%
%TO.N,BST_5V*%
X117506300Y-76797700D03*
%TD*%
%TO.P,C33,1*%
%TO.N,ENC_SW*%
X177003500Y-91555800D03*
%TO.P,C33,2*%
%TO.N,GND*%
X177003500Y-96555800D03*
%TD*%
%TO.P,C20,1*%
%TO.N,VBUS*%
X104440100Y-80115200D03*
%TO.P,C20,2*%
%TO.N,GND*%
X99440100Y-80115200D03*
%TD*%
D12*
%TO.P,TP4,1*%
%TO.N,CANL*%
X81103500Y-41009200D03*
%TD*%
D11*
%TO.P,C35,1*%
%TO.N,ENC_B*%
X87352900Y-110479600D03*
%TO.P,C35,2*%
%TO.N,GND*%
X92352900Y-110479600D03*
%TD*%
D12*
%TO.P,TP7,1*%
%TO.N,SCK*%
X120040200Y-116492800D03*
%TD*%
D10*
%TO.P,C19,1*%
%TO.N,+3V3*%
X96586600Y-65272000D03*
D11*
%TO.P,C19,2*%
%TO.N,GND*%
X96586600Y-63272000D03*
%TD*%
D38*
%TO.P,U1,0*%
%TO.N,GND*%
X117000000Y-31700000D03*
X118000000Y-31700000D03*
X119000000Y-31700000D03*
X117000000Y-31000000D03*
X118000000Y-31000000D03*
D39*
X118000000Y-31000000D03*
D38*
X119000000Y-31000000D03*
X117000000Y-30300000D03*
X118000000Y-30300000D03*
X119000000Y-30300000D03*
D40*
%TO.P,U1,1*%
%TO.N,PD_VDD*%
X116000000Y-33662500D03*
%TO.P,U1,2*%
%TO.N,N/C*%
X117000000Y-33662500D03*
%TO.P,U1,3*%
X118000000Y-33662500D03*
%TO.P,U1,4*%
X119000000Y-33662500D03*
%TO.P,U1,5*%
X120000000Y-33662500D03*
%TO.P,U1,6*%
%TO.N,CC2*%
X120000000Y-28337500D03*
%TO.P,U1,7*%
%TO.N,CC1*%
X119000000Y-28337500D03*
%TO.P,U1,8*%
%TO.N,PD_SENSE*%
X118000000Y-28337500D03*
%TO.P,U1,9*%
%TO.N,PD_CFG1*%
X117000000Y-28337500D03*
%TO.P,U1,10*%
%TO.N,N/C*%
X116000000Y-28337500D03*
%TD*%
D12*
%TO.P,TP3,1*%
%TO.N,CANH*%
X86323500Y-45958800D03*
%TD*%
D11*
%TO.P,R26,1*%
%TO.N,+3V3*%
X147900000Y-78000000D03*
%TO.P,R26,2*%
%TO.N,JOY_X*%
X158060000Y-78000000D03*
%TD*%
D10*
%TO.P,C5,1*%
%TO.N,+3V3*%
X76948900Y-67219700D03*
D11*
%TO.P,C5,2*%
%TO.N,GND*%
X76948900Y-65219700D03*
%TD*%
D41*
%TO.P,J5,1*%
%TO.N,+3V3*%
X106000000Y-85800000D03*
D42*
%TO.P,J5,2*%
%TO.N,GND*%
X106000000Y-88340000D03*
%TO.P,J5,3*%
%TO.N,MOSI*%
X106000000Y-90880000D03*
%TO.P,J5,4*%
%TO.N,SCK*%
X106000000Y-93420000D03*
%TO.P,J5,5*%
%TO.N,CS_TFT*%
X106000000Y-95960000D03*
%TO.P,J5,6*%
%TO.N,TFT_DC*%
X106000000Y-98500000D03*
%TO.P,J5,7*%
%TO.N,TFT_RST*%
X106000000Y-101040000D03*
%TO.P,J5,8*%
%TO.N,TFT_LED*%
X106000000Y-103580000D03*
%TD*%
D11*
%TO.P,R8,1*%
%TO.N,+3V3*%
X100191700Y-123240000D03*
%TO.P,R8,2*%
%TO.N,TFT_LED*%
X100191700Y-113080000D03*
%TD*%
D41*
%TO.P,J6,1*%
%TO.N,TXD0*%
X107000000Y-31000000D03*
D42*
%TO.P,J6,2*%
%TO.N,RXD0*%
X107000000Y-33540000D03*
%TO.P,J6,3*%
%TO.N,GND*%
X107000000Y-36080000D03*
%TD*%
D15*
%TO.P,C18,1*%
%TO.N,VBUS_STICK*%
X57283800Y-114397600D03*
D11*
%TO.P,C18,2*%
%TO.N,GND*%
X55283800Y-114397600D03*
%TD*%
%TO.P,C14,1*%
%TO.N,+3V3*%
X77075800Y-108935800D03*
%TO.P,C14,2*%
%TO.N,GND*%
X82075800Y-108935800D03*
%TD*%
D43*
%TO.P,U6,1*%
%TO.N,GND*%
X93260000Y-85250000D03*
%TO.P,U6,2*%
%TO.N,+3V3*%
X91990000Y-85250000D03*
%TO.P,U6,3*%
%TO.N,MCU_EN*%
X90720000Y-85250000D03*
%TO.P,U6,4*%
%TO.N,JOY_Y*%
X89450000Y-85250000D03*
%TO.P,U6,5*%
%TO.N,JOY_SW*%
X88180000Y-85250000D03*
%TO.P,U6,6*%
%TO.N,BTN_CONFIRM*%
X86910000Y-85250000D03*
%TO.P,U6,7*%
%TO.N,BTN_CLEAR*%
X85640000Y-85250000D03*
%TO.P,U6,8*%
%TO.N,CS_FLASH*%
X84370000Y-85250000D03*
%TO.P,U6,9*%
%TO.N,USB_SEL*%
X83100000Y-85250000D03*
%TO.P,U6,10*%
%TO.N,USB_HOST_EN*%
X81830000Y-85250000D03*
%TO.P,U6,11*%
%TO.N,N/C*%
X80560000Y-85250000D03*
%TO.P,U6,12*%
%TO.N,BTN_RETURN*%
X79290000Y-85250000D03*
%TO.P,U6,13*%
%TO.N,USB_DM*%
X78020000Y-85250000D03*
%TO.P,U6,14*%
%TO.N,USB_DP*%
X76750000Y-85250000D03*
D44*
%TO.P,U6,15*%
%TO.N,N/C*%
X75500000Y-87015000D03*
%TO.P,U6,16*%
X75500000Y-88285000D03*
%TO.P,U6,17*%
%TO.N,INT_CAN*%
X75500000Y-89555000D03*
%TO.P,U6,18*%
%TO.N,CS_CAN*%
X75500000Y-90825000D03*
%TO.P,U6,19*%
%TO.N,MOSI_MCU*%
X75500000Y-92095000D03*
%TO.P,U6,20*%
%TO.N,SCK_MCU*%
X75500000Y-93365000D03*
%TO.P,U6,21*%
%TO.N,MISO*%
X75500000Y-94635000D03*
%TO.P,U6,22*%
%TO.N,CS_TFT*%
X75500000Y-95905000D03*
%TO.P,U6,23*%
%TO.N,TFT_DC*%
X75500000Y-97175000D03*
%TO.P,U6,24*%
%TO.N,TFT_RST*%
X75500000Y-98445000D03*
%TO.P,U6,25*%
%TO.N,N/C*%
X75500000Y-99715000D03*
%TO.P,U6,26*%
X75500000Y-100985000D03*
D43*
%TO.P,U6,27*%
%TO.N,BOOT*%
X76750000Y-102750000D03*
%TO.P,U6,28*%
%TO.N,N/C*%
X78020000Y-102750000D03*
%TO.P,U6,29*%
X79290000Y-102750000D03*
%TO.P,U6,30*%
X80560000Y-102750000D03*
%TO.P,U6,31*%
%TO.N,ENC_B*%
X81830000Y-102750000D03*
%TO.P,U6,32*%
%TO.N,ENC_SW*%
X83100000Y-102750000D03*
%TO.P,U6,33*%
%TO.N,N/C*%
X84370000Y-102750000D03*
%TO.P,U6,34*%
X85640000Y-102750000D03*
%TO.P,U6,35*%
X86910000Y-102750000D03*
%TO.P,U6,36*%
%TO.N,RXD0*%
X88180000Y-102750000D03*
%TO.P,U6,37*%
%TO.N,TXD0*%
X89450000Y-102750000D03*
%TO.P,U6,38*%
%TO.N,JOY_X*%
X90720000Y-102750000D03*
%TO.P,U6,39*%
%TO.N,ENC_A*%
X91990000Y-102750000D03*
%TO.P,U6,40*%
%TO.N,GND*%
X93260000Y-102750000D03*
D45*
%TO.P,U6,41*%
X86240000Y-91100000D03*
X84840000Y-91100000D03*
X86940000Y-91800000D03*
X85540000Y-91800000D03*
X84140000Y-91800000D03*
X86240000Y-92500000D03*
D46*
X85540000Y-92500000D03*
D45*
X84840000Y-92500000D03*
X86940000Y-93200000D03*
X85540000Y-93200000D03*
X84140000Y-93200000D03*
X86240000Y-93900000D03*
X84840000Y-93900000D03*
%TD*%
D11*
%TO.P,C12,1*%
%TO.N,+3V3*%
X70897600Y-69476600D03*
%TO.P,C12,2*%
%TO.N,GND*%
X70897600Y-64476600D03*
%TD*%
%TO.P,R38,1*%
%TO.N,ENC_A_RAW*%
X157028300Y-57996200D03*
%TO.P,R38,2*%
%TO.N,ENC_A*%
X157028300Y-52916200D03*
%TD*%
%TO.P,C23,1*%
%TO.N,V5_STICK*%
X61479400Y-120112300D03*
%TO.P,C23,2*%
%TO.N,GND*%
X61479400Y-125112300D03*
%TD*%
%TO.P,C16,1*%
%TO.N,+3V3*%
X88422800Y-81063700D03*
%TO.P,C16,2*%
%TO.N,GND*%
X83422800Y-81063700D03*
%TD*%
%TO.P,R30,1*%
%TO.N,SCK_MCU*%
X71531500Y-92863700D03*
%TO.P,R30,2*%
%TO.N,SCK*%
X71531500Y-103023700D03*
%TD*%
%TO.P,C11,1*%
%TO.N,+3V3*%
X58035500Y-64423600D03*
%TO.P,C11,2*%
%TO.N,GND*%
X63035500Y-64423600D03*
%TD*%
%TO.P,C22,1*%
%TO.N,PD_VDD*%
X123984200Y-33160200D03*
%TO.P,C22,2*%
%TO.N,GND*%
X128984200Y-33160200D03*
%TD*%
D13*
%TO.P,C4,1*%
%TO.N,+3V3*%
X126251700Y-95524900D03*
D11*
%TO.P,C4,2*%
%TO.N,GND*%
X128751700Y-95524900D03*
%TD*%
%TO.P,R24,1*%
%TO.N,V5_STICK*%
X121120300Y-97504400D03*
%TO.P,R24,2*%
%TO.N,FB_5V*%
X110960300Y-97504400D03*
%TD*%
%TO.P,R11,1*%
%TO.N,+3V3*%
X147900000Y-97000000D03*
%TO.P,R11,2*%
%TO.N,BTN_CLEAR*%
X158060000Y-97000000D03*
%TD*%
D47*
%TO.P,Y1,1*%
%TO.N,XTAL1*%
X60193600Y-83898700D03*
%TO.P,Y1,2*%
%TO.N,XTAL2*%
X65073600Y-83898700D03*
%TD*%
D48*
%TO.N,GND*%
X94179174Y-51343284D03*
X70128800Y-114201200D03*
X82033275Y-93496256D03*
X109727600Y-109339900D03*
X109146100Y-81302700D03*
X64307900Y-79027900D03*
X170726700Y-77273300D03*
X65969000Y-72609000D03*
X68010000Y-76870100D03*
X106525856Y-119974223D03*
X93260000Y-84043600D03*
X98798450Y-117903670D03*
X167161300Y-75094900D03*
X77958100Y-112488100D03*
X103331637Y-39074566D03*
X108216900Y-18564000D03*
X82850620Y-89450588D03*
X79558401Y-91021382D03*
X98627700Y-41881700D03*
X94163500Y-102797400D03*
X89129138Y-91132912D03*
X77951700Y-115355100D03*
X114721600Y-80905000D03*
X172900200Y-80827400D03*
X109331637Y-39074566D03*
X86887000Y-41019100D03*
X84421800Y-114369600D03*
X84036953Y-54060884D03*
%TO.N,MISO*%
X74161400Y-94745500D03*
X65148000Y-74490100D03*
D49*
%TO.N,V5_STICK*%
X117226200Y-111999900D03*
D48*
%TO.N,BOOT*%
X78011500Y-104991800D03*
%TO.N,BTN_CLEAR*%
X89921400Y-80423700D03*
X154072600Y-83441700D03*
X93576600Y-73266000D03*
%TO.N,+3V3*%
X74837800Y-111685400D03*
X108402100Y-23483400D03*
%TO.N,ENC_SW*%
X113267800Y-89544400D03*
%TO.N,FB_3V3*%
X112754200Y-84274700D03*
X110322200Y-69377000D03*
%TO.N,CS_FLASH*%
X88096800Y-87004300D03*
X90246100Y-104056000D03*
X105570000Y-111891900D03*
%TO.N,MOSI*%
X84322700Y-88308600D03*
%TO.N,SCK*%
X85595200Y-109236700D03*
X59846200Y-70511300D03*
%TO.N,PD_CFG1*%
X118079700Y-27049400D03*
%TO.N,USB_SEL*%
X69052400Y-101134700D03*
X75449200Y-84314500D03*
%TO.N,USBC_DP*%
X107242300Y-28360000D03*
X74261700Y-115085200D03*
%TO.N,USBC_DM*%
X104283800Y-113855100D03*
%TO.N,USBA_DP*%
X78997700Y-116053300D03*
X78805500Y-114888200D03*
%TO.N,USBA_DM*%
X80150200Y-116009300D03*
%TO.N,USB_DM*%
X77897700Y-96913100D03*
X78113800Y-111181500D03*
%TO.N,USB_DP*%
X77866800Y-96161300D03*
X76252300Y-110918700D03*
%TO.N,MCU_EN*%
X90564400Y-83466100D03*
X87873300Y-82655600D03*
%TO.N,USB_HOST_EN*%
X80970600Y-87372700D03*
%TO.N,ENC_A*%
X107212500Y-61278800D03*
%TO.N,ENC_B*%
X109428100Y-86202300D03*
%TO.N,JOY_X*%
X112886400Y-85032700D03*
X109485400Y-100398900D03*
%TO.N,JOY_XB*%
X172702700Y-66591100D03*
%TO.N,FB_5V*%
X123236900Y-88930400D03*
%TO.N,MOSI_MCU*%
X77151800Y-90222300D03*
%TO.N,JOY_YB*%
X169743600Y-63637200D03*
%TO.N,CS_TFT*%
X78983900Y-97815600D03*
%TO.N,TXD0*%
X88885000Y-103973200D03*
%TO.N,RXD0*%
X89079800Y-100941400D03*
%TD*%
%TO.N,VBUS*%
D50*
X119106500Y-71876200D02*
X111606900Y-71876200D01*
X119106500Y-81205100D02*
X118456600Y-81855000D01*
X111091000Y-80349600D02*
X109309900Y-80349600D01*
X106846100Y-26486100D02*
X109562300Y-26486100D01*
X112324200Y-81855000D02*
X111570200Y-81101000D01*
X108454700Y-81410700D02*
X109849000Y-82805000D01*
X109849000Y-82805000D02*
X110357500Y-82805000D01*
X109562300Y-26486100D02*
X110066100Y-25982300D01*
X105529700Y-81204800D02*
X108454700Y-81204800D01*
X104440100Y-80115200D02*
X105529700Y-81204800D01*
X112632500Y-81855000D02*
X112995100Y-81855000D01*
X104440100Y-79043000D02*
X111606900Y-71876200D01*
X118456600Y-81855000D02*
X118132500Y-81855000D01*
X104440100Y-80115200D02*
X104440100Y-79043000D01*
X111570200Y-81101000D02*
X111570200Y-80828800D01*
X119640700Y-71342000D02*
X119106500Y-71876200D01*
X112995100Y-81855000D02*
X113945100Y-82805000D01*
X111570200Y-80828800D02*
X111091000Y-80349600D01*
X120842500Y-71342000D02*
X119640700Y-71342000D01*
X119106500Y-71876200D02*
X119106500Y-81205100D01*
X109309900Y-80349600D02*
X108454700Y-81204800D01*
X111317800Y-25982300D02*
X110066100Y-25982300D01*
X113945100Y-82805000D02*
X115857500Y-82805000D01*
X108454700Y-81204800D02*
X108454700Y-81410700D01*
X112632500Y-81855000D02*
X112324200Y-81855000D01*
%TO.N,GND*%
X170726700Y-77273300D02*
X171545600Y-76454400D01*
X109959800Y-81302700D02*
X110357500Y-80905000D01*
X84281600Y-114229400D02*
X84421800Y-114369600D01*
D51*
X98798450Y-117903670D02*
X106525856Y-119974223D01*
D50*
X77372700Y-112555100D02*
X77439700Y-112488100D01*
X93260000Y-84043600D02*
X93260000Y-85250000D01*
D51*
X82033275Y-93496256D02*
X79558401Y-91021382D01*
D50*
X86240000Y-92500000D02*
X85540000Y-92500000D01*
D51*
X94179174Y-51343284D02*
X94179174Y-54060884D01*
D50*
X100018500Y-41881700D02*
X98627700Y-41881700D01*
X85870100Y-41019100D02*
X85684600Y-41204600D01*
X114721600Y-80905000D02*
X115857500Y-80905000D01*
D51*
X103331637Y-39074566D02*
X109331637Y-39074566D01*
D50*
X166136200Y-76136200D02*
X167021300Y-75251100D01*
X77372700Y-112955100D02*
X76372700Y-113955100D01*
X167021300Y-75234900D02*
X167021300Y-75251100D01*
X77439700Y-112488100D02*
X77958100Y-112488100D01*
X77372700Y-115355100D02*
X77951700Y-115355100D01*
X172900200Y-80827400D02*
X171863800Y-81863800D01*
X93260000Y-102750000D02*
X93260000Y-101893900D01*
X64307900Y-79027900D02*
X63555000Y-78275000D01*
X110507500Y-108560000D02*
X109727600Y-109339900D01*
X100371500Y-41528700D02*
X100018500Y-41881700D01*
X86887000Y-41019100D02*
X85870100Y-41019100D01*
X70128800Y-114201200D02*
X71263500Y-114201200D01*
X108216900Y-18564000D02*
X108216900Y-17426500D01*
D51*
X89129138Y-91132912D02*
X82850620Y-89450588D01*
D50*
X167161300Y-75094900D02*
X167021300Y-75234900D01*
X65969000Y-72609000D02*
X66740000Y-73380000D01*
D51*
X94179174Y-54060884D02*
X84036953Y-54060884D01*
D50*
X83261900Y-114229400D02*
X84281600Y-114229400D01*
X77372700Y-112555100D02*
X77372700Y-112955100D01*
X93260000Y-101893900D02*
X94163500Y-102797400D01*
X68010000Y-76870100D02*
X68010000Y-78330000D01*
X109146100Y-81302700D02*
X109959800Y-81302700D01*
%TO.N,MISO*%
X74864500Y-107884100D02*
X79480800Y-107884100D01*
X104991700Y-113303300D02*
X105152100Y-113463700D01*
X108257900Y-108103300D02*
X108257900Y-110357900D01*
X99028600Y-114166600D02*
X101729800Y-114166600D01*
X57205000Y-69299000D02*
X62396100Y-74490100D01*
X83049300Y-111452600D02*
X83370400Y-111452600D01*
X106403800Y-113463700D02*
X105152100Y-113463700D01*
X70467900Y-103487500D02*
X74864500Y-107884100D01*
X110507500Y-106020000D02*
X110341200Y-106020000D01*
X74387800Y-94745500D02*
X74498300Y-94635000D01*
X87597800Y-115672900D02*
X89572600Y-113698100D01*
X108257900Y-110357900D02*
X106403800Y-112212000D01*
X102593100Y-113303300D02*
X104991700Y-113303300D01*
X89572600Y-113698100D02*
X98560100Y-113698100D01*
X74161400Y-94745500D02*
X74387800Y-94745500D01*
X62396100Y-74490100D02*
X65148000Y-74490100D01*
X57205000Y-68975000D02*
X57205000Y-69299000D01*
X101729800Y-114166600D02*
X102593100Y-113303300D01*
X85958900Y-114041100D02*
X85958900Y-114929300D01*
X85958900Y-114929300D02*
X86702500Y-115672900D01*
X110341200Y-106020000D02*
X108257900Y-108103300D01*
X106403800Y-113463700D02*
X106403800Y-112212000D01*
X75500000Y-94635000D02*
X74498300Y-94635000D01*
X98560100Y-113698100D02*
X99028600Y-114166600D01*
X70467900Y-98439000D02*
X70467900Y-103487500D01*
X83370400Y-111452600D02*
X85958900Y-114041100D01*
X79480800Y-107884100D02*
X83049300Y-111452600D01*
X86702500Y-115672900D02*
X87597800Y-115672900D01*
X74161400Y-94745500D02*
X70467900Y-98439000D01*
%TO.N,V5_STICK*%
D52*
X68988500Y-115151200D02*
X67043300Y-115151200D01*
X79458800Y-121263200D02*
X108566600Y-121263200D01*
X127551400Y-85237600D02*
X134051400Y-85237600D01*
X61479400Y-120112300D02*
X67091400Y-120112300D01*
X108566600Y-121263200D02*
X117226200Y-112603600D01*
X78804500Y-121917500D02*
X79458800Y-121263200D01*
X68896600Y-121917500D02*
X78804500Y-121917500D01*
X117226200Y-112603600D02*
X117226200Y-111999900D01*
X67043300Y-115151200D02*
X64616800Y-112724700D01*
X67091400Y-120112300D02*
X68896600Y-121917500D01*
%TO.N,BOOT*%
D50*
X76771400Y-103751700D02*
X76750000Y-103751700D01*
X76750000Y-102750000D02*
X76750000Y-103751700D01*
X78011500Y-104991800D02*
X76771400Y-103751700D01*
X140500000Y-22000000D02*
X134000000Y-22000000D01*
%TO.N,BTN_CLEAR*%
X117225400Y-70275800D02*
X141689800Y-70275800D01*
X154072600Y-82658600D02*
X154072600Y-83441700D01*
X87060800Y-84248300D02*
X89921400Y-81387700D01*
X85640000Y-85250000D02*
X85640000Y-84248300D01*
X85640000Y-84248300D02*
X87060800Y-84248300D01*
X162000000Y-97000000D02*
X165750000Y-100750000D01*
X116699800Y-70801400D02*
X117225400Y-70275800D01*
X158060000Y-97000000D02*
X162000000Y-97000000D01*
X109242100Y-70801400D02*
X116699800Y-70801400D01*
X141689800Y-70275800D02*
X154072600Y-82658600D01*
X106777500Y-73266000D02*
X109242100Y-70801400D01*
X172250000Y-100750000D02*
X165750000Y-100750000D01*
X89921400Y-81387700D02*
X89921400Y-80423700D01*
X93576600Y-73266000D02*
X106777500Y-73266000D01*
%TO.N,+3V3*%
X117682500Y-104750000D02*
X117682500Y-106020000D01*
X64287400Y-77391300D02*
X63479300Y-76583200D01*
X76948900Y-67219700D02*
X87201100Y-67219700D01*
X53444900Y-79947100D02*
X52825400Y-79327600D01*
X57205000Y-78680000D02*
X55937900Y-79947100D01*
X58035500Y-64423600D02*
X54205500Y-64423600D01*
X123206400Y-102391500D02*
X120847900Y-104750000D01*
X69280000Y-78606100D02*
X68308900Y-79577200D01*
X68308900Y-79577200D02*
X66342600Y-79577200D01*
X95408700Y-66449900D02*
X96586600Y-65272000D01*
X110507500Y-107290000D02*
X111636100Y-107290000D01*
X123206400Y-101518100D02*
X123206400Y-102391500D01*
X152433500Y-50944400D02*
X166280600Y-50944400D01*
X120847900Y-104750000D02*
X117682500Y-104750000D01*
X87970900Y-66449900D02*
X95408700Y-66449900D01*
X113370500Y-92068800D02*
X114239000Y-92068800D01*
X144912500Y-75012500D02*
X147900000Y-78000000D01*
X59745000Y-78275000D02*
X58475000Y-78275000D01*
X155247200Y-89652800D02*
X161379900Y-89652800D01*
X80644100Y-114229400D02*
X80009400Y-113594700D01*
X166280600Y-50944400D02*
X167054900Y-50170100D01*
X53395000Y-68975000D02*
X53646200Y-68975000D01*
X91990000Y-82749100D02*
X91990000Y-84248300D01*
X106000000Y-85800000D02*
X107101700Y-85800000D01*
X58475000Y-78275000D02*
X57205000Y-78275000D01*
X66342600Y-79577200D02*
X64287400Y-77522000D01*
X147900000Y-97000000D02*
X155247200Y-89652800D01*
X85524900Y-114177700D02*
X85524900Y-114992600D01*
X74837800Y-112020200D02*
X75372700Y-112555100D01*
X69280000Y-78330000D02*
X69280000Y-78606100D01*
X100296500Y-75412900D02*
X100294100Y-75415300D01*
X59745000Y-77906600D02*
X59745000Y-78275000D01*
X80009400Y-112696300D02*
X84043500Y-112696300D01*
X127938700Y-76068800D02*
X128995000Y-75012500D01*
X99042400Y-75415300D02*
X100294100Y-75415300D01*
X92875300Y-81863800D02*
X91990000Y-82749100D01*
X108402100Y-19886700D02*
X108402100Y-23483400D01*
X111636100Y-104423800D02*
X111363500Y-104151200D01*
X114239000Y-92068800D02*
X117695100Y-95524900D01*
X111363500Y-104151200D02*
X107171800Y-104151200D01*
X114239000Y-92068800D02*
X114239000Y-92550700D01*
X80009400Y-111869400D02*
X77075800Y-108935800D01*
X80009400Y-113594700D02*
X80009400Y-112696300D01*
X103823000Y-75412900D02*
X100296500Y-75412900D01*
X52825400Y-79327600D02*
X52825400Y-69544600D01*
X107171800Y-104151200D02*
X102619100Y-108703900D01*
X91990000Y-85250000D02*
X91990000Y-84248300D01*
X86556900Y-116024600D02*
X90213900Y-116024600D01*
X115693000Y-111346900D02*
X115693000Y-112498700D01*
X111636100Y-107290000D02*
X115693000Y-111346900D01*
X57205000Y-78275000D02*
X57205000Y-78680000D01*
X85524900Y-114992600D02*
X86556900Y-116024600D01*
X74837800Y-111685400D02*
X74837800Y-112020200D01*
X63479300Y-76583200D02*
X61068400Y-76583200D01*
X84043500Y-112696300D02*
X85524900Y-114177700D01*
X61068400Y-76583200D02*
X59745000Y-77906600D01*
X108216900Y-19701500D02*
X108402100Y-19886700D01*
X53646200Y-68975000D02*
X54665000Y-68975000D01*
X80986900Y-114229400D02*
X80644100Y-114229400D01*
X117695100Y-95524900D02*
X126251700Y-95524900D01*
X64287400Y-77522000D02*
X64287400Y-77391300D01*
X54205500Y-64423600D02*
X53646200Y-64982900D01*
X80009400Y-112696300D02*
X80009400Y-111869400D01*
X55937900Y-79947100D02*
X53444900Y-79947100D01*
X114239000Y-92550700D02*
X123206400Y-101518100D01*
X128995000Y-75012500D02*
X144912500Y-75012500D01*
X52825400Y-69544600D02*
X53395000Y-68975000D01*
X111636100Y-107290000D02*
X111636100Y-104423800D01*
X90213900Y-116024600D02*
X91447100Y-114791400D01*
X107101700Y-85800000D02*
X113370500Y-92068800D01*
X53646200Y-68975000D02*
X53646200Y-64982900D01*
X102619100Y-108703900D02*
X96557000Y-108703900D01*
X87201100Y-67219700D02*
X87970900Y-66449900D01*
%TO.N,JOY_SW*%
X116389900Y-70438800D02*
X119044600Y-67784100D01*
X153844100Y-67784100D02*
X158060000Y-72000000D01*
X119044600Y-67784100D02*
X153844100Y-67784100D01*
X88180000Y-83626400D02*
X91686900Y-80119500D01*
X88180000Y-85250000D02*
X88180000Y-83626400D01*
X91686900Y-80119500D02*
X91686900Y-74316700D01*
X105852800Y-72101800D02*
X107515800Y-70438800D01*
X107515800Y-70438800D02*
X116389900Y-70438800D01*
X91686900Y-74316700D02*
X93901800Y-72101800D01*
X166454400Y-81545600D02*
X167127400Y-80872600D01*
X167127400Y-80872600D02*
X158254700Y-72000000D01*
X158254700Y-72000000D02*
X158060000Y-72000000D01*
X93901800Y-72101800D02*
X105852800Y-72101800D01*
%TO.N,ENC_SW*%
X88415500Y-108726600D02*
X83440600Y-103751700D01*
X168536900Y-86825700D02*
X176502300Y-78860300D01*
X151219900Y-89652800D02*
X154047000Y-86825700D01*
X88415500Y-113311900D02*
X88415500Y-108726600D01*
X121378500Y-89544400D02*
X122424900Y-90590800D01*
X83100000Y-102750000D02*
X83100000Y-103751700D01*
X176502300Y-78860300D02*
X176502300Y-76564200D01*
X122424900Y-90590800D02*
X150281900Y-90590800D01*
X150281900Y-90590800D02*
X151219900Y-89652800D01*
X83440600Y-103751700D02*
X83100000Y-103751700D01*
X87152500Y-114574900D02*
X88415500Y-113311900D01*
X154047000Y-86825700D02*
X168536900Y-86825700D01*
X113267800Y-89544400D02*
X121378500Y-89544400D01*
%TO.N,SW_3V3*%
D52*
X111470400Y-82459300D02*
X111470400Y-84538200D01*
X110866100Y-81855000D02*
X111470400Y-82459300D01*
X114001000Y-87068800D02*
X114239000Y-87068800D01*
X110357500Y-81855000D02*
X110866100Y-81855000D01*
X111470400Y-84538200D02*
X114001000Y-87068800D01*
%TO.N,FB_3V3*%
D50*
X112632500Y-84153000D02*
X112632500Y-82805000D01*
X103823000Y-65252900D02*
X107947100Y-69377000D01*
X112754200Y-84274700D02*
X112632500Y-84153000D01*
X107947100Y-69377000D02*
X110322200Y-69377000D01*
%TO.N,BST_3V3*%
X108382000Y-76975800D02*
X112311200Y-80905000D01*
X112311200Y-80905000D02*
X112632500Y-80905000D01*
%TO.N,OBD_12V*%
X97589700Y-42746900D02*
X112088600Y-42746900D01*
X96000000Y-41157200D02*
X96371500Y-41528700D01*
X96000000Y-31300000D02*
X96000000Y-41157200D01*
X112088600Y-42746900D02*
X112634400Y-42201100D01*
X96371500Y-41528700D02*
X97589700Y-42746900D01*
%TO.N,FUSED_12V*%
X112634400Y-34547700D02*
X112634400Y-38201100D01*
X106846100Y-23686100D02*
X105352100Y-25180100D01*
X105352100Y-27265400D02*
X112634400Y-34547700D01*
X105352100Y-25180100D02*
X105352100Y-27265400D01*
%TO.N,BTN_CONFIRM*%
X94024600Y-86251700D02*
X95951500Y-84324800D01*
X113471200Y-88992700D02*
X121324100Y-88992700D01*
X95951500Y-84324800D02*
X108803300Y-84324800D01*
X86910000Y-85250000D02*
X86910000Y-86251700D01*
X153666200Y-85000000D02*
X158060000Y-85000000D01*
X121324100Y-88992700D02*
X122570500Y-90239100D01*
X122570500Y-90239100D02*
X148427100Y-90239100D01*
X86910000Y-86251700D02*
X94024600Y-86251700D01*
X108803300Y-84324800D02*
X113471200Y-88992700D01*
X148427100Y-90239100D02*
X153666200Y-85000000D01*
X172250000Y-88750000D02*
X165750000Y-88750000D01*
%TO.N,CAN_TX*%
X54363700Y-79588800D02*
X53395000Y-78620100D01*
X55293200Y-77311500D02*
X55293200Y-79253100D01*
X55293200Y-79253100D02*
X54957500Y-79588800D01*
X64641500Y-76231500D02*
X56373200Y-76231500D01*
X54957500Y-79588800D02*
X54363700Y-79588800D01*
X66740000Y-78330000D02*
X64641500Y-76231500D01*
X56373200Y-76231500D02*
X55293200Y-77311500D01*
X53395000Y-78620100D02*
X53395000Y-78275000D01*
%TO.N,CAN_RX*%
X67723800Y-76195000D02*
X68699800Y-76195000D01*
X54665000Y-78275000D02*
X54665000Y-77442400D01*
X70550000Y-78045200D02*
X70550000Y-78330000D01*
X68699800Y-76195000D02*
X70550000Y-78045200D01*
X67408600Y-75879800D02*
X67723800Y-76195000D01*
X54665000Y-77442400D02*
X56227600Y-75879800D01*
X56227600Y-75879800D02*
X67408600Y-75879800D01*
%TO.N,CANL*%
X85950000Y-39950000D02*
X86350000Y-39550000D01*
X69280000Y-73379999D02*
X69350000Y-62750000D01*
X87559597Y-40254614D02*
X87550000Y-31750000D01*
X80150000Y-41950000D02*
X81103547Y-41009217D01*
X82550000Y-40150000D02*
X83950000Y-40150000D01*
X84150000Y-39950000D02*
X85950000Y-39950000D01*
X81750000Y-40550000D02*
X81950000Y-40350000D01*
X91492828Y-40901079D02*
X88150000Y-40950000D01*
X80150000Y-51950000D02*
X80150000Y-41950000D01*
X88150000Y-40950000D02*
X87559597Y-40254614D01*
X81550000Y-40550000D02*
X81750000Y-40550000D01*
X82350000Y-40350000D02*
X82550000Y-40150000D01*
X81950000Y-40350000D02*
X82350000Y-40350000D01*
X86350000Y-39550000D02*
X90150000Y-39550000D01*
X90150000Y-39550000D02*
X91492828Y-40901079D01*
X81103547Y-41009217D02*
X81550000Y-40550000D01*
X69350000Y-62750000D02*
X80150000Y-51950000D01*
X87550000Y-31750000D02*
X88000000Y-31300000D01*
X83950000Y-40150000D02*
X84150000Y-39950000D01*
%TO.N,CANH*%
X92750000Y-42150000D02*
X92750000Y-35750000D01*
X91550000Y-46150000D02*
X87559597Y-42154614D01*
X87559597Y-42154614D02*
X92750000Y-42150000D01*
X68010000Y-73379999D02*
X67950000Y-74150000D01*
X87950000Y-23549999D02*
X88000000Y-22700000D01*
X81550000Y-50750000D02*
X86323529Y-45958840D01*
X67950000Y-74150000D02*
X68550000Y-74750000D01*
X68550000Y-74750000D02*
X71350000Y-74750000D01*
X91492828Y-51061079D02*
X91550000Y-46150000D01*
X90550000Y-26150000D02*
X87950000Y-23549999D01*
X72150000Y-70750000D02*
X72150000Y-66950000D01*
X71350000Y-74750000D02*
X71350000Y-71550000D01*
X86323529Y-45958840D02*
X91492828Y-51061079D01*
X92750000Y-35750000D02*
X90550000Y-33549999D01*
X72150000Y-66950000D02*
X81550000Y-57550000D01*
X71350000Y-71550000D02*
X72150000Y-70750000D01*
X81550000Y-57550000D02*
X81550000Y-50750000D01*
X90550000Y-33549999D02*
X90550000Y-26150000D01*
%TO.N,CS_FLASH*%
X90246100Y-104056100D02*
X90246100Y-104056000D01*
X89038200Y-107429200D02*
X88302600Y-106693600D01*
X84370000Y-85250000D02*
X84370000Y-86251700D01*
X110507500Y-104750000D02*
X110302100Y-104750000D01*
X88302600Y-106693600D02*
X88302600Y-105713200D01*
X95264200Y-111891900D02*
X90801500Y-107429200D01*
X110302100Y-104750000D02*
X106717000Y-108335100D01*
X88096800Y-87004300D02*
X85122600Y-87004300D01*
X88302600Y-105713200D02*
X89959700Y-104056100D01*
X89959700Y-104056100D02*
X90246100Y-104056100D01*
X90801500Y-107429200D02*
X89038200Y-107429200D01*
X106717000Y-108335100D02*
X106717000Y-108703900D01*
X105570000Y-111891900D02*
X95264200Y-111891900D01*
X85122600Y-87004300D02*
X84370000Y-86251700D01*
%TO.N,MOSI*%
X66489600Y-74698700D02*
X66051400Y-74260500D01*
X78359200Y-71831800D02*
X75051100Y-75139900D01*
X118770600Y-106916700D02*
X118536000Y-106682100D01*
X94567600Y-86703300D02*
X101823300Y-86703300D01*
X110516100Y-99874200D02*
X109527300Y-98885400D01*
X117682500Y-108560000D02*
X118770600Y-108560000D01*
X75051100Y-75139900D02*
X68335500Y-75139900D01*
X118770600Y-108560000D02*
X127182500Y-108560000D01*
X101823300Y-86703300D02*
X106000000Y-90880000D01*
X65522100Y-73586700D02*
X65233000Y-73586700D01*
X61613900Y-67903700D02*
X61350300Y-67640100D01*
X109527300Y-98885400D02*
X109527300Y-94407300D01*
X84322700Y-88308600D02*
X92962300Y-88308600D01*
X58475000Y-68616700D02*
X58475000Y-68975000D01*
X66051400Y-74116000D02*
X65522100Y-73586700D01*
X68335500Y-75139900D02*
X67894300Y-74698700D01*
X59451600Y-67640100D02*
X58475000Y-68616700D01*
X61350300Y-67640100D02*
X59451600Y-67640100D01*
X118770600Y-108560000D02*
X118770600Y-106916700D01*
X67894300Y-74698700D02*
X66489600Y-74698700D01*
X110516100Y-100278200D02*
X110516100Y-99874200D01*
X92962300Y-88308600D02*
X94567600Y-86703300D01*
X109527300Y-94407300D02*
X106000000Y-90880000D01*
X118536000Y-106682100D02*
X116920000Y-106682100D01*
X61613900Y-69967600D02*
X61613900Y-67903700D01*
X66051400Y-74260500D02*
X66051400Y-74116000D01*
X116920000Y-106682100D02*
X110516100Y-100278200D01*
X65233000Y-73586700D02*
X61613900Y-69967600D01*
%TO.N,SCK*%
X110037100Y-100000000D02*
X107125200Y-97088100D01*
X117471600Y-107290000D02*
X117682500Y-107290000D01*
X116610800Y-110407200D02*
X116610800Y-108150800D01*
X117004400Y-107290000D02*
X110037100Y-100322700D01*
X59745000Y-68975000D02*
X59745000Y-70410100D01*
X117682500Y-107290000D02*
X117004400Y-107290000D01*
X59745000Y-70410100D02*
X59846200Y-70511300D01*
X110037100Y-100322700D02*
X110037100Y-100000000D01*
X120040200Y-116492800D02*
X120040200Y-113836600D01*
X120040200Y-113836600D02*
X116610800Y-110407200D01*
X85595200Y-109236700D02*
X84788900Y-109236700D01*
X116610800Y-108150800D02*
X117471600Y-107290000D01*
X74237500Y-105729700D02*
X71531500Y-103023700D01*
X84788900Y-109236700D02*
X81281900Y-105729700D01*
X81281900Y-105729700D02*
X74237500Y-105729700D01*
X107125200Y-94545200D02*
X106000000Y-93420000D01*
X107125200Y-97088100D02*
X107125200Y-94545200D01*
%TO.N,SW_5V*%
D52*
X119121400Y-85237600D02*
X116970400Y-83086600D01*
X116970400Y-83086600D02*
X116970400Y-82459300D01*
X122551400Y-85237600D02*
X119121400Y-85237600D01*
X116970400Y-82459300D02*
X116366100Y-81855000D01*
X116366100Y-81855000D02*
X115857500Y-81855000D01*
%TO.N,ENC_A_RAW*%
D50*
X159744500Y-57996200D02*
X160248300Y-58500000D01*
X157028300Y-57996200D02*
X159744500Y-57996200D01*
X161500000Y-58500000D02*
X160248300Y-58500000D01*
%TO.N,BTN_RETURN*%
X84094300Y-87756900D02*
X93016700Y-87756900D01*
X116364900Y-91294200D02*
X140354200Y-91294200D01*
X115535800Y-90465100D02*
X116364900Y-91294200D01*
X96075300Y-84698300D02*
X107144000Y-84698300D01*
X162000000Y-109000000D02*
X165750000Y-112750000D01*
X172250000Y-112750000D02*
X165750000Y-112750000D01*
X107144000Y-84698300D02*
X112910800Y-90465100D01*
X93016700Y-87756900D02*
X96075300Y-84698300D01*
X79290000Y-86499000D02*
X80737600Y-87946600D01*
X158060000Y-109000000D02*
X162000000Y-109000000D01*
X140354200Y-91294200D02*
X158060000Y-109000000D01*
X83904600Y-87946600D02*
X84094300Y-87756900D01*
X80737600Y-87946600D02*
X83904600Y-87946600D01*
X112910800Y-90465100D02*
X115535800Y-90465100D01*
X79290000Y-85250000D02*
X79290000Y-86499000D01*
%TO.N,ISET*%
X71263500Y-106378000D02*
X71263500Y-113251200D01*
X67330300Y-102444800D02*
X71263500Y-106378000D01*
%TO.N,PD_SENSE*%
X115432900Y-30415000D02*
X115432900Y-40235500D01*
X117278000Y-29423300D02*
X116424600Y-29423300D01*
X118000000Y-28701300D02*
X117278000Y-29423300D01*
X118000000Y-28337500D02*
X118000000Y-28701300D01*
X116424600Y-29423300D02*
X115432900Y-30415000D01*
X115432900Y-40235500D02*
X117874600Y-42677200D01*
%TO.N,XTAL2*%
X62564100Y-76940500D02*
X62913900Y-77290300D01*
X61015000Y-78275000D02*
X61015000Y-77872400D01*
X61015000Y-77872400D02*
X61946900Y-76940500D01*
X62913900Y-77290300D02*
X62913900Y-81739000D01*
X61946900Y-76940500D02*
X62564100Y-76940500D01*
X62913900Y-81739000D02*
X65073600Y-83898700D01*
%TO.N,XTAL1*%
X62285000Y-81807300D02*
X60193600Y-83898700D01*
X62285000Y-78275000D02*
X62285000Y-81807300D01*
%TO.N,INT_CAN*%
X65699700Y-74406200D02*
X65699700Y-74261600D01*
X66395000Y-75101500D02*
X65699700Y-74406200D01*
X74498300Y-89555000D02*
X74498300Y-80226300D01*
X65699700Y-74261600D02*
X65376500Y-73938400D01*
X67772600Y-75101500D02*
X66395000Y-75101500D01*
X68162700Y-75491600D02*
X67772600Y-75101500D01*
X61015000Y-69866100D02*
X61015000Y-68975000D01*
X65376500Y-73938400D02*
X65087300Y-73938400D01*
X69763600Y-75491600D02*
X68162700Y-75491600D01*
X65087300Y-73938400D02*
X61015000Y-69866100D01*
X75500000Y-89555000D02*
X74498300Y-89555000D01*
X74498300Y-80226300D02*
X69763600Y-75491600D01*
%TO.N,CS_CAN*%
X74145100Y-90471800D02*
X74498300Y-90825000D01*
X67869400Y-75843300D02*
X69618000Y-75843300D01*
X62080000Y-75453200D02*
X67479300Y-75453200D01*
X59126700Y-65384700D02*
X59126700Y-61280700D01*
X69618000Y-75843300D02*
X74145100Y-80370400D01*
X55935000Y-68975000D02*
X55935000Y-68576400D01*
X74145100Y-80370400D02*
X74145100Y-90471800D01*
X55935000Y-69308200D02*
X62080000Y-75453200D01*
X67479300Y-75453200D02*
X67869400Y-75843300D01*
X59126700Y-61280700D02*
X53233400Y-55387400D01*
X75500000Y-90825000D02*
X74498300Y-90825000D01*
X55935000Y-68576400D02*
X59126700Y-65384700D01*
X55935000Y-68975000D02*
X55935000Y-69308200D01*
%TO.N,PD_CFG1*%
X118079700Y-27049400D02*
X117918000Y-27049400D01*
X117000000Y-27967400D02*
X117000000Y-28337500D01*
X117918000Y-27049400D02*
X117000000Y-27967400D01*
%TO.N,USB_SEL*%
X68604900Y-102164000D02*
X74422500Y-107981600D01*
X75515400Y-84248300D02*
X75449200Y-84314500D01*
X68354900Y-101332200D02*
X54071700Y-101332200D01*
X83100000Y-84248300D02*
X75515400Y-84248300D01*
X74422500Y-110489900D02*
X75872700Y-111940100D01*
X54071700Y-101332200D02*
X53047600Y-102356300D01*
X68604900Y-101582200D02*
X68354900Y-101332200D01*
X68604900Y-101582200D02*
X68604900Y-102164000D01*
X75872700Y-111940100D02*
X75872700Y-112555100D01*
X74422500Y-107981600D02*
X74422500Y-110489900D01*
X69052400Y-101134700D02*
X68604900Y-101582200D01*
X83100000Y-85250000D02*
X83100000Y-84248300D01*
%TO.N,CC1*%
X119000000Y-27189500D02*
X118300100Y-26489600D01*
X119000000Y-28337500D02*
X119000000Y-27189500D01*
X118300000Y-26489600D02*
X118300000Y-20800000D01*
X118300100Y-26489600D02*
X118300000Y-26489600D01*
%TO.N,USBC_DP*%
X106976600Y-28359900D02*
X107242300Y-28359900D01*
X116600000Y-19948900D02*
X117450000Y-20798900D01*
X117450000Y-20891200D02*
X117450000Y-20800000D01*
X74531600Y-115355100D02*
X74261700Y-115085200D01*
X116937900Y-21403300D02*
X117450000Y-20891200D01*
X75372700Y-115355100D02*
X74531600Y-115355100D01*
X109166900Y-19701500D02*
X109166900Y-17426500D01*
X116600000Y-19450000D02*
X116600000Y-19948900D01*
X106251300Y-25334800D02*
X105703800Y-25882300D01*
X105703800Y-27087100D02*
X106976600Y-28359900D01*
X109166900Y-19701500D02*
X110868700Y-21403300D01*
X117450000Y-20798900D02*
X117450000Y-20800000D01*
X110868700Y-21403300D02*
X110868700Y-21924400D01*
X105703800Y-25882300D02*
X105703800Y-27087100D01*
X107458300Y-25334800D02*
X106251300Y-25334800D01*
X110868700Y-21924400D02*
X107458300Y-25334800D01*
X110868700Y-21403300D02*
X116937900Y-21403300D01*
X107242300Y-28359900D02*
X107242300Y-28360000D01*
%TO.N,USBC_DM*%
X113425000Y-19754300D02*
X113869000Y-20198300D01*
X107266900Y-17426500D02*
X107266900Y-17065900D01*
X113869000Y-20198300D02*
X116081300Y-20198300D01*
X75872700Y-115649700D02*
X76861600Y-116638600D01*
X107266900Y-17065900D02*
X107867600Y-16465200D01*
X101500300Y-116638600D02*
X104283800Y-113855100D01*
X113425000Y-18792100D02*
X113425000Y-19754300D01*
X76861600Y-116638600D02*
X101500300Y-116638600D01*
X75872700Y-115355100D02*
X75872700Y-115649700D01*
X111098100Y-16465200D02*
X113425000Y-18792100D01*
X116081300Y-20198300D02*
X116600000Y-20717000D01*
X107867600Y-16465200D02*
X111098100Y-16465200D01*
X116600000Y-20717000D02*
X116600000Y-20800000D01*
X107266900Y-19701500D02*
X107266900Y-17426500D01*
%TO.N,CC2*%
X116758500Y-18357200D02*
X115750000Y-19365700D01*
X122055200Y-18779100D02*
X121633300Y-18357200D01*
X122055200Y-26282300D02*
X122055200Y-18779100D01*
X121633300Y-18357200D02*
X116758500Y-18357200D01*
X120000000Y-28337500D02*
X122055200Y-26282300D01*
X115750000Y-19365700D02*
X115750000Y-19450000D01*
%TO.N,USBA_DP*%
X80986900Y-115179400D02*
X80695700Y-114888200D01*
X76372700Y-115650700D02*
X76986800Y-116264800D01*
X80986900Y-115179400D02*
X83261900Y-115179400D01*
X76986800Y-116264800D02*
X78786200Y-116264800D01*
X78786200Y-116264800D02*
X78997700Y-116053300D01*
X80695700Y-114888200D02*
X78805500Y-114888200D01*
X76372700Y-115355100D02*
X76372700Y-115650700D01*
%TO.N,USBA_DM*%
X83261900Y-113279400D02*
X84111800Y-113279400D01*
X83941300Y-115731700D02*
X80150200Y-115731700D01*
X85019800Y-114187400D02*
X85019800Y-114653200D01*
X80986900Y-113279400D02*
X83261900Y-113279400D01*
X78731500Y-115447800D02*
X78268700Y-115910600D01*
X77132700Y-115910600D02*
X76872700Y-115650600D01*
X80150200Y-115731700D02*
X79866300Y-115447800D01*
X79866300Y-115447800D02*
X78731500Y-115447800D01*
X84111800Y-113279400D02*
X85019800Y-114187400D01*
X80150200Y-115731700D02*
X80150200Y-116009300D01*
X76872700Y-115650600D02*
X76872700Y-115355100D01*
X85019800Y-114653200D02*
X83941300Y-115731700D01*
X78268700Y-115910600D02*
X77132700Y-115910600D01*
%TO.N,USB_DM*%
X78418600Y-96392200D02*
X77897700Y-96913100D01*
X78020000Y-86251700D02*
X78418600Y-86650300D01*
X76872700Y-112283700D02*
X76872700Y-112555100D01*
X77974900Y-111181500D02*
X76872700Y-112283700D01*
X78418600Y-86650300D02*
X78418600Y-96392200D01*
X78020000Y-85250000D02*
X78020000Y-86251700D01*
X78113800Y-111181500D02*
X77974900Y-111181500D01*
%TO.N,USB_DP*%
X76372700Y-111039100D02*
X76372700Y-112555100D01*
X76750000Y-85250000D02*
X76750000Y-86251700D01*
X76750000Y-86251700D02*
X77866800Y-87368500D01*
X77866800Y-87368500D02*
X77866800Y-96161300D01*
X76252300Y-110918700D02*
X76372700Y-111039100D01*
%TO.N,MCU_EN*%
X90720000Y-83621700D02*
X90564400Y-83466100D01*
X87311400Y-77269400D02*
X87970900Y-76609900D01*
X87801500Y-76440500D02*
X87970900Y-76609900D01*
X87226800Y-76440500D02*
X87273900Y-76440500D01*
X87311400Y-82093700D02*
X87311400Y-77269400D01*
X133714400Y-30000000D02*
X134000000Y-30000000D01*
X87273900Y-76440500D02*
X133714400Y-30000000D01*
X90720000Y-85250000D02*
X90720000Y-83621700D01*
X140500000Y-30000000D02*
X134000000Y-30000000D01*
X83327900Y-76440500D02*
X87226800Y-76440500D01*
X87873300Y-82655600D02*
X87311400Y-82093700D01*
X87226800Y-76440500D02*
X87801500Y-76440500D01*
%TO.N,JOY_Y*%
X148175400Y-89887400D02*
X153600700Y-84462100D01*
X158060000Y-66000000D02*
X158060000Y-70063400D01*
X122716100Y-89887400D02*
X148175400Y-89887400D01*
X153600700Y-84462100D02*
X156084300Y-84462100D01*
X113616900Y-88641000D02*
X121469700Y-88641000D01*
X167465600Y-82556700D02*
X168138600Y-81883700D01*
X156084300Y-84462100D02*
X156846100Y-83700300D01*
X158060000Y-70063400D02*
X167561600Y-79565000D01*
X94661700Y-80803100D02*
X97325600Y-83467000D01*
X108442900Y-83467000D02*
X113616900Y-88641000D01*
X121469700Y-88641000D02*
X122716100Y-89887400D01*
X166322000Y-83700300D02*
X167465600Y-82556700D01*
X97325600Y-83467000D02*
X108442900Y-83467000D01*
X156846100Y-83700300D02*
X166322000Y-83700300D01*
X92447300Y-80803100D02*
X94661700Y-80803100D01*
X167561600Y-81306800D02*
X168138600Y-81883700D01*
X89450000Y-83800400D02*
X92447300Y-80803100D01*
X89450000Y-85250000D02*
X89450000Y-83800400D01*
X167561600Y-79565000D02*
X167561600Y-81306800D01*
%TO.N,PD_VDD*%
X116997300Y-38080000D02*
X116000000Y-37082700D01*
X116000000Y-37082700D02*
X116000000Y-33662500D01*
X116000000Y-33304700D02*
X116687700Y-32617000D01*
X116000000Y-33662500D02*
X116000000Y-33304700D01*
X116687700Y-32617000D02*
X123441000Y-32617000D01*
X123441000Y-32617000D02*
X123984200Y-33160200D01*
%TO.N,USB_HOST_EN*%
X68988500Y-108888500D02*
X67124300Y-107024300D01*
X68988500Y-113251200D02*
X68988500Y-108888500D01*
X80970600Y-87372700D02*
X81830000Y-86513300D01*
X81830000Y-86513300D02*
X81830000Y-85250000D01*
%TO.N,ENC_A*%
X152433500Y-61104400D02*
X107386900Y-61104400D01*
X92196100Y-103545700D02*
X91990100Y-103751700D01*
X107386900Y-61104400D02*
X107212500Y-61278800D01*
X92600600Y-103741600D02*
X92600600Y-103659000D01*
X90150400Y-106191800D02*
X92600600Y-103741600D01*
X91990000Y-102750000D02*
X91990000Y-103751700D01*
X92487300Y-103545700D02*
X92196100Y-103545700D01*
X92600600Y-103659000D02*
X92487300Y-103545700D01*
X91990100Y-103751700D02*
X91990000Y-103751700D01*
X89354300Y-106191800D02*
X90150400Y-106191800D01*
%TO.N,VBUS_STICK*%
D52*
X58744400Y-115858200D02*
X57283800Y-114397600D01*
X71263500Y-115151200D02*
X70556500Y-115858200D01*
X70000000Y-115858200D02*
X58744400Y-115858200D01*
X70556500Y-115858200D02*
X70000000Y-115858200D01*
X70000000Y-115858200D02*
X70000000Y-120700000D01*
%TO.N,ENC_B*%
D50*
X122279300Y-90942500D02*
X152614000Y-90942500D01*
X85823700Y-108685000D02*
X85308900Y-108685000D01*
X81830000Y-105206100D02*
X81830000Y-102750000D01*
X87352900Y-110479600D02*
X87352900Y-110214200D01*
X170251500Y-87498300D02*
X176951400Y-80798400D01*
X109428100Y-86484800D02*
X113056600Y-90113300D01*
X87352900Y-110214200D02*
X85823700Y-108685000D01*
X113056600Y-90113300D02*
X121450100Y-90113300D01*
X156058200Y-87498300D02*
X170251500Y-87498300D01*
X109428100Y-86202300D02*
X109428100Y-86484800D01*
X85308900Y-108685000D02*
X81830000Y-105206100D01*
X152614000Y-90942500D02*
X156058200Y-87498300D01*
X121450100Y-90113300D02*
X122279300Y-90942500D01*
%TO.N,JOY_X*%
X158060000Y-78000000D02*
X158060000Y-80002800D01*
X116034300Y-85032700D02*
X112886400Y-85032700D01*
X119270200Y-88268600D02*
X116034300Y-85032700D01*
X150836000Y-84052600D02*
X145352900Y-89535700D01*
X154270100Y-84052600D02*
X150836000Y-84052600D01*
X165443300Y-80534400D02*
X164911700Y-80002800D01*
X90720000Y-101748300D02*
X90938100Y-101530200D01*
X158060000Y-80262700D02*
X154270100Y-84052600D01*
X90938100Y-101530200D02*
X93650200Y-101530200D01*
X158060000Y-80002800D02*
X158060000Y-80262700D01*
X93650200Y-101530200D02*
X94335700Y-102215700D01*
X94335700Y-102215700D02*
X107668600Y-102215700D01*
X90720000Y-102750000D02*
X90720000Y-101748300D01*
X158060000Y-80002800D02*
X164911700Y-80002800D01*
X107668600Y-102215700D02*
X109485400Y-100398900D01*
X145352900Y-89535700D02*
X122861700Y-89535700D01*
X121594600Y-88268600D02*
X119270200Y-88268600D01*
X122861700Y-89535700D02*
X121594600Y-88268600D01*
%TO.N,JOY_XB*%
X172702700Y-76265600D02*
X172702700Y-66591100D01*
X172556700Y-77465600D02*
X173229700Y-76792600D01*
X173229700Y-76792600D02*
X172702700Y-76265600D01*
%TO.N,FB_5V*%
X122117600Y-101921900D02*
X115377800Y-101921900D01*
X124107700Y-88059600D02*
X123236900Y-88930400D01*
X122354100Y-82805000D02*
X124107700Y-84558600D01*
X115377800Y-101921900D02*
X110960300Y-97504400D01*
X118132500Y-82805000D02*
X122354100Y-82805000D01*
X124107700Y-84558600D02*
X124107700Y-88059600D01*
%TO.N,BST_5V*%
X117506300Y-76797700D02*
X118132500Y-77423900D01*
X118132500Y-77423900D02*
X118132500Y-80905000D01*
%TO.N,MOSI_MCU*%
X76501700Y-92095000D02*
X76501700Y-90872400D01*
X75500000Y-92095000D02*
X76501700Y-92095000D01*
X76501700Y-90872400D02*
X77151800Y-90222300D01*
%TO.N,JOY_YB*%
X170534400Y-75443300D02*
X171207400Y-74770300D01*
X171207400Y-74770300D02*
X171207400Y-65101000D01*
X171207400Y-65101000D02*
X169743600Y-63637200D01*
%TO.N,CS_TFT*%
X75500000Y-95905000D02*
X76501700Y-95905000D01*
X77994500Y-97815600D02*
X76501700Y-96322800D01*
X78983900Y-97815600D02*
X77994500Y-97815600D01*
X76501700Y-96322800D02*
X76501700Y-95905000D01*
%TO.N,TFT_DC*%
X91696600Y-98406800D02*
X77733500Y-98406800D01*
X106000000Y-98500000D02*
X103240000Y-101260000D01*
X77733500Y-98406800D02*
X76501700Y-97175000D01*
X94549800Y-101260000D02*
X91696600Y-98406800D01*
X75500000Y-97175000D02*
X76501700Y-97175000D01*
X103240000Y-101260000D02*
X94549800Y-101260000D01*
%TO.N,TFT_RST*%
X105426700Y-101613300D02*
X106000000Y-101040000D01*
X94230600Y-101613300D02*
X105426700Y-101613300D01*
X77205000Y-99148300D02*
X91765600Y-99148300D01*
X91765600Y-99148300D02*
X94230600Y-101613300D01*
X76501700Y-98445000D02*
X77205000Y-99148300D01*
X75500000Y-98445000D02*
X76501700Y-98445000D01*
%TO.N,TXD0*%
X89450000Y-103751700D02*
X89106500Y-103751700D01*
X89450000Y-102750000D02*
X89450000Y-103751700D01*
X89106500Y-103751700D02*
X88885000Y-103973200D01*
%TO.N,RXD0*%
X88180000Y-101748300D02*
X88272900Y-101748300D01*
X88272900Y-101748300D02*
X89079800Y-100941400D01*
X88180000Y-102750000D02*
X88180000Y-101748300D01*
%TO.N,SCK_MCU*%
X72032800Y-93365000D02*
X71531500Y-92863700D01*
X75500000Y-93365000D02*
X72032800Y-93365000D01*
%TD*%
M02*
