%TF.GenerationSoftware,KiCad,Pcbnew,10.0.5*%
%TF.CreationDate,2026-08-11T11:25:45+02:00*%
%TF.ProjectId,obd2-simulator,6f626432-2d73-4696-9d75-6c61746f722e,rev?*%
%TF.SameCoordinates,Original*%
%TF.FileFunction,Legend,Bot*%
%TF.FilePolarity,Positive*%
%FSLAX46Y46*%
G04 Gerber Fmt 4.6, Leading zero omitted, Abs format (unit mm)*
G04 Created by KiCad (PCBNEW 10.0.5) date 2026-08-11 11:25:45*
%MOMM*%
%LPD*%
G01*
G04 APERTURE LIST*
%ADD10C,0.315000*%
%ADD11C,0.480000*%
G04 APERTURE END LIST*
D10*
X149060000Y-125180120D02*
X149060000Y-123080120D01*
X149060000Y-123080120D02*
X148560000Y-123080120D01*
X148560000Y-123080120D02*
X148260000Y-123180120D01*
X148260000Y-123180120D02*
X148060000Y-123380120D01*
X148060000Y-123380120D02*
X147960000Y-123580120D01*
X147960000Y-123580120D02*
X147860000Y-123980120D01*
X147860000Y-123980120D02*
X147860000Y-124280120D01*
X147860000Y-124280120D02*
X147960000Y-124680120D01*
X147960000Y-124680120D02*
X148060000Y-124880120D01*
X148060000Y-124880120D02*
X148260000Y-125080120D01*
X148260000Y-125080120D02*
X148560000Y-125180120D01*
X148560000Y-125180120D02*
X149060000Y-125180120D01*
X146160000Y-125080120D02*
X146360000Y-125180120D01*
X146360000Y-125180120D02*
X146760000Y-125180120D01*
X146760000Y-125180120D02*
X146960000Y-125080120D01*
X146960000Y-125080120D02*
X147060000Y-124880120D01*
X147060000Y-124880120D02*
X147060000Y-124080120D01*
X147060000Y-124080120D02*
X146960000Y-123880120D01*
X146960000Y-123880120D02*
X146760000Y-123780120D01*
X146760000Y-123780120D02*
X146360000Y-123780120D01*
X146360000Y-123780120D02*
X146160000Y-123880120D01*
X146160000Y-123880120D02*
X146060000Y-124080120D01*
X146060000Y-124080120D02*
X146060000Y-124280120D01*
X146060000Y-124280120D02*
X147060000Y-124480120D01*
X145260000Y-125080120D02*
X145060000Y-125180120D01*
X145060000Y-125180120D02*
X144660000Y-125180120D01*
X144660000Y-125180120D02*
X144460000Y-125080120D01*
X144460000Y-125080120D02*
X144360000Y-124880120D01*
X144360000Y-124880120D02*
X144360000Y-124780120D01*
X144360000Y-124780120D02*
X144460000Y-124580120D01*
X144460000Y-124580120D02*
X144660000Y-124480120D01*
X144660000Y-124480120D02*
X144960000Y-124480120D01*
X144960000Y-124480120D02*
X145160000Y-124380120D01*
X145160000Y-124380120D02*
X145260000Y-124180120D01*
X145260000Y-124180120D02*
X145260000Y-124080120D01*
X145260000Y-124080120D02*
X145160000Y-123880120D01*
X145160000Y-123880120D02*
X144960000Y-123780120D01*
X144960000Y-123780120D02*
X144660000Y-123780120D01*
X144660000Y-123780120D02*
X144460000Y-123880120D01*
X143460000Y-125180120D02*
X143460000Y-123780120D01*
X143460000Y-123080120D02*
X143560000Y-123180120D01*
X143560000Y-123180120D02*
X143460000Y-123280120D01*
X143460000Y-123280120D02*
X143360000Y-123180120D01*
X143360000Y-123180120D02*
X143460000Y-123080120D01*
X143460000Y-123080120D02*
X143460000Y-123280120D01*
X141560000Y-123780120D02*
X141560000Y-125480120D01*
X141560000Y-125480120D02*
X141660000Y-125680120D01*
X141660000Y-125680120D02*
X141760000Y-125780120D01*
X141760000Y-125780120D02*
X141960000Y-125880120D01*
X141960000Y-125880120D02*
X142260000Y-125880120D01*
X142260000Y-125880120D02*
X142460000Y-125780120D01*
X141560000Y-125080120D02*
X141760000Y-125180120D01*
X141760000Y-125180120D02*
X142160000Y-125180120D01*
X142160000Y-125180120D02*
X142360000Y-125080120D01*
X142360000Y-125080120D02*
X142460000Y-124980120D01*
X142460000Y-124980120D02*
X142560000Y-124780120D01*
X142560000Y-124780120D02*
X142560000Y-124180120D01*
X142560000Y-124180120D02*
X142460000Y-123980120D01*
X142460000Y-123980120D02*
X142360000Y-123880120D01*
X142360000Y-123880120D02*
X142160000Y-123780120D01*
X142160000Y-123780120D02*
X141760000Y-123780120D01*
X141760000Y-123780120D02*
X141560000Y-123880120D01*
X140560000Y-123780120D02*
X140560000Y-125180120D01*
X140560000Y-123980120D02*
X140460000Y-123880120D01*
X140460000Y-123880120D02*
X140260000Y-123780120D01*
X140260000Y-123780120D02*
X139960000Y-123780120D01*
X139960000Y-123780120D02*
X139760000Y-123880120D01*
X139760000Y-123880120D02*
X139660000Y-124080120D01*
X139660000Y-124080120D02*
X139660000Y-125180120D01*
X137860000Y-125080120D02*
X138060000Y-125180120D01*
X138060000Y-125180120D02*
X138460000Y-125180120D01*
X138460000Y-125180120D02*
X138660000Y-125080120D01*
X138660000Y-125080120D02*
X138760000Y-124880120D01*
X138760000Y-124880120D02*
X138760000Y-124080120D01*
X138760000Y-124080120D02*
X138660000Y-123880120D01*
X138660000Y-123880120D02*
X138460000Y-123780120D01*
X138460000Y-123780120D02*
X138060000Y-123780120D01*
X138060000Y-123780120D02*
X137860000Y-123880120D01*
X137860000Y-123880120D02*
X137760000Y-124080120D01*
X137760000Y-124080120D02*
X137760000Y-124280120D01*
X137760000Y-124280120D02*
X138760000Y-124480120D01*
X135960000Y-125180120D02*
X135960000Y-123080120D01*
X135960000Y-125080120D02*
X136160000Y-125180120D01*
X136160000Y-125180120D02*
X136560000Y-125180120D01*
X136560000Y-125180120D02*
X136760000Y-125080120D01*
X136760000Y-125080120D02*
X136860000Y-124980120D01*
X136860000Y-124980120D02*
X136960000Y-124780120D01*
X136960000Y-124780120D02*
X136960000Y-124180120D01*
X136960000Y-124180120D02*
X136860000Y-123980120D01*
X136860000Y-123980120D02*
X136760000Y-123880120D01*
X136760000Y-123880120D02*
X136560000Y-123780120D01*
X136560000Y-123780120D02*
X136160000Y-123780120D01*
X136160000Y-123780120D02*
X135960000Y-123880120D01*
X133360000Y-125180120D02*
X133360000Y-123080120D01*
X133360000Y-123880120D02*
X133160000Y-123780120D01*
X133160000Y-123780120D02*
X132760000Y-123780120D01*
X132760000Y-123780120D02*
X132560000Y-123880120D01*
X132560000Y-123880120D02*
X132460000Y-123980120D01*
X132460000Y-123980120D02*
X132360000Y-124180120D01*
X132360000Y-124180120D02*
X132360000Y-124780120D01*
X132360000Y-124780120D02*
X132460000Y-124980120D01*
X132460000Y-124980120D02*
X132560000Y-125080120D01*
X132560000Y-125080120D02*
X132760000Y-125180120D01*
X132760000Y-125180120D02*
X133160000Y-125180120D01*
X133160000Y-125180120D02*
X133360000Y-125080120D01*
X131660000Y-123780120D02*
X131160000Y-125180120D01*
X130660000Y-123780120D02*
X131160000Y-125180120D01*
X131160000Y-125180120D02*
X131360000Y-125680120D01*
X131360000Y-125680120D02*
X131460000Y-125780120D01*
X131460000Y-125780120D02*
X131660000Y-125880120D01*
X127560000Y-124080120D02*
X128260000Y-124080120D01*
X128260000Y-125180120D02*
X128260000Y-123080120D01*
X128260000Y-123080120D02*
X127260000Y-123080120D01*
X126460000Y-125180120D02*
X126460000Y-123780120D01*
X126460000Y-123080120D02*
X126560000Y-123180120D01*
X126560000Y-123180120D02*
X126460000Y-123280120D01*
X126460000Y-123280120D02*
X126360000Y-123180120D01*
X126360000Y-123180120D02*
X126460000Y-123080120D01*
X126460000Y-123080120D02*
X126460000Y-123280120D01*
X125160000Y-125180120D02*
X125360000Y-125080120D01*
X125360000Y-125080120D02*
X125460000Y-124880120D01*
X125460000Y-124880120D02*
X125460000Y-123080120D01*
X124360000Y-125180120D02*
X124360000Y-123780120D01*
X124360000Y-123080120D02*
X124460000Y-123180120D01*
X124460000Y-123180120D02*
X124360000Y-123280120D01*
X124360000Y-123280120D02*
X124260000Y-123180120D01*
X124260000Y-123180120D02*
X124360000Y-123080120D01*
X124360000Y-123080120D02*
X124360000Y-123280120D01*
X123360000Y-123780120D02*
X123360000Y-125880120D01*
X123360000Y-123880120D02*
X123160000Y-123780120D01*
X123160000Y-123780120D02*
X122760000Y-123780120D01*
X122760000Y-123780120D02*
X122560000Y-123880120D01*
X122560000Y-123880120D02*
X122460000Y-123980120D01*
X122460000Y-123980120D02*
X122360000Y-124180120D01*
X122360000Y-124180120D02*
X122360000Y-124780120D01*
X122360000Y-124780120D02*
X122460000Y-124980120D01*
X122460000Y-124980120D02*
X122560000Y-125080120D01*
X122560000Y-125080120D02*
X122760000Y-125180120D01*
X122760000Y-125180120D02*
X123160000Y-125180120D01*
X123160000Y-125180120D02*
X123360000Y-125080120D01*
X118660000Y-125180120D02*
X119360000Y-124180120D01*
X119860000Y-125180120D02*
X119860000Y-123080120D01*
X119860000Y-123080120D02*
X119060000Y-123080120D01*
X119060000Y-123080120D02*
X118860000Y-123180120D01*
X118860000Y-123180120D02*
X118760000Y-123280120D01*
X118760000Y-123280120D02*
X118660000Y-123480120D01*
X118660000Y-123480120D02*
X118660000Y-123780120D01*
X118660000Y-123780120D02*
X118760000Y-123980120D01*
X118760000Y-123980120D02*
X118860000Y-124080120D01*
X118860000Y-124080120D02*
X119060000Y-124180120D01*
X119060000Y-124180120D02*
X119860000Y-124180120D01*
X116860000Y-125180120D02*
X116860000Y-124080120D01*
X116860000Y-124080120D02*
X116960000Y-123880120D01*
X116960000Y-123880120D02*
X117160000Y-123780120D01*
X117160000Y-123780120D02*
X117560000Y-123780120D01*
X117560000Y-123780120D02*
X117760000Y-123880120D01*
X116860000Y-125080120D02*
X117060000Y-125180120D01*
X117060000Y-125180120D02*
X117560000Y-125180120D01*
X117560000Y-125180120D02*
X117760000Y-125080120D01*
X117760000Y-125080120D02*
X117860000Y-124880120D01*
X117860000Y-124880120D02*
X117860000Y-124680120D01*
X117860000Y-124680120D02*
X117760000Y-124480120D01*
X117760000Y-124480120D02*
X117560000Y-124380120D01*
X117560000Y-124380120D02*
X117060000Y-124380120D01*
X117060000Y-124380120D02*
X116860000Y-124280120D01*
X115860000Y-125180120D02*
X115860000Y-123780120D01*
X115860000Y-123080120D02*
X115960000Y-123180120D01*
X115960000Y-123180120D02*
X115860000Y-123280120D01*
X115860000Y-123280120D02*
X115760000Y-123180120D01*
X115760000Y-123180120D02*
X115860000Y-123080120D01*
X115860000Y-123080120D02*
X115860000Y-123280120D01*
X113960000Y-125080120D02*
X114160000Y-125180120D01*
X114160000Y-125180120D02*
X114560000Y-125180120D01*
X114560000Y-125180120D02*
X114760000Y-125080120D01*
X114760000Y-125080120D02*
X114860000Y-124980120D01*
X114860000Y-124980120D02*
X114960000Y-124780120D01*
X114960000Y-124780120D02*
X114960000Y-124180120D01*
X114960000Y-124180120D02*
X114860000Y-123980120D01*
X114860000Y-123980120D02*
X114760000Y-123880120D01*
X114760000Y-123880120D02*
X114560000Y-123780120D01*
X114560000Y-123780120D02*
X114160000Y-123780120D01*
X114160000Y-123780120D02*
X113960000Y-123880120D01*
D11*
X158988571Y-118330420D02*
X158379047Y-118330420D01*
X158379047Y-118330420D02*
X158074285Y-118482801D01*
X158074285Y-118482801D02*
X157769523Y-118787563D01*
X157769523Y-118787563D02*
X157617142Y-119397087D01*
X157617142Y-119397087D02*
X157617142Y-120463754D01*
X157617142Y-120463754D02*
X157769523Y-121073278D01*
X157769523Y-121073278D02*
X158074285Y-121378040D01*
X158074285Y-121378040D02*
X158379047Y-121530420D01*
X158379047Y-121530420D02*
X158988571Y-121530420D01*
X158988571Y-121530420D02*
X159293333Y-121378040D01*
X159293333Y-121378040D02*
X159598095Y-121073278D01*
X159598095Y-121073278D02*
X159750476Y-120463754D01*
X159750476Y-120463754D02*
X159750476Y-119397087D01*
X159750476Y-119397087D02*
X159598095Y-118787563D01*
X159598095Y-118787563D02*
X159293333Y-118482801D01*
X159293333Y-118482801D02*
X158988571Y-118330420D01*
X155179047Y-119854230D02*
X154721904Y-120006611D01*
X154721904Y-120006611D02*
X154569523Y-120158992D01*
X154569523Y-120158992D02*
X154417142Y-120463754D01*
X154417142Y-120463754D02*
X154417142Y-120920897D01*
X154417142Y-120920897D02*
X154569523Y-121225659D01*
X154569523Y-121225659D02*
X154721904Y-121378040D01*
X154721904Y-121378040D02*
X155026666Y-121530420D01*
X155026666Y-121530420D02*
X156245714Y-121530420D01*
X156245714Y-121530420D02*
X156245714Y-118330420D01*
X156245714Y-118330420D02*
X155179047Y-118330420D01*
X155179047Y-118330420D02*
X154874285Y-118482801D01*
X154874285Y-118482801D02*
X154721904Y-118635182D01*
X154721904Y-118635182D02*
X154569523Y-118939944D01*
X154569523Y-118939944D02*
X154569523Y-119244706D01*
X154569523Y-119244706D02*
X154721904Y-119549468D01*
X154721904Y-119549468D02*
X154874285Y-119701849D01*
X154874285Y-119701849D02*
X155179047Y-119854230D01*
X155179047Y-119854230D02*
X156245714Y-119854230D01*
X153045714Y-121530420D02*
X153045714Y-118330420D01*
X153045714Y-118330420D02*
X152283809Y-118330420D01*
X152283809Y-118330420D02*
X151826666Y-118482801D01*
X151826666Y-118482801D02*
X151521904Y-118787563D01*
X151521904Y-118787563D02*
X151369523Y-119092325D01*
X151369523Y-119092325D02*
X151217142Y-119701849D01*
X151217142Y-119701849D02*
X151217142Y-120158992D01*
X151217142Y-120158992D02*
X151369523Y-120768516D01*
X151369523Y-120768516D02*
X151521904Y-121073278D01*
X151521904Y-121073278D02*
X151826666Y-121378040D01*
X151826666Y-121378040D02*
X152283809Y-121530420D01*
X152283809Y-121530420D02*
X153045714Y-121530420D01*
X149845714Y-120311373D02*
X147407619Y-120311373D01*
X145883809Y-121530420D02*
X145883809Y-118330420D01*
X144359999Y-121530420D02*
X144359999Y-118330420D01*
X140550475Y-121378040D02*
X140093332Y-121530420D01*
X140093332Y-121530420D02*
X139331427Y-121530420D01*
X139331427Y-121530420D02*
X139026665Y-121378040D01*
X139026665Y-121378040D02*
X138874284Y-121225659D01*
X138874284Y-121225659D02*
X138721903Y-120920897D01*
X138721903Y-120920897D02*
X138721903Y-120616135D01*
X138721903Y-120616135D02*
X138874284Y-120311373D01*
X138874284Y-120311373D02*
X139026665Y-120158992D01*
X139026665Y-120158992D02*
X139331427Y-120006611D01*
X139331427Y-120006611D02*
X139940951Y-119854230D01*
X139940951Y-119854230D02*
X140245713Y-119701849D01*
X140245713Y-119701849D02*
X140398094Y-119549468D01*
X140398094Y-119549468D02*
X140550475Y-119244706D01*
X140550475Y-119244706D02*
X140550475Y-118939944D01*
X140550475Y-118939944D02*
X140398094Y-118635182D01*
X140398094Y-118635182D02*
X140245713Y-118482801D01*
X140245713Y-118482801D02*
X139940951Y-118330420D01*
X139940951Y-118330420D02*
X139179046Y-118330420D01*
X139179046Y-118330420D02*
X138721903Y-118482801D01*
X137350475Y-121530420D02*
X137350475Y-118330420D01*
X135826665Y-121530420D02*
X135826665Y-118330420D01*
X135826665Y-118330420D02*
X134759998Y-120616135D01*
X134759998Y-120616135D02*
X133693331Y-118330420D01*
X133693331Y-118330420D02*
X133693331Y-121530420D01*
X132169522Y-118330420D02*
X132169522Y-120920897D01*
X132169522Y-120920897D02*
X132017141Y-121225659D01*
X132017141Y-121225659D02*
X131864760Y-121378040D01*
X131864760Y-121378040D02*
X131559998Y-121530420D01*
X131559998Y-121530420D02*
X130950474Y-121530420D01*
X130950474Y-121530420D02*
X130645712Y-121378040D01*
X130645712Y-121378040D02*
X130493331Y-121225659D01*
X130493331Y-121225659D02*
X130340950Y-120920897D01*
X130340950Y-120920897D02*
X130340950Y-118330420D01*
X127293331Y-121530420D02*
X128817141Y-121530420D01*
X128817141Y-121530420D02*
X128817141Y-118330420D01*
X126379046Y-120616135D02*
X124855236Y-120616135D01*
X126683808Y-121530420D02*
X125617141Y-118330420D01*
X125617141Y-118330420D02*
X124550474Y-121530420D01*
X123940951Y-118330420D02*
X122112379Y-118330420D01*
X123026665Y-121530420D02*
X123026665Y-118330420D01*
X120436189Y-118330420D02*
X119826665Y-118330420D01*
X119826665Y-118330420D02*
X119521903Y-118482801D01*
X119521903Y-118482801D02*
X119217141Y-118787563D01*
X119217141Y-118787563D02*
X119064760Y-119397087D01*
X119064760Y-119397087D02*
X119064760Y-120463754D01*
X119064760Y-120463754D02*
X119217141Y-121073278D01*
X119217141Y-121073278D02*
X119521903Y-121378040D01*
X119521903Y-121378040D02*
X119826665Y-121530420D01*
X119826665Y-121530420D02*
X120436189Y-121530420D01*
X120436189Y-121530420D02*
X120740951Y-121378040D01*
X120740951Y-121378040D02*
X121045713Y-121073278D01*
X121045713Y-121073278D02*
X121198094Y-120463754D01*
X121198094Y-120463754D02*
X121198094Y-119397087D01*
X121198094Y-119397087D02*
X121045713Y-118787563D01*
X121045713Y-118787563D02*
X120740951Y-118482801D01*
X120740951Y-118482801D02*
X120436189Y-118330420D01*
X115864760Y-121530420D02*
X116931427Y-120006611D01*
X117693332Y-121530420D02*
X117693332Y-118330420D01*
X117693332Y-118330420D02*
X116474284Y-118330420D01*
X116474284Y-118330420D02*
X116169522Y-118482801D01*
X116169522Y-118482801D02*
X116017141Y-118635182D01*
X116017141Y-118635182D02*
X115864760Y-118939944D01*
X115864760Y-118939944D02*
X115864760Y-119397087D01*
X115864760Y-119397087D02*
X116017141Y-119701849D01*
X116017141Y-119701849D02*
X116169522Y-119854230D01*
X116169522Y-119854230D02*
X116474284Y-120006611D01*
X116474284Y-120006611D02*
X117693332Y-120006611D01*
X112359999Y-119397087D02*
X111598094Y-121530420D01*
X111598094Y-121530420D02*
X110836189Y-119397087D01*
X109007618Y-118330420D02*
X108702856Y-118330420D01*
X108702856Y-118330420D02*
X108398094Y-118482801D01*
X108398094Y-118482801D02*
X108245713Y-118635182D01*
X108245713Y-118635182D02*
X108093332Y-118939944D01*
X108093332Y-118939944D02*
X107940951Y-119549468D01*
X107940951Y-119549468D02*
X107940951Y-120311373D01*
X107940951Y-120311373D02*
X108093332Y-120920897D01*
X108093332Y-120920897D02*
X108245713Y-121225659D01*
X108245713Y-121225659D02*
X108398094Y-121378040D01*
X108398094Y-121378040D02*
X108702856Y-121530420D01*
X108702856Y-121530420D02*
X109007618Y-121530420D01*
X109007618Y-121530420D02*
X109312380Y-121378040D01*
X109312380Y-121378040D02*
X109464761Y-121225659D01*
X109464761Y-121225659D02*
X109617142Y-120920897D01*
X109617142Y-120920897D02*
X109769523Y-120311373D01*
X109769523Y-120311373D02*
X109769523Y-119549468D01*
X109769523Y-119549468D02*
X109617142Y-118939944D01*
X109617142Y-118939944D02*
X109464761Y-118635182D01*
X109464761Y-118635182D02*
X109312380Y-118482801D01*
X109312380Y-118482801D02*
X109007618Y-118330420D01*
X106569523Y-121225659D02*
X106417142Y-121378040D01*
X106417142Y-121378040D02*
X106569523Y-121530420D01*
X106569523Y-121530420D02*
X106721904Y-121378040D01*
X106721904Y-121378040D02*
X106569523Y-121225659D01*
X106569523Y-121225659D02*
X106569523Y-121530420D01*
X105350475Y-118330420D02*
X103217141Y-118330420D01*
X103217141Y-118330420D02*
X104588570Y-121530420D01*
M02*
