M48
; DRILL file KiCad 10.0.5 date 2026-08-11T11:25:45
; FORMAT={-:-/ absolute / metric / decimal}
; #@! TF.CreationDate,2026-08-11T11:25:45+02:00
; #@! TF.GenerationSoftware,Kicad,Pcbnew,10.0.5
; #@! TF.FileFunction,MixedPlating,1,2
FMAT,2
METRIC
; #@! TA.AperFunction,Plated,PTH,ViaDrill
T1C0.300
; #@! TA.AperFunction,Plated,PTH,ComponentDrill
T2C0.300
; #@! TA.AperFunction,Plated,PTH,ViaDrill
T3C0.400
; #@! TA.AperFunction,Plated,PTH,ComponentDrill
T4C0.400
; #@! TA.AperFunction,Plated,PTH,ComponentDrill
T5C0.600
; #@! TA.AperFunction,Plated,PTH,ComponentDrill
T6C0.800
; #@! TA.AperFunction,Plated,PTH,ComponentDrill
T7C0.950
; #@! TA.AperFunction,Plated,PTH,ComponentDrill
T8C1.000
; #@! TA.AperFunction,Plated,PTH,ComponentDrill
T9C1.100
; #@! TA.AperFunction,Plated,PTH,ComponentDrill
T10C1.200
; #@! TA.AperFunction,Plated,PTH,ComponentDrill
T11C1.300
; #@! TA.AperFunction,Plated,PTH,ComponentDrill
T12C1.500
; #@! TA.AperFunction,Plated,PTH,ComponentDrill
T13C2.300
; #@! TA.AperFunction,NonPlated,NPTH,ComponentDrill
T14C0.900
; #@! TA.AperFunction,NonPlated,NPTH,ComponentDrill
T15C1.200
; #@! TA.AperFunction,NonPlated,NPTH,ComponentDrill
T16C2.600
; #@! TA.AperFunction,NonPlated,NPTH,ComponentDrill
T17C3.200
%
G90
G05
T1
X59.846Y-70.511
X64.308Y-79.028
X65.148Y-74.49
X65.969Y-72.609
X68.01Y-76.87
X69.052Y-101.135
X70.129Y-114.201
X74.161Y-94.745
X74.262Y-115.085
X74.838Y-111.685
X75.449Y-84.314
X76.252Y-110.919
X77.152Y-90.222
X77.867Y-96.161
X77.898Y-96.913
X77.952Y-115.355
X77.958Y-112.488
X78.011Y-104.992
X78.114Y-111.181
X78.805Y-114.888
X78.984Y-97.816
X78.998Y-116.053
X79.558Y-91.021
X80.15Y-116.009
X80.971Y-87.373
X82.033Y-93.496
X82.851Y-89.451
X84.037Y-54.061
X84.323Y-88.309
X84.422Y-114.37
X85.595Y-109.237
X86.887Y-41.019
X87.873Y-82.656
X88.097Y-87.004
X88.885Y-103.973
X89.08Y-100.941
X89.129Y-91.133
X89.921Y-80.424
X90.246Y-104.056
X90.564Y-83.466
X93.26Y-84.044
X93.577Y-73.266
X94.163Y-102.797
X94.179Y-51.343
X98.628Y-41.882
X98.798Y-117.904
X103.332Y-39.075
X104.284Y-113.855
X105.57Y-111.892
X106.526Y-119.974
X107.212Y-61.279
X107.242Y-28.36
X108.217Y-18.564
X108.402Y-23.483
X109.146Y-81.303
X109.332Y-39.075
X109.428Y-86.202
X109.485Y-100.399
X109.728Y-109.34
X110.322Y-69.377
X112.754Y-84.275
X112.886Y-85.033
X113.268Y-89.544
X114.722Y-80.905
X118.08Y-27.049
X123.237Y-88.93
X154.073Y-83.442
X167.161Y-75.095
X169.744Y-63.637
X170.727Y-77.273
X172.703Y-66.591
X172.9Y-80.827
T2
X84.14Y-91.8
X84.14Y-93.2
X84.84Y-91.1
X84.84Y-92.5
X84.84Y-93.9
X85.54Y-91.8
X85.54Y-93.2
X86.24Y-91.1
X86.24Y-92.5
X86.24Y-93.9
X86.94Y-91.8
X86.94Y-93.2
X117.0Y-30.3
X117.0Y-31.0
X117.0Y-31.7
X118.0Y-30.3
X118.0Y-31.0
X118.0Y-31.7
X119.0Y-30.3
X119.0Y-31.0
X119.0Y-31.7
T3
X117.226Y-112.0
T4
X114.05Y-19.45
X114.05Y-20.8
X114.9Y-19.45
X114.9Y-20.8
X115.75Y-19.45
X115.75Y-20.8
X116.6Y-19.45
X116.6Y-20.8
X117.45Y-19.45
X117.45Y-20.8
X118.3Y-19.45
X118.3Y-20.8
X119.15Y-19.45
X119.15Y-20.8
X120.0Y-19.45
X120.0Y-20.8
T6
X53.048Y-92.196
X53.048Y-102.356
X53.233Y-55.387
X53.646Y-59.983
X53.646Y-64.983
X55.284Y-114.398
X56.964Y-107.024
X57.17Y-102.445
X57.284Y-114.398
X58.035Y-64.424
X58.102Y-89.522
X58.102Y-94.522
X60.194Y-83.899
X61.479Y-120.112
X61.479Y-125.112
X62.617Y-112.725
X62.982Y-89.522
X62.982Y-94.522
X63.035Y-64.424
X63.393Y-55.387
X64.617Y-112.725
X65.074Y-83.899
X67.124Y-107.024
X67.33Y-102.445
X70.898Y-64.477
X70.898Y-69.477
X71.531Y-92.864
X71.531Y-103.024
X76.949Y-65.22
X76.949Y-67.22
X77.076Y-108.936
X78.359Y-71.832
X78.359Y-81.992
X82.076Y-108.936
X83.328Y-71.441
X83.328Y-76.441
X83.423Y-81.064
X84.354Y-106.192
X87.152Y-114.575
X87.152Y-119.575
X87.353Y-110.48
X87.971Y-66.45
X87.971Y-76.61
X88.423Y-81.064
X89.354Y-106.192
X91.447Y-114.791
X91.447Y-124.951
X91.493Y-40.901
X91.493Y-51.061
X92.353Y-110.48
X92.875Y-76.864
X92.875Y-81.864
X96.385Y-47.041
X96.557Y-108.704
X96.587Y-63.272
X96.587Y-65.272
X99.44Y-80.115
X100.192Y-113.08
X100.192Y-123.24
X103.823Y-65.253
X103.823Y-75.413
X104.44Y-80.115
X105.059Y-51.289
X105.059Y-61.449
X106.545Y-47.041
X106.717Y-108.704
X108.382Y-76.976
X110.693Y-112.499
X110.96Y-97.504
X111.452Y-59.486
X111.452Y-64.486
X111.607Y-69.376
X111.607Y-71.876
X113.382Y-76.976
X115.693Y-112.499
X116.997Y-38.08
X117.506Y-76.798
X117.875Y-42.677
X117.875Y-52.837
X120.843Y-68.842
X120.843Y-71.342
X121.12Y-97.504
X122.118Y-101.922
X122.118Y-112.082
X122.506Y-76.798
X122.64Y-42.775
X122.64Y-52.935
X123.984Y-33.16
X126.15Y-20.8
X126.252Y-95.525
X127.157Y-38.08
X127.939Y-76.069
X128.65Y-20.8
X128.752Y-95.525
X128.984Y-33.16
X129.939Y-76.069
X134.051Y-85.238
X136.551Y-85.238
X147.9Y-66.0
X147.9Y-72.0
X147.9Y-78.0
X147.9Y-85.0
X147.9Y-97.0
X147.9Y-109.0
X151.22Y-89.653
X152.433Y-50.944
X152.433Y-61.104
X157.028Y-52.916
X157.028Y-57.996
X157.778Y-43.987
X157.778Y-48.987
X158.06Y-66.0
X158.06Y-72.0
X158.06Y-78.0
X158.06Y-85.0
X158.06Y-97.0
X158.06Y-109.0
X161.38Y-89.653
X162.0Y-41.0
X162.0Y-45.0
X164.222Y-71.552
X167.055Y-50.17
X169.302Y-71.552
X172.16Y-41.0
X172.16Y-45.0
X176.502Y-71.484
X176.502Y-76.564
X176.951Y-80.798
X176.951Y-85.798
X177.004Y-91.556
X177.004Y-96.556
X177.215Y-50.17
T7
X70.0Y-120.7
X72.5Y-120.7
X74.5Y-120.7
X77.0Y-120.7
T8
X81.103Y-41.009
X86.323Y-45.959
X98.798Y-70.219
X99.042Y-75.415
X106.0Y-85.8
X106.0Y-88.34
X106.0Y-90.88
X106.0Y-93.42
X106.0Y-95.96
X106.0Y-98.5
X106.0Y-101.04
X106.0Y-103.58
X106.404Y-113.464
X107.0Y-31.0
X107.0Y-33.54
X107.0Y-36.08
X111.318Y-25.982
X120.04Y-116.493
X127.182Y-108.56
X161.5Y-58.5
X161.5Y-61.0
X161.5Y-63.5
X176.0Y-58.5
X176.0Y-63.5
T9
X134.0Y-22.0
X134.0Y-26.5
X134.0Y-30.0
X134.0Y-34.5
X140.5Y-22.0
X140.5Y-26.5
X140.5Y-30.0
X140.5Y-34.5
X165.75Y-88.75
X165.75Y-93.25
X165.75Y-100.75
X165.75Y-105.25
X165.75Y-112.75
X165.75Y-117.25
X172.25Y-88.75
X172.25Y-93.25
X172.25Y-100.75
X172.25Y-105.25
X172.25Y-112.75
X172.25Y-117.25
T11
X114.239Y-87.069
X114.239Y-92.069
X122.551Y-85.238
X127.551Y-85.238
T13
X66.93Y-123.41
X80.07Y-123.41
T14
X167.656Y-77.656
T15
X170.344Y-80.344
T16
X66.0Y-27.0
X98.0Y-27.0
T17
X55.0Y-20.0
X55.0Y-125.0
X175.0Y-20.0
X175.0Y-125.0
T5
X112.7Y-16.84G85X112.7Y-16.04
G05
X112.7Y-20.57G85X112.7Y-19.07
G05
X121.35Y-16.84G85X121.35Y-16.04
G05
X121.35Y-20.57G85X121.35Y-19.07
G05
T10
X68.0Y-21.8G85X68.0Y-23.6
G05
X68.0Y-30.4G85X68.0Y-32.2
G05
X72.0Y-21.8G85X72.0Y-23.6
G05
X72.0Y-30.4G85X72.0Y-32.2
G05
X76.0Y-21.8G85X76.0Y-23.6
G05
X76.0Y-30.4G85X76.0Y-32.2
G05
X80.0Y-21.8G85X80.0Y-23.6
G05
X80.0Y-30.4G85X80.0Y-32.2
G05
X84.0Y-21.8G85X84.0Y-23.6
G05
X84.0Y-30.4G85X84.0Y-32.2
G05
X88.0Y-21.8G85X88.0Y-23.6
G05
X88.0Y-30.4G85X88.0Y-32.2
G05
X92.0Y-21.8G85X92.0Y-23.6
G05
X92.0Y-30.4G85X92.0Y-32.2
G05
X96.0Y-21.8G85X96.0Y-23.6
G05
X96.0Y-30.4G85X96.0Y-32.2
G05
T12
X168.35Y-55.4G85X169.65Y-55.4
G05
X168.35Y-66.6G85X169.65Y-66.6
G05
M30
