%TF.GenerationSoftware,KiCad,Pcbnew,10.0.5*%
%TF.CreationDate,2026-08-11T11:25:45+02:00*%
%TF.ProjectId,obd2-simulator,6f626432-2d73-4696-9d75-6c61746f722e,rev?*%
%TF.SameCoordinates,Original*%
%TF.FileFunction,OtherDrawing,Comment*%
%FSLAX46Y46*%
G04 Gerber Fmt 4.6, Leading zero omitted, Abs format (unit mm)*
G04 Created by KiCad (PCBNEW 10.0.5) date 2026-08-11 11:25:45*
%MOMM*%
%LPD*%
G01*
G04 APERTURE LIST*
%ADD10C,0.100000*%
G04 APERTURE END LIST*
D10*
X115310714Y-14926109D02*
X115310714Y-14426109D01*
X115310714Y-14426109D02*
X115501190Y-14426109D01*
X115501190Y-14426109D02*
X115548809Y-14449919D01*
X115548809Y-14449919D02*
X115572619Y-14473728D01*
X115572619Y-14473728D02*
X115596428Y-14521347D01*
X115596428Y-14521347D02*
X115596428Y-14592776D01*
X115596428Y-14592776D02*
X115572619Y-14640395D01*
X115572619Y-14640395D02*
X115548809Y-14664204D01*
X115548809Y-14664204D02*
X115501190Y-14688014D01*
X115501190Y-14688014D02*
X115310714Y-14688014D01*
X116096428Y-14878490D02*
X116072619Y-14902300D01*
X116072619Y-14902300D02*
X116001190Y-14926109D01*
X116001190Y-14926109D02*
X115953571Y-14926109D01*
X115953571Y-14926109D02*
X115882143Y-14902300D01*
X115882143Y-14902300D02*
X115834524Y-14854680D01*
X115834524Y-14854680D02*
X115810714Y-14807061D01*
X115810714Y-14807061D02*
X115786905Y-14711823D01*
X115786905Y-14711823D02*
X115786905Y-14640395D01*
X115786905Y-14640395D02*
X115810714Y-14545157D01*
X115810714Y-14545157D02*
X115834524Y-14497538D01*
X115834524Y-14497538D02*
X115882143Y-14449919D01*
X115882143Y-14449919D02*
X115953571Y-14426109D01*
X115953571Y-14426109D02*
X116001190Y-14426109D01*
X116001190Y-14426109D02*
X116072619Y-14449919D01*
X116072619Y-14449919D02*
X116096428Y-14473728D01*
X116477381Y-14664204D02*
X116548809Y-14688014D01*
X116548809Y-14688014D02*
X116572619Y-14711823D01*
X116572619Y-14711823D02*
X116596428Y-14759442D01*
X116596428Y-14759442D02*
X116596428Y-14830871D01*
X116596428Y-14830871D02*
X116572619Y-14878490D01*
X116572619Y-14878490D02*
X116548809Y-14902300D01*
X116548809Y-14902300D02*
X116501190Y-14926109D01*
X116501190Y-14926109D02*
X116310714Y-14926109D01*
X116310714Y-14926109D02*
X116310714Y-14426109D01*
X116310714Y-14426109D02*
X116477381Y-14426109D01*
X116477381Y-14426109D02*
X116525000Y-14449919D01*
X116525000Y-14449919D02*
X116548809Y-14473728D01*
X116548809Y-14473728D02*
X116572619Y-14521347D01*
X116572619Y-14521347D02*
X116572619Y-14568966D01*
X116572619Y-14568966D02*
X116548809Y-14616585D01*
X116548809Y-14616585D02*
X116525000Y-14640395D01*
X116525000Y-14640395D02*
X116477381Y-14664204D01*
X116477381Y-14664204D02*
X116310714Y-14664204D01*
X117191666Y-14664204D02*
X117358333Y-14664204D01*
X117429761Y-14926109D02*
X117191666Y-14926109D01*
X117191666Y-14926109D02*
X117191666Y-14426109D01*
X117191666Y-14426109D02*
X117429761Y-14426109D01*
X117858333Y-14926109D02*
X117858333Y-14426109D01*
X117858333Y-14902300D02*
X117810714Y-14926109D01*
X117810714Y-14926109D02*
X117715476Y-14926109D01*
X117715476Y-14926109D02*
X117667857Y-14902300D01*
X117667857Y-14902300D02*
X117644047Y-14878490D01*
X117644047Y-14878490D02*
X117620238Y-14830871D01*
X117620238Y-14830871D02*
X117620238Y-14688014D01*
X117620238Y-14688014D02*
X117644047Y-14640395D01*
X117644047Y-14640395D02*
X117667857Y-14616585D01*
X117667857Y-14616585D02*
X117715476Y-14592776D01*
X117715476Y-14592776D02*
X117810714Y-14592776D01*
X117810714Y-14592776D02*
X117858333Y-14616585D01*
X118310714Y-14592776D02*
X118310714Y-14997538D01*
X118310714Y-14997538D02*
X118286904Y-15045157D01*
X118286904Y-15045157D02*
X118263095Y-15068966D01*
X118263095Y-15068966D02*
X118215476Y-15092776D01*
X118215476Y-15092776D02*
X118144047Y-15092776D01*
X118144047Y-15092776D02*
X118096428Y-15068966D01*
X118310714Y-14902300D02*
X118263095Y-14926109D01*
X118263095Y-14926109D02*
X118167857Y-14926109D01*
X118167857Y-14926109D02*
X118120238Y-14902300D01*
X118120238Y-14902300D02*
X118096428Y-14878490D01*
X118096428Y-14878490D02*
X118072619Y-14830871D01*
X118072619Y-14830871D02*
X118072619Y-14688014D01*
X118072619Y-14688014D02*
X118096428Y-14640395D01*
X118096428Y-14640395D02*
X118120238Y-14616585D01*
X118120238Y-14616585D02*
X118167857Y-14592776D01*
X118167857Y-14592776D02*
X118263095Y-14592776D01*
X118263095Y-14592776D02*
X118310714Y-14616585D01*
X118739285Y-14902300D02*
X118691666Y-14926109D01*
X118691666Y-14926109D02*
X118596428Y-14926109D01*
X118596428Y-14926109D02*
X118548809Y-14902300D01*
X118548809Y-14902300D02*
X118525000Y-14854680D01*
X118525000Y-14854680D02*
X118525000Y-14664204D01*
X118525000Y-14664204D02*
X118548809Y-14616585D01*
X118548809Y-14616585D02*
X118596428Y-14592776D01*
X118596428Y-14592776D02*
X118691666Y-14592776D01*
X118691666Y-14592776D02*
X118739285Y-14616585D01*
X118739285Y-14616585D02*
X118763095Y-14664204D01*
X118763095Y-14664204D02*
X118763095Y-14711823D01*
X118763095Y-14711823D02*
X118525000Y-14759442D01*
M02*
