%TF.GenerationSoftware,KiCad,Pcbnew,10.0.5*%
%TF.CreationDate,2026-08-11T11:25:45+02:00*%
%TF.ProjectId,obd2-simulator,6f626432-2d73-4696-9d75-6c61746f722e,rev?*%
%TF.SameCoordinates,Original*%
%TF.FileFunction,Other,Comment*%
%FSLAX46Y46*%
G04 Gerber Fmt 4.6, Leading zero omitted, Abs format (unit mm)*
G04 Created by KiCad (PCBNEW 10.0.5) date 2026-08-11 11:25:45*
%MOMM*%
%LPD*%
G01*
G04 APERTURE LIST*
%ADD10C,0.150000*%
%ADD11C,0.400000*%
%ADD12C,0.360000*%
%ADD13C,0.480000*%
G04 APERTURE END LIST*
D10*
X97609104Y-96711904D02*
X97609104Y-96235714D01*
X97894819Y-96807142D02*
X96894819Y-96473809D01*
X96894819Y-96473809D02*
X97894819Y-96140476D01*
X97228152Y-95807142D02*
X97894819Y-95807142D01*
X97323390Y-95807142D02*
X97275771Y-95759523D01*
X97275771Y-95759523D02*
X97228152Y-95664285D01*
X97228152Y-95664285D02*
X97228152Y-95521428D01*
X97228152Y-95521428D02*
X97275771Y-95426190D01*
X97275771Y-95426190D02*
X97371009Y-95378571D01*
X97371009Y-95378571D02*
X97894819Y-95378571D01*
X97228152Y-95045237D02*
X97228152Y-94664285D01*
X96894819Y-94902380D02*
X97751961Y-94902380D01*
X97751961Y-94902380D02*
X97847200Y-94854761D01*
X97847200Y-94854761D02*
X97894819Y-94759523D01*
X97894819Y-94759523D02*
X97894819Y-94664285D01*
X97847200Y-93949999D02*
X97894819Y-94045237D01*
X97894819Y-94045237D02*
X97894819Y-94235713D01*
X97894819Y-94235713D02*
X97847200Y-94330951D01*
X97847200Y-94330951D02*
X97751961Y-94378570D01*
X97751961Y-94378570D02*
X97371009Y-94378570D01*
X97371009Y-94378570D02*
X97275771Y-94330951D01*
X97275771Y-94330951D02*
X97228152Y-94235713D01*
X97228152Y-94235713D02*
X97228152Y-94045237D01*
X97228152Y-94045237D02*
X97275771Y-93949999D01*
X97275771Y-93949999D02*
X97371009Y-93902380D01*
X97371009Y-93902380D02*
X97466247Y-93902380D01*
X97466247Y-93902380D02*
X97561485Y-94378570D01*
X97228152Y-93473808D02*
X97894819Y-93473808D01*
X97323390Y-93473808D02*
X97275771Y-93426189D01*
X97275771Y-93426189D02*
X97228152Y-93330951D01*
X97228152Y-93330951D02*
X97228152Y-93188094D01*
X97228152Y-93188094D02*
X97275771Y-93092856D01*
X97275771Y-93092856D02*
X97371009Y-93045237D01*
X97371009Y-93045237D02*
X97894819Y-93045237D01*
X97228152Y-92569046D02*
X97894819Y-92569046D01*
X97323390Y-92569046D02*
X97275771Y-92521427D01*
X97275771Y-92521427D02*
X97228152Y-92426189D01*
X97228152Y-92426189D02*
X97228152Y-92283332D01*
X97228152Y-92283332D02*
X97275771Y-92188094D01*
X97275771Y-92188094D02*
X97371009Y-92140475D01*
X97371009Y-92140475D02*
X97894819Y-92140475D01*
X97894819Y-91235713D02*
X97371009Y-91235713D01*
X97371009Y-91235713D02*
X97275771Y-91283332D01*
X97275771Y-91283332D02*
X97228152Y-91378570D01*
X97228152Y-91378570D02*
X97228152Y-91569046D01*
X97228152Y-91569046D02*
X97275771Y-91664284D01*
X97847200Y-91235713D02*
X97894819Y-91330951D01*
X97894819Y-91330951D02*
X97894819Y-91569046D01*
X97894819Y-91569046D02*
X97847200Y-91664284D01*
X97847200Y-91664284D02*
X97751961Y-91711903D01*
X97751961Y-91711903D02*
X97656723Y-91711903D01*
X97656723Y-91711903D02*
X97561485Y-91664284D01*
X97561485Y-91664284D02*
X97513866Y-91569046D01*
X97513866Y-91569046D02*
X97513866Y-91330951D01*
X97513866Y-91330951D02*
X97466247Y-91235713D01*
X107837438Y-106142857D02*
X105837438Y-106142857D01*
X107837438Y-105000000D02*
X106694580Y-105857143D01*
X105837438Y-105000000D02*
X106980295Y-106142857D01*
X106789819Y-104142857D02*
X106789819Y-103476190D01*
X107837438Y-103190476D02*
X107837438Y-104142857D01*
X107837438Y-104142857D02*
X105837438Y-104142857D01*
X105837438Y-104142857D02*
X105837438Y-103190476D01*
X106789819Y-102333333D02*
X106789819Y-101666666D01*
X107837438Y-101380952D02*
X107837438Y-102333333D01*
X107837438Y-102333333D02*
X105837438Y-102333333D01*
X105837438Y-102333333D02*
X105837438Y-101380952D01*
X107837438Y-100523809D02*
X105837438Y-100523809D01*
X105837438Y-100523809D02*
X105837438Y-99761904D01*
X105837438Y-99761904D02*
X105932676Y-99571428D01*
X105932676Y-99571428D02*
X106027914Y-99476190D01*
X106027914Y-99476190D02*
X106218390Y-99380952D01*
X106218390Y-99380952D02*
X106504104Y-99380952D01*
X106504104Y-99380952D02*
X106694580Y-99476190D01*
X106694580Y-99476190D02*
X106789819Y-99571428D01*
X106789819Y-99571428D02*
X106885057Y-99761904D01*
X106885057Y-99761904D02*
X106885057Y-100523809D01*
X107075533Y-98523809D02*
X107075533Y-97000000D01*
X105837438Y-95666667D02*
X105837438Y-95285714D01*
X105837438Y-95285714D02*
X105932676Y-95095238D01*
X105932676Y-95095238D02*
X106123152Y-94904762D01*
X106123152Y-94904762D02*
X106504104Y-94809524D01*
X106504104Y-94809524D02*
X107170771Y-94809524D01*
X107170771Y-94809524D02*
X107551723Y-94904762D01*
X107551723Y-94904762D02*
X107742200Y-95095238D01*
X107742200Y-95095238D02*
X107837438Y-95285714D01*
X107837438Y-95285714D02*
X107837438Y-95666667D01*
X107837438Y-95666667D02*
X107742200Y-95857143D01*
X107742200Y-95857143D02*
X107551723Y-96047619D01*
X107551723Y-96047619D02*
X107170771Y-96142857D01*
X107170771Y-96142857D02*
X106504104Y-96142857D01*
X106504104Y-96142857D02*
X106123152Y-96047619D01*
X106123152Y-96047619D02*
X105932676Y-95857143D01*
X105932676Y-95857143D02*
X105837438Y-95666667D01*
X105837438Y-93952381D02*
X107456485Y-93952381D01*
X107456485Y-93952381D02*
X107646961Y-93857143D01*
X107646961Y-93857143D02*
X107742200Y-93761905D01*
X107742200Y-93761905D02*
X107837438Y-93571429D01*
X107837438Y-93571429D02*
X107837438Y-93190476D01*
X107837438Y-93190476D02*
X107742200Y-93000000D01*
X107742200Y-93000000D02*
X107646961Y-92904762D01*
X107646961Y-92904762D02*
X107456485Y-92809524D01*
X107456485Y-92809524D02*
X105837438Y-92809524D01*
X105837438Y-92142857D02*
X105837438Y-91000000D01*
X107837438Y-91571429D02*
X105837438Y-91571429D01*
X105837438Y-88999999D02*
X105837438Y-87666666D01*
X105837438Y-87666666D02*
X107837438Y-88999999D01*
X107837438Y-88999999D02*
X107837438Y-87666666D01*
X105837438Y-86523809D02*
X105837438Y-86142856D01*
X105837438Y-86142856D02*
X105932676Y-85952380D01*
X105932676Y-85952380D02*
X106123152Y-85761904D01*
X106123152Y-85761904D02*
X106504104Y-85666666D01*
X106504104Y-85666666D02*
X107170771Y-85666666D01*
X107170771Y-85666666D02*
X107551723Y-85761904D01*
X107551723Y-85761904D02*
X107742200Y-85952380D01*
X107742200Y-85952380D02*
X107837438Y-86142856D01*
X107837438Y-86142856D02*
X107837438Y-86523809D01*
X107837438Y-86523809D02*
X107742200Y-86714285D01*
X107742200Y-86714285D02*
X107551723Y-86904761D01*
X107551723Y-86904761D02*
X107170771Y-86999999D01*
X107170771Y-86999999D02*
X106504104Y-86999999D01*
X106504104Y-86999999D02*
X106123152Y-86904761D01*
X106123152Y-86904761D02*
X105932676Y-86714285D01*
X105932676Y-86714285D02*
X105837438Y-86523809D01*
X107837438Y-84809523D02*
X105837438Y-84809523D01*
X105837438Y-84809523D02*
X107837438Y-83666666D01*
X107837438Y-83666666D02*
X105837438Y-83666666D01*
X106789819Y-82714285D02*
X106789819Y-82047618D01*
X107837438Y-81761904D02*
X107837438Y-82714285D01*
X107837438Y-82714285D02*
X105837438Y-82714285D01*
X105837438Y-82714285D02*
X105837438Y-81761904D01*
%TO.C,SW6*%
D11*
X165572542Y-80393000D02*
G75*
G02*
X165172542Y-80393000I-200000J0D01*
G01*
X165172542Y-80393000D02*
G75*
G02*
X165572542Y-80393000I200000J0D01*
G01*
D12*
X167836497Y-77656497D02*
G75*
G02*
X167476497Y-77656497I-180000J0D01*
G01*
X167476497Y-77656497D02*
G75*
G02*
X167836497Y-77656497I180000J0D01*
G01*
D13*
X170583504Y-80343503D02*
G75*
G02*
X170103502Y-80343503I-240001J0D01*
G01*
X170103502Y-80343503D02*
G75*
G02*
X170583504Y-80343503I240001J0D01*
G01*
%TO.C,H1*%
D10*
X58200000Y-125000000D02*
G75*
G02*
X51800000Y-125000000I-3200000J0D01*
G01*
X51800000Y-125000000D02*
G75*
G02*
X58200000Y-125000000I3200000J0D01*
G01*
%TO.C,H4*%
X58200000Y-20000000D02*
G75*
G02*
X51800000Y-20000000I-3200000J0D01*
G01*
X51800000Y-20000000D02*
G75*
G02*
X58200000Y-20000000I3200000J0D01*
G01*
%TO.C,H2*%
X178200000Y-125000000D02*
G75*
G02*
X171800000Y-125000000I-3200000J0D01*
G01*
X171800000Y-125000000D02*
G75*
G02*
X178200000Y-125000000I3200000J0D01*
G01*
%TO.C,H3*%
X178200000Y-20000000D02*
G75*
G02*
X171800000Y-20000000I-3200000J0D01*
G01*
X171800000Y-20000000D02*
G75*
G02*
X178200000Y-20000000I3200000J0D01*
G01*
%TD*%
M02*
