#VRML V2.0 utf8
# BI Technologies EN11-HSB1AQ20, 11 mm incremental encoder with a push-button.
# Generated by scripts/gen_3dmodels.py. The footprint is the stock KiCad
# RotaryEncoder_Alps_EC11E-Switch_Vertical_H20mm, which has no 3D model attached
# in KiCad 10. Body 12.0 x 11.6 mm, shaft axis at (7.5, 2.5) mm from the
# footprint origin, 6 mm shaft with a flat, 20 mm above the mounting surface.
# The VRML unit in KiCad is 0.1 inch = 2.54 mm, the Y axis opposite to KiCad's.

Transform {
  children [
    Shape {
      appearance Appearance {
        material Material { diffuseColor 0.085 0.085 0.095 specularColor 0.055 0.055 0.060 shininess 0.20 }
      }
      geometry IndexedFaceSet {
        creaseAngle 1.05
        coord Coordinate { point [
          5.3150 0.9843 0.0000,
          5.2995 1.0816 0.0000,
          5.2548 1.1694 0.0000,
          5.1851 1.2391 0.0000,
          5.0973 1.2838 0.0000,
          5.0000 1.2992 0.0000,
          0.9055 1.2992 0.0000,
          0.8082 1.2838 0.0000,
          0.7204 1.2391 0.0000,
          0.6507 1.1694 0.0000,
          0.6060 1.0816 0.0000,
          0.5906 0.9843 0.0000,
          0.5906 -2.9528 0.0000,
          0.6060 -3.0501 0.0000,
          0.6507 -3.1379 0.0000,
          0.7204 -3.2076 0.0000,
          0.8082 -3.2523 0.0000,
          0.9055 -3.2677 0.0000,
          5.0000 -3.2677 0.0000,
          5.0973 -3.2523 0.0000,
          5.1851 -3.2076 0.0000,
          5.2548 -3.1379 0.0000,
          5.2995 -3.0501 0.0000,
          5.3150 -2.9528 0.0000,
          5.3150 0.9843 0.5512,
          5.2995 1.0816 0.5512,
          5.2548 1.1694 0.5512,
          5.1851 1.2391 0.5512,
          5.0973 1.2838 0.5512,
          5.0000 1.2992 0.5512,
          0.9055 1.2992 0.5512,
          0.8082 1.2838 0.5512,
          0.7204 1.2391 0.5512,
          0.6507 1.1694 0.5512,
          0.6060 1.0816 0.5512,
          0.5906 0.9843 0.5512,
          0.5906 -2.9528 0.5512,
          0.6060 -3.0501 0.5512,
          0.6507 -3.1379 0.5512,
          0.7204 -3.2076 0.5512,
          0.8082 -3.2523 0.5512,
          0.9055 -3.2677 0.5512,
          5.0000 -3.2677 0.5512,
          5.0973 -3.2523 0.5512,
          5.1851 -3.2076 0.5512,
          5.2548 -3.1379 0.5512,
          5.2995 -3.0501 0.5512,
          5.3150 -2.9528 0.5512
        ] }
        coordIndex [
          0, 1, 25, 24, -1,
          1, 2, 26, 25, -1,
          2, 3, 27, 26, -1,
          3, 4, 28, 27, -1,
          4, 5, 29, 28, -1,
          5, 6, 30, 29, -1,
          6, 7, 31, 30, -1,
          7, 8, 32, 31, -1,
          8, 9, 33, 32, -1,
          9, 10, 34, 33, -1,
          10, 11, 35, 34, -1,
          11, 12, 36, 35, -1,
          12, 13, 37, 36, -1,
          13, 14, 38, 37, -1,
          14, 15, 39, 38, -1,
          15, 16, 40, 39, -1,
          16, 17, 41, 40, -1,
          17, 18, 42, 41, -1,
          18, 19, 43, 42, -1,
          19, 20, 44, 43, -1,
          20, 21, 45, 44, -1,
          21, 22, 46, 45, -1,
          22, 23, 47, 46, -1,
          23, 0, 24, 47, -1,
          24, 25, 26, 27, 28, 29, 30, 31, 32, 33, 34, 35, 36, 37, 38, 39, 40, 41, 42, 43, 44, 45, 46, 47, -1,
          23, 22, 21, 20, 19, 18, 17, 16, 15, 14, 13, 12, 11, 10, 9, 8, 7, 6, 5, 4, 3, 2, 1, 0, -1
        ]
      }
    }
  ]
}

Transform {
  children [
    Shape {
      appearance Appearance {
        material Material { diffuseColor 0.640 0.650 0.665 specularColor 0.400 0.400 0.420 shininess 0.50 }
      }
      geometry IndexedFaceSet {
        creaseAngle 1.05
        coord Coordinate { point [
          5.3150 0.8268 0.5512,
          5.2918 0.9728 0.5512,
          5.2247 1.1045 0.5512,
          5.1202 1.2090 0.5512,
          4.9885 1.2761 0.5512,
          4.8425 1.2992 0.5512,
          1.0630 1.2992 0.5512,
          0.9170 1.2761 0.5512,
          0.7853 1.2090 0.5512,
          0.6808 1.1045 0.5512,
          0.6137 0.9728 0.5512,
          0.5906 0.8268 0.5512,
          0.5906 -2.7953 0.5512,
          0.6137 -2.9413 0.5512,
          0.6808 -3.0730 0.5512,
          0.7853 -3.1775 0.5512,
          0.9170 -3.2446 0.5512,
          1.0630 -3.2677 0.5512,
          4.8425 -3.2677 0.5512,
          4.9885 -3.2446 0.5512,
          5.1202 -3.1775 0.5512,
          5.2247 -3.0730 0.5512,
          5.2918 -2.9413 0.5512,
          5.3150 -2.7953 0.5512,
          5.3150 0.8268 2.5591,
          5.2918 0.9728 2.5591,
          5.2247 1.1045 2.5591,
          5.1202 1.2090 2.5591,
          4.9885 1.2761 2.5591,
          4.8425 1.2992 2.5591,
          1.0630 1.2992 2.5591,
          0.9170 1.2761 2.5591,
          0.7853 1.2090 2.5591,
          0.6808 1.1045 2.5591,
          0.6137 0.9728 2.5591,
          0.5906 0.8268 2.5591,
          0.5906 -2.7953 2.5591,
          0.6137 -2.9413 2.5591,
          0.6808 -3.0730 2.5591,
          0.7853 -3.1775 2.5591,
          0.9170 -3.2446 2.5591,
          1.0630 -3.2677 2.5591,
          4.8425 -3.2677 2.5591,
          4.9885 -3.2446 2.5591,
          5.1202 -3.1775 2.5591,
          5.2247 -3.0730 2.5591,
          5.2918 -2.9413 2.5591,
          5.3150 -2.7953 2.5591
        ] }
        coordIndex [
          0, 1, 25, 24, -1,
          1, 2, 26, 25, -1,
          2, 3, 27, 26, -1,
          3, 4, 28, 27, -1,
          4, 5, 29, 28, -1,
          5, 6, 30, 29, -1,
          6, 7, 31, 30, -1,
          7, 8, 32, 31, -1,
          8, 9, 33, 32, -1,
          9, 10, 34, 33, -1,
          10, 11, 35, 34, -1,
          11, 12, 36, 35, -1,
          12, 13, 37, 36, -1,
          13, 14, 38, 37, -1,
          14, 15, 39, 38, -1,
          15, 16, 40, 39, -1,
          16, 17, 41, 40, -1,
          17, 18, 42, 41, -1,
          18, 19, 43, 42, -1,
          19, 20, 44, 43, -1,
          20, 21, 45, 44, -1,
          21, 22, 46, 45, -1,
          22, 23, 47, 46, -1,
          23, 0, 24, 47, -1,
          24, 25, 26, 27, 28, 29, 30, 31, 32, 33, 34, 35, 36, 37, 38, 39, 40, 41, 42, 43, 44, 45, 46, 47, -1,
          23, 22, 21, 20, 19, 18, 17, 16, 15, 14, 13, 12, 11, 10, 9, 8, 7, 6, 5, 4, 3, 2, 1, 0, -1
        ]
      }
    }
  ]
}

Transform {
  children [
    Shape {
      appearance Appearance {
        material Material { diffuseColor 0.520 0.530 0.545 specularColor 0.320 0.320 0.340 shininess 0.42 }
      }
      geometry IndexedFaceSet {
        creaseAngle 1.05
        coord Coordinate { point [
          5.1772 0.7677 2.3228,
          5.1579 0.8894 2.3228,
          5.1020 0.9991 2.3228,
          5.0149 1.0862 2.3228,
          4.9051 1.1421 2.3228,
          4.7835 1.1614 2.3228,
          1.1220 1.1614 2.3228,
          1.0004 1.1421 2.3228,
          0.8906 1.0862 2.3228,
          0.8035 0.9991 2.3228,
          0.7476 0.8894 2.3228,
          0.7283 0.7677 2.3228,
          0.7283 -2.7362 2.3228,
          0.7476 -2.8579 2.3228,
          0.8035 -2.9676 2.3228,
          0.8906 -3.0547 2.3228,
          1.0004 -3.1107 2.3228,
          1.1220 -3.1299 2.3228,
          4.7835 -3.1299 2.3228,
          4.9051 -3.1107 2.3228,
          5.0149 -3.0547 2.3228,
          5.1020 -2.9676 2.3228,
          5.1579 -2.8579 2.3228,
          5.1772 -2.7362 2.3228,
          5.1772 0.7677 2.6181,
          5.1579 0.8894 2.6181,
          5.1020 0.9991 2.6181,
          5.0149 1.0862 2.6181,
          4.9051 1.1421 2.6181,
          4.7835 1.1614 2.6181,
          1.1220 1.1614 2.6181,
          1.0004 1.1421 2.6181,
          0.8906 1.0862 2.6181,
          0.8035 0.9991 2.6181,
          0.7476 0.8894 2.6181,
          0.7283 0.7677 2.6181,
          0.7283 -2.7362 2.6181,
          0.7476 -2.8579 2.6181,
          0.8035 -2.9676 2.6181,
          0.8906 -3.0547 2.6181,
          1.0004 -3.1107 2.6181,
          1.1220 -3.1299 2.6181,
          4.7835 -3.1299 2.6181,
          4.9051 -3.1107 2.6181,
          5.0149 -3.0547 2.6181,
          5.1020 -2.9676 2.6181,
          5.1579 -2.8579 2.6181,
          5.1772 -2.7362 2.6181
        ] }
        coordIndex [
          0, 1, 25, 24, -1,
          1, 2, 26, 25, -1,
          2, 3, 27, 26, -1,
          3, 4, 28, 27, -1,
          4, 5, 29, 28, -1,
          5, 6, 30, 29, -1,
          6, 7, 31, 30, -1,
          7, 8, 32, 31, -1,
          8, 9, 33, 32, -1,
          9, 10, 34, 33, -1,
          10, 11, 35, 34, -1,
          11, 12, 36, 35, -1,
          12, 13, 37, 36, -1,
          13, 14, 38, 37, -1,
          14, 15, 39, 38, -1,
          15, 16, 40, 39, -1,
          16, 17, 41, 40, -1,
          17, 18, 42, 41, -1,
          18, 19, 43, 42, -1,
          19, 20, 44, 43, -1,
          20, 21, 45, 44, -1,
          21, 22, 46, 45, -1,
          22, 23, 47, 46, -1,
          23, 0, 24, 47, -1,
          24, 25, 26, 27, 28, 29, 30, 31, 32, 33, 34, 35, 36, 37, 38, 39, 40, 41, 42, 43, 44, 45, 46, 47, -1,
          23, 22, 21, 20, 19, 18, 17, 16, 15, 14, 13, 12, 11, 10, 9, 8, 7, 6, 5, 4, 3, 2, 1, 0, -1
        ]
      }
    }
  ]
}

Transform {
  children [
    Shape {
      appearance Appearance {
        material Material { diffuseColor 0.520 0.530 0.545 specularColor 0.320 0.320 0.340 shininess 0.42 }
      }
      geometry IndexedFaceSet {
        creaseAngle 1.05
        coord Coordinate { point [
          2.2441 1.2992 -0.6299,
          3.6614 1.2992 -0.6299,
          3.6614 1.4961 -0.6299,
          2.2441 1.4961 -0.6299,
          2.2441 1.2992 1.2598,
          3.6614 1.2992 1.2598,
          3.6614 1.4961 1.2598,
          2.2441 1.4961 1.2598
        ] }
        coordIndex [
          0, 1, 5, 4, -1,
          1, 2, 6, 5, -1,
          2, 3, 7, 6, -1,
          3, 0, 4, 7, -1,
          4, 5, 6, 7, -1,
          3, 2, 1, 0, -1
        ]
      }
    }
  ]
}

Transform {
  children [
    Shape {
      appearance Appearance {
        material Material { diffuseColor 0.520 0.530 0.545 specularColor 0.320 0.320 0.340 shininess 0.42 }
      }
      geometry IndexedFaceSet {
        creaseAngle 1.05
        coord Coordinate { point [
          2.2441 -3.4646 -0.6299,
          3.6614 -3.4646 -0.6299,
          3.6614 -3.2677 -0.6299,
          2.2441 -3.2677 -0.6299,
          2.2441 -3.4646 1.2598,
          3.6614 -3.4646 1.2598,
          3.6614 -3.2677 1.2598,
          2.2441 -3.2677 1.2598
        ] }
        coordIndex [
          0, 1, 5, 4, -1,
          1, 2, 6, 5, -1,
          2, 3, 7, 6, -1,
          3, 0, 4, 7, -1,
          4, 5, 6, 7, -1,
          3, 2, 1, 0, -1
        ]
      }
    }
  ]
}

Transform {
  children [
    Shape {
      appearance Appearance {
        material Material { diffuseColor 0.640 0.650 0.665 specularColor 0.400 0.400 0.420 shininess 0.50 }
      }
      geometry IndexedFaceSet {
        creaseAngle 1.05
        coord Coordinate { point [
          4.4169 -0.5919 2.6181,
          4.2654 -0.2264 2.6181,
          4.0246 0.0875 2.6181,
          3.7106 0.3284 2.6181,
          3.3451 0.4798 2.6181,
          2.9528 0.5315 2.6181,
          2.5605 0.4798 2.6181,
          2.1949 0.3284 2.6181,
          1.8810 0.0875 2.6181,
          1.6401 -0.2264 2.6181,
          1.4887 -0.5919 2.6181,
          1.4370 -0.9843 2.6181,
          1.4887 -1.3766 2.6181,
          1.6401 -1.7421 2.6181,
          1.8810 -2.0560 2.6181,
          2.1949 -2.2969 2.6181,
          2.5605 -2.4484 2.6181,
          2.9528 -2.5000 2.6181,
          3.3451 -2.4484 2.6181,
          3.7106 -2.2969 2.6181,
          4.0246 -2.0560 2.6181,
          4.2654 -1.7421 2.6181,
          4.4169 -1.3766 2.6181,
          4.4685 -0.9843 2.6181,
          4.4169 -0.5919 2.8543,
          4.2654 -0.2264 2.8543,
          4.0246 0.0875 2.8543,
          3.7106 0.3284 2.8543,
          3.3451 0.4798 2.8543,
          2.9528 0.5315 2.8543,
          2.5605 0.4798 2.8543,
          2.1949 0.3284 2.8543,
          1.8810 0.0875 2.8543,
          1.6401 -0.2264 2.8543,
          1.4887 -0.5919 2.8543,
          1.4370 -0.9843 2.8543,
          1.4887 -1.3766 2.8543,
          1.6401 -1.7421 2.8543,
          1.8810 -2.0560 2.8543,
          2.1949 -2.2969 2.8543,
          2.5605 -2.4484 2.8543,
          2.9528 -2.5000 2.8543,
          3.3451 -2.4484 2.8543,
          3.7106 -2.2969 2.8543,
          4.0246 -2.0560 2.8543,
          4.2654 -1.7421 2.8543,
          4.4169 -1.3766 2.8543,
          4.4685 -0.9843 2.8543
        ] }
        coordIndex [
          0, 1, 25, 24, -1,
          1, 2, 26, 25, -1,
          2, 3, 27, 26, -1,
          3, 4, 28, 27, -1,
          4, 5, 29, 28, -1,
          5, 6, 30, 29, -1,
          6, 7, 31, 30, -1,
          7, 8, 32, 31, -1,
          8, 9, 33, 32, -1,
          9, 10, 34, 33, -1,
          10, 11, 35, 34, -1,
          11, 12, 36, 35, -1,
          12, 13, 37, 36, -1,
          13, 14, 38, 37, -1,
          14, 15, 39, 38, -1,
          15, 16, 40, 39, -1,
          16, 17, 41, 40, -1,
          17, 18, 42, 41, -1,
          18, 19, 43, 42, -1,
          19, 20, 44, 43, -1,
          20, 21, 45, 44, -1,
          21, 22, 46, 45, -1,
          22, 23, 47, 46, -1,
          23, 0, 24, 47, -1,
          24, 25, 26, 27, 28, 29, 30, 31, 32, 33, 34, 35, 36, 37, 38, 39, 40, 41, 42, 43, 44, 45, 46, 47, -1,
          23, 22, 21, 20, 19, 18, 17, 16, 15, 14, 13, 12, 11, 10, 9, 8, 7, 6, 5, 4, 3, 2, 1, 0, -1
        ]
      }
    }
  ]
}

Transform {
  children [
    Shape {
      appearance Appearance {
        material Material { diffuseColor 0.640 0.650 0.665 specularColor 0.400 0.400 0.420 shininess 0.50 }
      }
      geometry IndexedFaceSet {
        creaseAngle 1.05
        coord Coordinate { point [
          4.2838 -0.6276 2.8543,
          4.1461 -0.2953 2.8543,
          3.9271 -0.0099 2.8543,
          3.6417 0.2091 2.8543,
          3.3094 0.3467 2.8543,
          2.9528 0.3937 2.8543,
          2.5961 0.3467 2.8543,
          2.2638 0.2091 2.8543,
          1.9784 -0.0099 2.8543,
          1.7594 -0.2953 2.8543,
          1.6218 -0.6276 2.8543,
          1.5748 -0.9843 2.8543,
          1.6218 -1.3409 2.8543,
          1.7594 -1.6732 2.8543,
          1.9784 -1.9586 2.8543,
          2.2638 -2.1776 2.8543,
          2.5961 -2.3153 2.8543,
          2.9528 -2.3622 2.8543,
          3.3094 -2.3153 2.8543,
          3.6417 -2.1776 2.8543,
          3.9271 -1.9586 2.8543,
          4.1461 -1.6732 2.8543,
          4.2838 -1.3409 2.8543,
          4.3307 -0.9843 2.8543,
          4.2838 -0.6276 4.5276,
          4.1461 -0.2953 4.5276,
          3.9271 -0.0099 4.5276,
          3.6417 0.2091 4.5276,
          3.3094 0.3467 4.5276,
          2.9528 0.3937 4.5276,
          2.5961 0.3467 4.5276,
          2.2638 0.2091 4.5276,
          1.9784 -0.0099 4.5276,
          1.7594 -0.2953 4.5276,
          1.6218 -0.6276 4.5276,
          1.5748 -0.9843 4.5276,
          1.6218 -1.3409 4.5276,
          1.7594 -1.6732 4.5276,
          1.9784 -1.9586 4.5276,
          2.2638 -2.1776 4.5276,
          2.5961 -2.3153 4.5276,
          2.9528 -2.3622 4.5276,
          3.3094 -2.3153 4.5276,
          3.6417 -2.1776 4.5276,
          3.9271 -1.9586 4.5276,
          4.1461 -1.6732 4.5276,
          4.2838 -1.3409 4.5276,
          4.3307 -0.9843 4.5276
        ] }
        coordIndex [
          0, 1, 25, 24, -1,
          1, 2, 26, 25, -1,
          2, 3, 27, 26, -1,
          3, 4, 28, 27, -1,
          4, 5, 29, 28, -1,
          5, 6, 30, 29, -1,
          6, 7, 31, 30, -1,
          7, 8, 32, 31, -1,
          8, 9, 33, 32, -1,
          9, 10, 34, 33, -1,
          10, 11, 35, 34, -1,
          11, 12, 36, 35, -1,
          12, 13, 37, 36, -1,
          13, 14, 38, 37, -1,
          14, 15, 39, 38, -1,
          15, 16, 40, 39, -1,
          16, 17, 41, 40, -1,
          17, 18, 42, 41, -1,
          18, 19, 43, 42, -1,
          19, 20, 44, 43, -1,
          20, 21, 45, 44, -1,
          21, 22, 46, 45, -1,
          22, 23, 47, 46, -1,
          23, 0, 24, 47, -1,
          24, 25, 26, 27, 28, 29, 30, 31, 32, 33, 34, 35, 36, 37, 38, 39, 40, 41, 42, 43, 44, 45, 46, 47, -1,
          23, 22, 21, 20, 19, 18, 17, 16, 15, 14, 13, 12, 11, 10, 9, 8, 7, 6, 5, 4, 3, 2, 1, 0, -1
        ]
      }
    }
  ]
}

Transform {
  children [
    Shape {
      appearance Appearance {
        material Material { diffuseColor 0.520 0.530 0.545 specularColor 0.320 0.320 0.340 shininess 0.42 }
      }
      geometry IndexedFaceSet {
        creaseAngle 1.05
        coord Coordinate { point [
          3.8976 -0.7214 4.5276,
          3.8976 -0.4718 4.5276,
          3.8762 -0.2478 4.5276,
          3.6892 -0.0608 4.5276,
          3.4652 0.0799 4.5276,
          3.2156 0.1672 4.5276,
          2.9528 0.1969 4.5276,
          2.6899 0.1672 4.5276,
          2.4403 0.0799 4.5276,
          2.2164 -0.0608 4.5276,
          2.0293 -0.2478 4.5276,
          1.8886 -0.4718 4.5276,
          1.8013 -0.7214 4.5276,
          1.7717 -0.9843 4.5276,
          1.8013 -1.2471 4.5276,
          1.8886 -1.4967 4.5276,
          2.0293 -1.7207 4.5276,
          2.2164 -1.9077 4.5276,
          2.4403 -2.0484 4.5276,
          2.6899 -2.1357 4.5276,
          2.9528 -2.1654 4.5276,
          3.2156 -2.1357 4.5276,
          3.4652 -2.0484 4.5276,
          3.6892 -1.9077 4.5276,
          3.8762 -1.7207 4.5276,
          3.8976 -1.4967 4.5276,
          3.8976 -1.2471 4.5276,
          3.8976 -0.9843 4.5276,
          3.8976 -0.7214 10.4331,
          3.8976 -0.4718 10.4331,
          3.8762 -0.2478 10.4331,
          3.6892 -0.0608 10.4331,
          3.4652 0.0799 10.4331,
          3.2156 0.1672 10.4331,
          2.9528 0.1969 10.4331,
          2.6899 0.1672 10.4331,
          2.4403 0.0799 10.4331,
          2.2164 -0.0608 10.4331,
          2.0293 -0.2478 10.4331,
          1.8886 -0.4718 10.4331,
          1.8013 -0.7214 10.4331,
          1.7717 -0.9843 10.4331,
          1.8013 -1.2471 10.4331,
          1.8886 -1.4967 10.4331,
          2.0293 -1.7207 10.4331,
          2.2164 -1.9077 10.4331,
          2.4403 -2.0484 10.4331,
          2.6899 -2.1357 10.4331,
          2.9528 -2.1654 10.4331,
          3.2156 -2.1357 10.4331,
          3.4652 -2.0484 10.4331,
          3.6892 -1.9077 10.4331,
          3.8762 -1.7207 10.4331,
          3.8976 -1.4967 10.4331,
          3.8976 -1.2471 10.4331,
          3.8976 -0.9843 10.4331
        ] }
        coordIndex [
          0, 1, 29, 28, -1,
          1, 2, 30, 29, -1,
          2, 3, 31, 30, -1,
          3, 4, 32, 31, -1,
          4, 5, 33, 32, -1,
          5, 6, 34, 33, -1,
          6, 7, 35, 34, -1,
          7, 8, 36, 35, -1,
          8, 9, 37, 36, -1,
          9, 10, 38, 37, -1,
          10, 11, 39, 38, -1,
          11, 12, 40, 39, -1,
          12, 13, 41, 40, -1,
          13, 14, 42, 41, -1,
          14, 15, 43, 42, -1,
          15, 16, 44, 43, -1,
          16, 17, 45, 44, -1,
          17, 18, 46, 45, -1,
          18, 19, 47, 46, -1,
          19, 20, 48, 47, -1,
          20, 21, 49, 48, -1,
          21, 22, 50, 49, -1,
          22, 23, 51, 50, -1,
          23, 24, 52, 51, -1,
          24, 25, 53, 52, -1,
          25, 26, 54, 53, -1,
          26, 27, 55, 54, -1,
          27, 0, 28, 55, -1,
          28, 29, 30, 31, 32, 33, 34, 35, 36, 37, 38, 39, 40, 41, 42, 43, 44, 45, 46, 47, 48, 49, 50, 51, 52, 53, 54, 55, -1,
          27, 26, 25, 24, 23, 22, 21, 20, 19, 18, 17, 16, 15, 14, 13, 12, 11, 10, 9, 8, 7, 6, 5, 4, 3, 2, 1, 0, -1
        ]
      }
    }
  ]
}

Transform {
  children [
    Shape {
      appearance Appearance {
        material Material { diffuseColor 0.680 0.685 0.700 specularColor 0.350 0.350 0.360 shininess 0.40 }
      }
      geometry IndexedFaceSet {
        creaseAngle 1.05
        coord Coordinate { point [
          0.0000 -0.1575 0.3346,
          0.5906 -0.1575 0.3346,
          0.5906 0.1575 0.3346,
          0.0000 0.1575 0.3346,
          0.0000 -0.1575 0.4921,
          0.5906 -0.1575 0.4921,
          0.5906 0.1575 0.4921,
          0.0000 0.1575 0.4921
        ] }
        coordIndex [
          0, 1, 5, 4, -1,
          1, 2, 6, 5, -1,
          2, 3, 7, 6, -1,
          3, 0, 4, 7, -1,
          4, 5, 6, 7, -1,
          3, 2, 1, 0, -1
        ]
      }
    }
  ]
}

Transform {
  children [
    Shape {
      appearance Appearance {
        material Material { diffuseColor 0.680 0.685 0.700 specularColor 0.350 0.350 0.360 shininess 0.40 }
      }
      geometry IndexedFaceSet {
        creaseAngle 1.05
        coord Coordinate { point [
          -0.1575 -0.1575 -0.6299,
          0.1575 -0.1575 -0.6299,
          0.1575 0.1575 -0.6299,
          -0.1575 0.1575 -0.6299,
          -0.1575 -0.1575 0.4921,
          0.1575 -0.1575 0.4921,
          0.1575 0.1575 0.4921,
          -0.1575 0.1575 0.4921
        ] }
        coordIndex [
          0, 1, 5, 4, -1,
          1, 2, 6, 5, -1,
          2, 3, 7, 6, -1,
          3, 0, 4, 7, -1,
          4, 5, 6, 7, -1,
          3, 2, 1, 0, -1
        ]
      }
    }
  ]
}

Transform {
  children [
    Shape {
      appearance Appearance {
        material Material { diffuseColor 0.680 0.685 0.700 specularColor 0.350 0.350 0.360 shininess 0.40 }
      }
      geometry IndexedFaceSet {
        creaseAngle 1.05
        coord Coordinate { point [
          0.0000 -1.1417 0.3346,
          0.5906 -1.1417 0.3346,
          0.5906 -0.8268 0.3346,
          0.0000 -0.8268 0.3346,
          0.0000 -1.1417 0.4921,
          0.5906 -1.1417 0.4921,
          0.5906 -0.8268 0.4921,
          0.0000 -0.8268 0.4921
        ] }
        coordIndex [
          0, 1, 5, 4, -1,
          1, 2, 6, 5, -1,
          2, 3, 7, 6, -1,
          3, 0, 4, 7, -1,
          4, 5, 6, 7, -1,
          3, 2, 1, 0, -1
        ]
      }
    }
  ]
}

Transform {
  children [
    Shape {
      appearance Appearance {
        material Material { diffuseColor 0.680 0.685 0.700 specularColor 0.350 0.350 0.360 shininess 0.40 }
      }
      geometry IndexedFaceSet {
        creaseAngle 1.05
        coord Coordinate { point [
          -0.1575 -1.1417 -0.6299,
          0.1575 -1.1417 -0.6299,
          0.1575 -0.8268 -0.6299,
          -0.1575 -0.8268 -0.6299,
          -0.1575 -1.1417 0.4921,
          0.1575 -1.1417 0.4921,
          0.1575 -0.8268 0.4921,
          -0.1575 -0.8268 0.4921
        ] }
        coordIndex [
          0, 1, 5, 4, -1,
          1, 2, 6, 5, -1,
          2, 3, 7, 6, -1,
          3, 0, 4, 7, -1,
          4, 5, 6, 7, -1,
          3, 2, 1, 0, -1
        ]
      }
    }
  ]
}

Transform {
  children [
    Shape {
      appearance Appearance {
        material Material { diffuseColor 0.680 0.685 0.700 specularColor 0.350 0.350 0.360 shininess 0.40 }
      }
      geometry IndexedFaceSet {
        creaseAngle 1.05
        coord Coordinate { point [
          0.0000 -2.1260 0.3346,
          0.5906 -2.1260 0.3346,
          0.5906 -1.8110 0.3346,
          0.0000 -1.8110 0.3346,
          0.0000 -2.1260 0.4921,
          0.5906 -2.1260 0.4921,
          0.5906 -1.8110 0.4921,
          0.0000 -1.8110 0.4921
        ] }
        coordIndex [
          0, 1, 5, 4, -1,
          1, 2, 6, 5, -1,
          2, 3, 7, 6, -1,
          3, 0, 4, 7, -1,
          4, 5, 6, 7, -1,
          3, 2, 1, 0, -1
        ]
      }
    }
  ]
}

Transform {
  children [
    Shape {
      appearance Appearance {
        material Material { diffuseColor 0.680 0.685 0.700 specularColor 0.350 0.350 0.360 shininess 0.40 }
      }
      geometry IndexedFaceSet {
        creaseAngle 1.05
        coord Coordinate { point [
          -0.1575 -2.1260 -0.6299,
          0.1575 -2.1260 -0.6299,
          0.1575 -1.8110 -0.6299,
          -0.1575 -1.8110 -0.6299,
          -0.1575 -2.1260 0.4921,
          0.1575 -2.1260 0.4921,
          0.1575 -1.8110 0.4921,
          -0.1575 -1.8110 0.4921
        ] }
        coordIndex [
          0, 1, 5, 4, -1,
          1, 2, 6, 5, -1,
          2, 3, 7, 6, -1,
          3, 0, 4, 7, -1,
          4, 5, 6, 7, -1,
          3, 2, 1, 0, -1
        ]
      }
    }
  ]
}

Transform {
  children [
    Shape {
      appearance Appearance {
        material Material { diffuseColor 0.680 0.685 0.700 specularColor 0.350 0.350 0.360 shininess 0.40 }
      }
      geometry IndexedFaceSet {
        creaseAngle 1.05
        coord Coordinate { point [
          5.3150 -2.1260 0.3346,
          5.7087 -2.1260 0.3346,
          5.7087 -1.8110 0.3346,
          5.3150 -1.8110 0.3346,
          5.3150 -2.1260 0.4921,
          5.7087 -2.1260 0.4921,
          5.7087 -1.8110 0.4921,
          5.3150 -1.8110 0.4921
        ] }
        coordIndex [
          0, 1, 5, 4, -1,
          1, 2, 6, 5, -1,
          2, 3, 7, 6, -1,
          3, 0, 4, 7, -1,
          4, 5, 6, 7, -1,
          3, 2, 1, 0, -1
        ]
      }
    }
  ]
}

Transform {
  children [
    Shape {
      appearance Appearance {
        material Material { diffuseColor 0.680 0.685 0.700 specularColor 0.350 0.350 0.360 shininess 0.40 }
      }
      geometry IndexedFaceSet {
        creaseAngle 1.05
        coord Coordinate { point [
          5.5512 -2.1260 -0.6299,
          5.8661 -2.1260 -0.6299,
          5.8661 -1.8110 -0.6299,
          5.5512 -1.8110 -0.6299,
          5.5512 -2.1260 0.4921,
          5.8661 -2.1260 0.4921,
          5.8661 -1.8110 0.4921,
          5.5512 -1.8110 0.4921
        ] }
        coordIndex [
          0, 1, 5, 4, -1,
          1, 2, 6, 5, -1,
          2, 3, 7, 6, -1,
          3, 0, 4, 7, -1,
          4, 5, 6, 7, -1,
          3, 2, 1, 0, -1
        ]
      }
    }
  ]
}

Transform {
  children [
    Shape {
      appearance Appearance {
        material Material { diffuseColor 0.680 0.685 0.700 specularColor 0.350 0.350 0.360 shininess 0.40 }
      }
      geometry IndexedFaceSet {
        creaseAngle 1.05
        coord Coordinate { point [
          5.3150 -0.1575 0.3346,
          5.7087 -0.1575 0.3346,
          5.7087 0.1575 0.3346,
          5.3150 0.1575 0.3346,
          5.3150 -0.1575 0.4921,
          5.7087 -0.1575 0.4921,
          5.7087 0.1575 0.4921,
          5.3150 0.1575 0.4921
        ] }
        coordIndex [
          0, 1, 5, 4, -1,
          1, 2, 6, 5, -1,
          2, 3, 7, 6, -1,
          3, 0, 4, 7, -1,
          4, 5, 6, 7, -1,
          3, 2, 1, 0, -1
        ]
      }
    }
  ]
}

Transform {
  children [
    Shape {
      appearance Appearance {
        material Material { diffuseColor 0.680 0.685 0.700 specularColor 0.350 0.350 0.360 shininess 0.40 }
      }
      geometry IndexedFaceSet {
        creaseAngle 1.05
        coord Coordinate { point [
          5.5512 -0.1575 -0.6299,
          5.8661 -0.1575 -0.6299,
          5.8661 0.1575 -0.6299,
          5.5512 0.1575 -0.6299,
          5.5512 -0.1575 0.4921,
          5.8661 -0.1575 0.4921,
          5.8661 0.1575 0.4921,
          5.5512 0.1575 0.4921
        ] }
        coordIndex [
          0, 1, 5, 4, -1,
          1, 2, 6, 5, -1,
          2, 3, 7, 6, -1,
          3, 0, 4, 7, -1,
          4, 5, 6, 7, -1,
          3, 2, 1, 0, -1
        ]
      }
    }
  ]
}
