#VRML V2.0 utf8
# Alps RK12L12C0A0G, 12 mm potenciometar, vertical type
# Pojednostavljeni model za prikaz. VRML jedinica je 0,1 inca = 2,54 mm.
# Valjci su izvedeni kao 24-strana tijela, jer KiCadov citac ne crta Cylinder.

Transform {
  translation 0.0000 3.6417 2.3622
  children [
    Shape {
      appearance Appearance {
        material Material { diffuseColor 0.72 0.73 0.75 specularColor 0.35 0.35 0.35 shininess 0.45 }
      }
      geometry Box { size 4.7244 6.1024 4.7244 }
    }
  ]
}
Shape {
      appearance Appearance {
        material Material { diffuseColor 0.66 0.67 0.69 specularColor 0.30 0.30 0.30 shininess 0.40 }
      }
      geometry IndexedFaceSet {
        creaseAngle 1.2
        coord Coordinate { point [
          1.7717 4.3307 4.7244,
          1.7113 4.7892 4.7244,
          1.5343 5.2165 4.7244,
          1.2527 5.5835 4.7244,
          0.8858 5.8650 4.7244,
          0.4585 6.0420 4.7244,
          0.0000 6.1024 4.7244,
          -0.4585 6.0420 4.7244,
          -0.8858 5.8650 4.7244,
          -1.2527 5.5835 4.7244,
          -1.5343 5.2165 4.7244,
          -1.7113 4.7892 4.7244,
          -1.7717 4.3307 4.7244,
          -1.7113 3.8722 4.7244,
          -1.5343 3.4449 4.7244,
          -1.2527 3.0780 4.7244,
          -0.8858 2.7964 4.7244,
          -0.4585 2.6194 4.7244,
          -0.0000 2.5591 4.7244,
          0.4585 2.6194 4.7244,
          0.8858 2.7964 4.7244,
          1.2527 3.0780 4.7244,
          1.5343 3.4449 4.7244,
          1.7113 3.8722 4.7244,
          1.7717 4.3307 5.1969,
          1.7113 4.7892 5.1969,
          1.5343 5.2165 5.1969,
          1.2527 5.5835 5.1969,
          0.8858 5.8650 5.1969,
          0.4585 6.0420 5.1969,
          0.0000 6.1024 5.1969,
          -0.4585 6.0420 5.1969,
          -0.8858 5.8650 5.1969,
          -1.2527 5.5835 5.1969,
          -1.5343 5.2165 5.1969,
          -1.7113 4.7892 5.1969,
          -1.7717 4.3307 5.1969,
          -1.7113 3.8722 5.1969,
          -1.5343 3.4449 5.1969,
          -1.2527 3.0780 5.1969,
          -0.8858 2.7964 5.1969,
          -0.4585 2.6194 5.1969,
          -0.0000 2.5591 5.1969,
          0.4585 2.6194 5.1969,
          0.8858 2.7964 5.1969,
          1.2527 3.0780 5.1969,
          1.5343 3.4449 5.1969,
          1.7113 3.8722 5.1969
        ] }
        coordIndex [
          0, 1, 25, 24, -1,
          1, 2, 26, 25, -1,
          2, 3, 27, 26, -1,
          3, 4, 28, 27, -1,
          4, 5, 29, 28, -1,
          5, 6, 30, 29, -1,
          6, 7, 31, 30, -1,
          7, 8, 32, 31, -1,
          8, 9, 33, 32, -1,
          9, 10, 34, 33, -1,
          10, 11, 35, 34, -1,
          11, 12, 36, 35, -1,
          12, 13, 37, 36, -1,
          13, 14, 38, 37, -1,
          14, 15, 39, 38, -1,
          15, 16, 40, 39, -1,
          16, 17, 41, 40, -1,
          17, 18, 42, 41, -1,
          18, 19, 43, 42, -1,
          19, 20, 44, 43, -1,
          20, 21, 45, 44, -1,
          21, 22, 46, 45, -1,
          22, 23, 47, 46, -1,
          23, 0, 24, 47, -1,
          0, 1, 2, 3, 4, 5, 6, 7, 8, 9, 10, 11, 12, 13, 14, 15, 16, 17, 18, 19, 20, 21, 22, 23, -1,
          47, 46, 45, 44, 43, 42, 41, 40, 39, 38, 37, 36, 35, 34, 33, 32, 31, 30, 29, 28, 27, 26, 25, 24, -1
        ]
      }
    }
Shape {
      appearance Appearance {
        material Material { diffuseColor 0.09 0.09 0.10 specularColor 0.05 0.05 0.05 shininess 0.15 }
      }
      geometry IndexedFaceSet {
        creaseAngle 1.2
        coord Coordinate { point [
          1.1811 4.3307 5.1969,
          1.1409 4.6364 5.1969,
          1.0229 4.9213 5.1969,
          0.8352 5.1659 5.1969,
          0.5906 5.3536 5.1969,
          0.3057 5.4716 5.1969,
          0.0000 5.5118 5.1969,
          -0.3057 5.4716 5.1969,
          -0.5906 5.3536 5.1969,
          -0.8352 5.1659 5.1969,
          -1.0229 4.9213 5.1969,
          -1.1409 4.6364 5.1969,
          -1.1811 4.3307 5.1969,
          -1.1409 4.0250 5.1969,
          -1.0229 3.7402 5.1969,
          -0.8352 3.4955 5.1969,
          -0.5906 3.3078 5.1969,
          -0.3057 3.1899 5.1969,
          -0.0000 3.1496 5.1969,
          0.3057 3.1899 5.1969,
          0.5906 3.3078 5.1969,
          0.8352 3.4955 5.1969,
          1.0229 3.7402 5.1969,
          1.1409 4.0250 5.1969,
          1.1811 4.3307 16.5354,
          1.1409 4.6364 16.5354,
          1.0229 4.9213 16.5354,
          0.8352 5.1659 16.5354,
          0.5906 5.3536 16.5354,
          0.3057 5.4716 16.5354,
          0.0000 5.5118 16.5354,
          -0.3057 5.4716 16.5354,
          -0.5906 5.3536 16.5354,
          -0.8352 5.1659 16.5354,
          -1.0229 4.9213 16.5354,
          -1.1409 4.6364 16.5354,
          -1.1811 4.3307 16.5354,
          -1.1409 4.0250 16.5354,
          -1.0229 3.7402 16.5354,
          -0.8352 3.4955 16.5354,
          -0.5906 3.3078 16.5354,
          -0.3057 3.1899 16.5354,
          -0.0000 3.1496 16.5354,
          0.3057 3.1899 16.5354,
          0.5906 3.3078 16.5354,
          0.8352 3.4955 16.5354,
          1.0229 3.7402 16.5354,
          1.1409 4.0250 16.5354
        ] }
        coordIndex [
          0, 1, 25, 24, -1,
          1, 2, 26, 25, -1,
          2, 3, 27, 26, -1,
          3, 4, 28, 27, -1,
          4, 5, 29, 28, -1,
          5, 6, 30, 29, -1,
          6, 7, 31, 30, -1,
          7, 8, 32, 31, -1,
          8, 9, 33, 32, -1,
          9, 10, 34, 33, -1,
          10, 11, 35, 34, -1,
          11, 12, 36, 35, -1,
          12, 13, 37, 36, -1,
          13, 14, 38, 37, -1,
          14, 15, 39, 38, -1,
          15, 16, 40, 39, -1,
          16, 17, 41, 40, -1,
          17, 18, 42, 41, -1,
          18, 19, 43, 42, -1,
          19, 20, 44, 43, -1,
          20, 21, 45, 44, -1,
          21, 22, 46, 45, -1,
          22, 23, 47, 46, -1,
          23, 0, 24, 47, -1,
          0, 1, 2, 3, 4, 5, 6, 7, 8, 9, 10, 11, 12, 13, 14, 15, 16, 17, 18, 19, 20, 21, 22, 23, -1,
          47, 46, 45, 44, 43, 42, 41, 40, 39, 38, 37, 36, 35, 34, 33, 32, 31, 30, 29, 28, 27, 26, 25, 24, -1
        ]
      }
    }
