#VRML V2.0 utf8
# MINITOOLS SEP-A-OBD-D2 (TME A-OBD-D), female OBD-II J1962 connector,
# montaza licem prema gore. Generirano skriptom scripts/gen_3dmodels.py.
# Trapezoidal housing 43.3 x 20.7 mm, height 17.7 mm, with a grey insert in the
# recess carrying 16 contacts (2 rows of 8, 4.0 mm pitch, 8.6 mm between rows).
# VRML jedinica u KiCadu je 0,1 inca = 2,54 mm, os Y suprotna KiCadovoj.

Transform {
  children [
    Shape {
      appearance Appearance {
        material Material { diffuseColor 0.085 0.085 0.095 specularColor 0.055 0.055 0.060 shininess 0.20 }
      }
      geometry IndexedFaceSet {
        creaseAngle 1.05
        coord Coordinate { point [
          -7.4875 -3.4508 0.0000,
          -6.7717 -4.0748 0.0000,
          6.7717 -4.0748 0.0000,
          7.4875 -3.4508 0.0000,
          8.4377 3.4508 0.0000,
          7.8937 4.0748 0.0000,
          -7.8937 4.0748 0.0000,
          -8.4377 3.4508 0.0000,
          -7.4875 -3.4508 1.3386,
          -6.7717 -4.0748 1.3386,
          6.7717 -4.0748 1.3386,
          7.4875 -3.4508 1.3386,
          8.4377 3.4508 1.3386,
          7.8937 4.0748 1.3386,
          -7.8937 4.0748 1.3386,
          -8.4377 3.4508 1.3386
        ] }
        coordIndex [
          0, 1, 9, 8, -1,
          1, 2, 10, 9, -1,
          2, 3, 11, 10, -1,
          3, 4, 12, 11, -1,
          4, 5, 13, 12, -1,
          5, 6, 14, 13, -1,
          6, 7, 15, 14, -1,
          7, 0, 8, 15, -1,
          8, 9, 10, 11, 12, 13, 14, 15, -1,
          7, 6, 5, 4, 3, 2, 1, 0, -1
        ]
      }
    }
  ]
}

Transform {
  children [
    Shape {
      appearance Appearance {
        material Material { diffuseColor 0.085 0.085 0.095 specularColor 0.055 0.055 0.060 shininess 0.20 }
      }
      geometry IndexedFaceSet {
        creaseAngle 1.05
        coord Coordinate { point [
          -7.4875 -3.4508 1.3386,
          -6.7717 -4.0748 1.3386,
          6.7717 -4.0748 1.3386,
          7.4875 -3.4508 1.3386,
          8.4377 3.4508 1.3386,
          7.8937 4.0748 1.3386,
          -7.8937 4.0748 1.3386,
          -8.4377 3.4508 1.3386,
          -7.4875 -3.4508 6.9685,
          -6.7717 -4.0748 6.9685,
          6.7717 -4.0748 6.9685,
          7.4875 -3.4508 6.9685,
          8.4377 3.4508 6.9685,
          7.8937 4.0748 6.9685,
          -7.8937 4.0748 6.9685,
          -8.4377 3.4508 6.9685,
          -6.6737 -3.0111 1.3386,
          -6.4471 -3.2087 1.3386,
          6.4471 -3.2087 1.3386,
          6.6737 -3.0111 1.3386,
          7.5259 3.1786 1.3386,
          7.4997 3.2087 1.3386,
          -7.4997 3.2087 1.3386,
          -7.5259 3.1786 1.3386,
          -6.6737 -3.0111 6.9685,
          -6.4471 -3.2087 6.9685,
          6.4471 -3.2087 6.9685,
          6.6737 -3.0111 6.9685,
          7.5259 3.1786 6.9685,
          7.4997 3.2087 6.9685,
          -7.4997 3.2087 6.9685,
          -7.5259 3.1786 6.9685
        ] }
        coordIndex [
          0, 1, 9, 8, -1,
          24, 25, 17, 16, -1,
          8, 9, 25, 24, -1,
          16, 17, 1, 0, -1,
          1, 2, 10, 9, -1,
          25, 26, 18, 17, -1,
          9, 10, 26, 25, -1,
          17, 18, 2, 1, -1,
          2, 3, 11, 10, -1,
          26, 27, 19, 18, -1,
          10, 11, 27, 26, -1,
          18, 19, 3, 2, -1,
          3, 4, 12, 11, -1,
          27, 28, 20, 19, -1,
          11, 12, 28, 27, -1,
          19, 20, 4, 3, -1,
          4, 5, 13, 12, -1,
          28, 29, 21, 20, -1,
          12, 13, 29, 28, -1,
          20, 21, 5, 4, -1,
          5, 6, 14, 13, -1,
          29, 30, 22, 21, -1,
          13, 14, 30, 29, -1,
          21, 22, 6, 5, -1,
          6, 7, 15, 14, -1,
          30, 31, 23, 22, -1,
          14, 15, 31, 30, -1,
          22, 23, 7, 6, -1,
          7, 0, 8, 15, -1,
          31, 24, 16, 23, -1,
          15, 8, 24, 31, -1,
          23, 16, 0, 7, -1
        ]
      }
    }
  ]
}

Transform {
  children [
    Shape {
      appearance Appearance {
        material Material { diffuseColor 0.560 0.560 0.575 specularColor 0.120 0.120 0.125 shininess 0.22 }
      }
      geometry IndexedFaceSet {
        creaseAngle 1.05
        coord Coordinate { point [
          -6.3038 -2.8113 1.3386,
          -6.2996 -2.8150 1.3386,
          6.2996 -2.8150 1.3386,
          6.3038 -2.8113 1.3386,
          7.1115 3.0549 1.3386,
          7.3206 2.8150 1.3386,
          -7.3206 2.8150 1.3386,
          -7.1115 3.0549 1.3386,
          -6.3038 -2.8113 5.3543,
          -6.2996 -2.8150 5.3543,
          6.2996 -2.8150 5.3543,
          6.3038 -2.8113 5.3543,
          7.1115 3.0549 5.3543,
          7.3206 2.8150 5.3543,
          -7.3206 2.8150 5.3543,
          -7.1115 3.0549 5.3543
        ] }
        coordIndex [
          0, 1, 9, 8, -1,
          1, 2, 10, 9, -1,
          2, 3, 11, 10, -1,
          3, 4, 12, 11, -1,
          4, 5, 13, 12, -1,
          5, 6, 14, 13, -1,
          6, 7, 15, 14, -1,
          7, 0, 8, 15, -1,
          8, 9, 10, 11, 12, 13, 14, 15, -1,
          7, 6, 5, 4, 3, 2, 1, 0, -1
        ]
      }
    }
  ]
}

Transform {
  children [
    Shape {
      appearance Appearance {
        material Material { diffuseColor 0.030 0.030 0.035 specularColor 0.020 0.020 0.020 shininess 0.05 }
      }
      geometry IndexedFaceSet {
        creaseAngle 1.05
        coord Coordinate { point [
          -5.1663 1.8360 5.3622,
          -5.2473 1.9574 5.3622,
          -5.3687 2.0385 5.3622,
          -5.5118 2.0669 5.3622,
          -5.6549 2.0385 5.3622,
          -5.7763 1.9574 5.3622,
          -5.8574 1.8360 5.3622,
          -5.8858 1.6929 5.3622,
          -5.8574 1.5498 5.3622,
          -5.7763 1.4284 5.3622,
          -5.6549 1.3474 5.3622,
          -5.5118 1.3189 5.3622,
          -5.3687 1.3474 5.3622,
          -5.2473 1.4284 5.3622,
          -5.1663 1.5498 5.3622,
          -5.1378 1.6929 5.3622
        ] }
        coordIndex [
          0, 1, 2, 3, 4, 5, 6, 7, 8, 9, 10, 11, 12, 13, 14, 15, -1
        ]
      }
    }
  ]
}

Transform {
  children [
    Shape {
      appearance Appearance {
        material Material { diffuseColor 0.760 0.640 0.330 specularColor 0.500 0.440 0.240 shininess 0.60 }
      }
      geometry IndexedFaceSet {
        creaseAngle 1.05
        coord Coordinate { point [
          -5.3482 1.7874 5.3701,
          -5.4173 1.8566 5.3701,
          -5.5118 1.8819 5.3701,
          -5.6063 1.8566 5.3701,
          -5.6755 1.7874 5.3701,
          -5.7008 1.6929 5.3701,
          -5.6755 1.5984 5.3701,
          -5.6063 1.5293 5.3701,
          -5.5118 1.5039 5.3701,
          -5.4173 1.5293 5.3701,
          -5.3482 1.5984 5.3701,
          -5.3228 1.6929 5.3701
        ] }
        coordIndex [
          0, 1, 2, 3, 4, 5, 6, 7, 8, 9, 10, 11, -1
        ]
      }
    }
  ]
}

Transform {
  children [
    Shape {
      appearance Appearance {
        material Material { diffuseColor 0.030 0.030 0.035 specularColor 0.020 0.020 0.020 shininess 0.05 }
      }
      geometry IndexedFaceSet {
        creaseAngle 1.05
        coord Coordinate { point [
          -3.5915 1.8360 5.3622,
          -3.6725 1.9574 5.3622,
          -3.7939 2.0385 5.3622,
          -3.9370 2.0669 5.3622,
          -4.0801 2.0385 5.3622,
          -4.2015 1.9574 5.3622,
          -4.2826 1.8360 5.3622,
          -4.3110 1.6929 5.3622,
          -4.2826 1.5498 5.3622,
          -4.2015 1.4284 5.3622,
          -4.0801 1.3474 5.3622,
          -3.9370 1.3189 5.3622,
          -3.7939 1.3474 5.3622,
          -3.6725 1.4284 5.3622,
          -3.5915 1.5498 5.3622,
          -3.5630 1.6929 5.3622
        ] }
        coordIndex [
          0, 1, 2, 3, 4, 5, 6, 7, 8, 9, 10, 11, 12, 13, 14, 15, -1
        ]
      }
    }
  ]
}

Transform {
  children [
    Shape {
      appearance Appearance {
        material Material { diffuseColor 0.760 0.640 0.330 specularColor 0.500 0.440 0.240 shininess 0.60 }
      }
      geometry IndexedFaceSet {
        creaseAngle 1.05
        coord Coordinate { point [
          -3.7733 1.7874 5.3701,
          -3.8425 1.8566 5.3701,
          -3.9370 1.8819 5.3701,
          -4.0315 1.8566 5.3701,
          -4.1007 1.7874 5.3701,
          -4.1260 1.6929 5.3701,
          -4.1007 1.5984 5.3701,
          -4.0315 1.5293 5.3701,
          -3.9370 1.5039 5.3701,
          -3.8425 1.5293 5.3701,
          -3.7733 1.5984 5.3701,
          -3.7480 1.6929 5.3701
        ] }
        coordIndex [
          0, 1, 2, 3, 4, 5, 6, 7, 8, 9, 10, 11, -1
        ]
      }
    }
  ]
}

Transform {
  children [
    Shape {
      appearance Appearance {
        material Material { diffuseColor 0.030 0.030 0.035 specularColor 0.020 0.020 0.020 shininess 0.05 }
      }
      geometry IndexedFaceSet {
        creaseAngle 1.05
        coord Coordinate { point [
          -2.0167 1.8360 5.3622,
          -2.0977 1.9574 5.3622,
          -2.2191 2.0385 5.3622,
          -2.3622 2.0669 5.3622,
          -2.5053 2.0385 5.3622,
          -2.6267 1.9574 5.3622,
          -2.7078 1.8360 5.3622,
          -2.7362 1.6929 5.3622,
          -2.7078 1.5498 5.3622,
          -2.6267 1.4284 5.3622,
          -2.5053 1.3474 5.3622,
          -2.3622 1.3189 5.3622,
          -2.2191 1.3474 5.3622,
          -2.0977 1.4284 5.3622,
          -2.0167 1.5498 5.3622,
          -1.9882 1.6929 5.3622
        ] }
        coordIndex [
          0, 1, 2, 3, 4, 5, 6, 7, 8, 9, 10, 11, 12, 13, 14, 15, -1
        ]
      }
    }
  ]
}

Transform {
  children [
    Shape {
      appearance Appearance {
        material Material { diffuseColor 0.760 0.640 0.330 specularColor 0.500 0.440 0.240 shininess 0.60 }
      }
      geometry IndexedFaceSet {
        creaseAngle 1.05
        coord Coordinate { point [
          -2.1985 1.7874 5.3701,
          -2.2677 1.8566 5.3701,
          -2.3622 1.8819 5.3701,
          -2.4567 1.8566 5.3701,
          -2.5259 1.7874 5.3701,
          -2.5512 1.6929 5.3701,
          -2.5259 1.5984 5.3701,
          -2.4567 1.5293 5.3701,
          -2.3622 1.5039 5.3701,
          -2.2677 1.5293 5.3701,
          -2.1985 1.5984 5.3701,
          -2.1732 1.6929 5.3701
        ] }
        coordIndex [
          0, 1, 2, 3, 4, 5, 6, 7, 8, 9, 10, 11, -1
        ]
      }
    }
  ]
}

Transform {
  children [
    Shape {
      appearance Appearance {
        material Material { diffuseColor 0.030 0.030 0.035 specularColor 0.020 0.020 0.020 shininess 0.05 }
      }
      geometry IndexedFaceSet {
        creaseAngle 1.05
        coord Coordinate { point [
          -0.4419 1.8360 5.3622,
          -0.5229 1.9574 5.3622,
          -0.6443 2.0385 5.3622,
          -0.7874 2.0669 5.3622,
          -0.9305 2.0385 5.3622,
          -1.0519 1.9574 5.3622,
          -1.1329 1.8360 5.3622,
          -1.1614 1.6929 5.3622,
          -1.1329 1.5498 5.3622,
          -1.0519 1.4284 5.3622,
          -0.9305 1.3474 5.3622,
          -0.7874 1.3189 5.3622,
          -0.6443 1.3474 5.3622,
          -0.5229 1.4284 5.3622,
          -0.4419 1.5498 5.3622,
          -0.4134 1.6929 5.3622
        ] }
        coordIndex [
          0, 1, 2, 3, 4, 5, 6, 7, 8, 9, 10, 11, 12, 13, 14, 15, -1
        ]
      }
    }
  ]
}

Transform {
  children [
    Shape {
      appearance Appearance {
        material Material { diffuseColor 0.760 0.640 0.330 specularColor 0.500 0.440 0.240 shininess 0.60 }
      }
      geometry IndexedFaceSet {
        creaseAngle 1.05
        coord Coordinate { point [
          -0.6237 1.7874 5.3701,
          -0.6929 1.8566 5.3701,
          -0.7874 1.8819 5.3701,
          -0.8819 1.8566 5.3701,
          -0.9511 1.7874 5.3701,
          -0.9764 1.6929 5.3701,
          -0.9511 1.5984 5.3701,
          -0.8819 1.5293 5.3701,
          -0.7874 1.5039 5.3701,
          -0.6929 1.5293 5.3701,
          -0.6237 1.5984 5.3701,
          -0.5984 1.6929 5.3701
        ] }
        coordIndex [
          0, 1, 2, 3, 4, 5, 6, 7, 8, 9, 10, 11, -1
        ]
      }
    }
  ]
}

Transform {
  children [
    Shape {
      appearance Appearance {
        material Material { diffuseColor 0.030 0.030 0.035 specularColor 0.020 0.020 0.020 shininess 0.05 }
      }
      geometry IndexedFaceSet {
        creaseAngle 1.05
        coord Coordinate { point [
          1.1329 1.8360 5.3622,
          1.0519 1.9574 5.3622,
          0.9305 2.0385 5.3622,
          0.7874 2.0669 5.3622,
          0.6443 2.0385 5.3622,
          0.5229 1.9574 5.3622,
          0.4419 1.8360 5.3622,
          0.4134 1.6929 5.3622,
          0.4419 1.5498 5.3622,
          0.5229 1.4284 5.3622,
          0.6443 1.3474 5.3622,
          0.7874 1.3189 5.3622,
          0.9305 1.3474 5.3622,
          1.0519 1.4284 5.3622,
          1.1329 1.5498 5.3622,
          1.1614 1.6929 5.3622
        ] }
        coordIndex [
          0, 1, 2, 3, 4, 5, 6, 7, 8, 9, 10, 11, 12, 13, 14, 15, -1
        ]
      }
    }
  ]
}

Transform {
  children [
    Shape {
      appearance Appearance {
        material Material { diffuseColor 0.760 0.640 0.330 specularColor 0.500 0.440 0.240 shininess 0.60 }
      }
      geometry IndexedFaceSet {
        creaseAngle 1.05
        coord Coordinate { point [
          0.9511 1.7874 5.3701,
          0.8819 1.8566 5.3701,
          0.7874 1.8819 5.3701,
          0.6929 1.8566 5.3701,
          0.6237 1.7874 5.3701,
          0.5984 1.6929 5.3701,
          0.6237 1.5984 5.3701,
          0.6929 1.5293 5.3701,
          0.7874 1.5039 5.3701,
          0.8819 1.5293 5.3701,
          0.9511 1.5984 5.3701,
          0.9764 1.6929 5.3701
        ] }
        coordIndex [
          0, 1, 2, 3, 4, 5, 6, 7, 8, 9, 10, 11, -1
        ]
      }
    }
  ]
}

Transform {
  children [
    Shape {
      appearance Appearance {
        material Material { diffuseColor 0.030 0.030 0.035 specularColor 0.020 0.020 0.020 shininess 0.05 }
      }
      geometry IndexedFaceSet {
        creaseAngle 1.05
        coord Coordinate { point [
          2.7078 1.8360 5.3622,
          2.6267 1.9574 5.3622,
          2.5053 2.0385 5.3622,
          2.3622 2.0669 5.3622,
          2.2191 2.0385 5.3622,
          2.0977 1.9574 5.3622,
          2.0167 1.8360 5.3622,
          1.9882 1.6929 5.3622,
          2.0167 1.5498 5.3622,
          2.0977 1.4284 5.3622,
          2.2191 1.3474 5.3622,
          2.3622 1.3189 5.3622,
          2.5053 1.3474 5.3622,
          2.6267 1.4284 5.3622,
          2.7078 1.5498 5.3622,
          2.7362 1.6929 5.3622
        ] }
        coordIndex [
          0, 1, 2, 3, 4, 5, 6, 7, 8, 9, 10, 11, 12, 13, 14, 15, -1
        ]
      }
    }
  ]
}

Transform {
  children [
    Shape {
      appearance Appearance {
        material Material { diffuseColor 0.760 0.640 0.330 specularColor 0.500 0.440 0.240 shininess 0.60 }
      }
      geometry IndexedFaceSet {
        creaseAngle 1.05
        coord Coordinate { point [
          2.5259 1.7874 5.3701,
          2.4567 1.8566 5.3701,
          2.3622 1.8819 5.3701,
          2.2677 1.8566 5.3701,
          2.1985 1.7874 5.3701,
          2.1732 1.6929 5.3701,
          2.1985 1.5984 5.3701,
          2.2677 1.5293 5.3701,
          2.3622 1.5039 5.3701,
          2.4567 1.5293 5.3701,
          2.5259 1.5984 5.3701,
          2.5512 1.6929 5.3701
        ] }
        coordIndex [
          0, 1, 2, 3, 4, 5, 6, 7, 8, 9, 10, 11, -1
        ]
      }
    }
  ]
}

Transform {
  children [
    Shape {
      appearance Appearance {
        material Material { diffuseColor 0.030 0.030 0.035 specularColor 0.020 0.020 0.020 shininess 0.05 }
      }
      geometry IndexedFaceSet {
        creaseAngle 1.05
        coord Coordinate { point [
          4.2826 1.8360 5.3622,
          4.2015 1.9574 5.3622,
          4.0801 2.0385 5.3622,
          3.9370 2.0669 5.3622,
          3.7939 2.0385 5.3622,
          3.6725 1.9574 5.3622,
          3.5915 1.8360 5.3622,
          3.5630 1.6929 5.3622,
          3.5915 1.5498 5.3622,
          3.6725 1.4284 5.3622,
          3.7939 1.3474 5.3622,
          3.9370 1.3189 5.3622,
          4.0801 1.3474 5.3622,
          4.2015 1.4284 5.3622,
          4.2826 1.5498 5.3622,
          4.3110 1.6929 5.3622
        ] }
        coordIndex [
          0, 1, 2, 3, 4, 5, 6, 7, 8, 9, 10, 11, 12, 13, 14, 15, -1
        ]
      }
    }
  ]
}

Transform {
  children [
    Shape {
      appearance Appearance {
        material Material { diffuseColor 0.760 0.640 0.330 specularColor 0.500 0.440 0.240 shininess 0.60 }
      }
      geometry IndexedFaceSet {
        creaseAngle 1.05
        coord Coordinate { point [
          4.1007 1.7874 5.3701,
          4.0315 1.8566 5.3701,
          3.9370 1.8819 5.3701,
          3.8425 1.8566 5.3701,
          3.7733 1.7874 5.3701,
          3.7480 1.6929 5.3701,
          3.7733 1.5984 5.3701,
          3.8425 1.5293 5.3701,
          3.9370 1.5039 5.3701,
          4.0315 1.5293 5.3701,
          4.1007 1.5984 5.3701,
          4.1260 1.6929 5.3701
        ] }
        coordIndex [
          0, 1, 2, 3, 4, 5, 6, 7, 8, 9, 10, 11, -1
        ]
      }
    }
  ]
}

Transform {
  children [
    Shape {
      appearance Appearance {
        material Material { diffuseColor 0.030 0.030 0.035 specularColor 0.020 0.020 0.020 shininess 0.05 }
      }
      geometry IndexedFaceSet {
        creaseAngle 1.05
        coord Coordinate { point [
          5.8574 1.8360 5.3622,
          5.7763 1.9574 5.3622,
          5.6549 2.0385 5.3622,
          5.5118 2.0669 5.3622,
          5.3687 2.0385 5.3622,
          5.2473 1.9574 5.3622,
          5.1663 1.8360 5.3622,
          5.1378 1.6929 5.3622,
          5.1663 1.5498 5.3622,
          5.2473 1.4284 5.3622,
          5.3687 1.3474 5.3622,
          5.5118 1.3189 5.3622,
          5.6549 1.3474 5.3622,
          5.7763 1.4284 5.3622,
          5.8574 1.5498 5.3622,
          5.8858 1.6929 5.3622
        ] }
        coordIndex [
          0, 1, 2, 3, 4, 5, 6, 7, 8, 9, 10, 11, 12, 13, 14, 15, -1
        ]
      }
    }
  ]
}

Transform {
  children [
    Shape {
      appearance Appearance {
        material Material { diffuseColor 0.760 0.640 0.330 specularColor 0.500 0.440 0.240 shininess 0.60 }
      }
      geometry IndexedFaceSet {
        creaseAngle 1.05
        coord Coordinate { point [
          5.6755 1.7874 5.3701,
          5.6063 1.8566 5.3701,
          5.5118 1.8819 5.3701,
          5.4173 1.8566 5.3701,
          5.3482 1.7874 5.3701,
          5.3228 1.6929 5.3701,
          5.3482 1.5984 5.3701,
          5.4173 1.5293 5.3701,
          5.5118 1.5039 5.3701,
          5.6063 1.5293 5.3701,
          5.6755 1.5984 5.3701,
          5.7008 1.6929 5.3701
        ] }
        coordIndex [
          0, 1, 2, 3, 4, 5, 6, 7, 8, 9, 10, 11, -1
        ]
      }
    }
  ]
}

Transform {
  children [
    Shape {
      appearance Appearance {
        material Material { diffuseColor 0.030 0.030 0.035 specularColor 0.020 0.020 0.020 shininess 0.05 }
      }
      geometry IndexedFaceSet {
        creaseAngle 1.05
        coord Coordinate { point [
          -5.1663 -1.5498 5.3622,
          -5.2473 -1.4284 5.3622,
          -5.3687 -1.3474 5.3622,
          -5.5118 -1.3189 5.3622,
          -5.6549 -1.3474 5.3622,
          -5.7763 -1.4284 5.3622,
          -5.8574 -1.5498 5.3622,
          -5.8858 -1.6929 5.3622,
          -5.8574 -1.8360 5.3622,
          -5.7763 -1.9574 5.3622,
          -5.6549 -2.0385 5.3622,
          -5.5118 -2.0669 5.3622,
          -5.3687 -2.0385 5.3622,
          -5.2473 -1.9574 5.3622,
          -5.1663 -1.8360 5.3622,
          -5.1378 -1.6929 5.3622
        ] }
        coordIndex [
          0, 1, 2, 3, 4, 5, 6, 7, 8, 9, 10, 11, 12, 13, 14, 15, -1
        ]
      }
    }
  ]
}

Transform {
  children [
    Shape {
      appearance Appearance {
        material Material { diffuseColor 0.760 0.640 0.330 specularColor 0.500 0.440 0.240 shininess 0.60 }
      }
      geometry IndexedFaceSet {
        creaseAngle 1.05
        coord Coordinate { point [
          -5.3482 -1.5984 5.3701,
          -5.4173 -1.5293 5.3701,
          -5.5118 -1.5039 5.3701,
          -5.6063 -1.5293 5.3701,
          -5.6755 -1.5984 5.3701,
          -5.7008 -1.6929 5.3701,
          -5.6755 -1.7874 5.3701,
          -5.6063 -1.8566 5.3701,
          -5.5118 -1.8819 5.3701,
          -5.4173 -1.8566 5.3701,
          -5.3482 -1.7874 5.3701,
          -5.3228 -1.6929 5.3701
        ] }
        coordIndex [
          0, 1, 2, 3, 4, 5, 6, 7, 8, 9, 10, 11, -1
        ]
      }
    }
  ]
}

Transform {
  children [
    Shape {
      appearance Appearance {
        material Material { diffuseColor 0.030 0.030 0.035 specularColor 0.020 0.020 0.020 shininess 0.05 }
      }
      geometry IndexedFaceSet {
        creaseAngle 1.05
        coord Coordinate { point [
          -3.5915 -1.5498 5.3622,
          -3.6725 -1.4284 5.3622,
          -3.7939 -1.3474 5.3622,
          -3.9370 -1.3189 5.3622,
          -4.0801 -1.3474 5.3622,
          -4.2015 -1.4284 5.3622,
          -4.2826 -1.5498 5.3622,
          -4.3110 -1.6929 5.3622,
          -4.2826 -1.8360 5.3622,
          -4.2015 -1.9574 5.3622,
          -4.0801 -2.0385 5.3622,
          -3.9370 -2.0669 5.3622,
          -3.7939 -2.0385 5.3622,
          -3.6725 -1.9574 5.3622,
          -3.5915 -1.8360 5.3622,
          -3.5630 -1.6929 5.3622
        ] }
        coordIndex [
          0, 1, 2, 3, 4, 5, 6, 7, 8, 9, 10, 11, 12, 13, 14, 15, -1
        ]
      }
    }
  ]
}

Transform {
  children [
    Shape {
      appearance Appearance {
        material Material { diffuseColor 0.760 0.640 0.330 specularColor 0.500 0.440 0.240 shininess 0.60 }
      }
      geometry IndexedFaceSet {
        creaseAngle 1.05
        coord Coordinate { point [
          -3.7733 -1.5984 5.3701,
          -3.8425 -1.5293 5.3701,
          -3.9370 -1.5039 5.3701,
          -4.0315 -1.5293 5.3701,
          -4.1007 -1.5984 5.3701,
          -4.1260 -1.6929 5.3701,
          -4.1007 -1.7874 5.3701,
          -4.0315 -1.8566 5.3701,
          -3.9370 -1.8819 5.3701,
          -3.8425 -1.8566 5.3701,
          -3.7733 -1.7874 5.3701,
          -3.7480 -1.6929 5.3701
        ] }
        coordIndex [
          0, 1, 2, 3, 4, 5, 6, 7, 8, 9, 10, 11, -1
        ]
      }
    }
  ]
}

Transform {
  children [
    Shape {
      appearance Appearance {
        material Material { diffuseColor 0.030 0.030 0.035 specularColor 0.020 0.020 0.020 shininess 0.05 }
      }
      geometry IndexedFaceSet {
        creaseAngle 1.05
        coord Coordinate { point [
          -2.0167 -1.5498 5.3622,
          -2.0977 -1.4284 5.3622,
          -2.2191 -1.3474 5.3622,
          -2.3622 -1.3189 5.3622,
          -2.5053 -1.3474 5.3622,
          -2.6267 -1.4284 5.3622,
          -2.7078 -1.5498 5.3622,
          -2.7362 -1.6929 5.3622,
          -2.7078 -1.8360 5.3622,
          -2.6267 -1.9574 5.3622,
          -2.5053 -2.0385 5.3622,
          -2.3622 -2.0669 5.3622,
          -2.2191 -2.0385 5.3622,
          -2.0977 -1.9574 5.3622,
          -2.0167 -1.8360 5.3622,
          -1.9882 -1.6929 5.3622
        ] }
        coordIndex [
          0, 1, 2, 3, 4, 5, 6, 7, 8, 9, 10, 11, 12, 13, 14, 15, -1
        ]
      }
    }
  ]
}

Transform {
  children [
    Shape {
      appearance Appearance {
        material Material { diffuseColor 0.760 0.640 0.330 specularColor 0.500 0.440 0.240 shininess 0.60 }
      }
      geometry IndexedFaceSet {
        creaseAngle 1.05
        coord Coordinate { point [
          -2.1985 -1.5984 5.3701,
          -2.2677 -1.5293 5.3701,
          -2.3622 -1.5039 5.3701,
          -2.4567 -1.5293 5.3701,
          -2.5259 -1.5984 5.3701,
          -2.5512 -1.6929 5.3701,
          -2.5259 -1.7874 5.3701,
          -2.4567 -1.8566 5.3701,
          -2.3622 -1.8819 5.3701,
          -2.2677 -1.8566 5.3701,
          -2.1985 -1.7874 5.3701,
          -2.1732 -1.6929 5.3701
        ] }
        coordIndex [
          0, 1, 2, 3, 4, 5, 6, 7, 8, 9, 10, 11, -1
        ]
      }
    }
  ]
}

Transform {
  children [
    Shape {
      appearance Appearance {
        material Material { diffuseColor 0.030 0.030 0.035 specularColor 0.020 0.020 0.020 shininess 0.05 }
      }
      geometry IndexedFaceSet {
        creaseAngle 1.05
        coord Coordinate { point [
          -0.4419 -1.5498 5.3622,
          -0.5229 -1.4284 5.3622,
          -0.6443 -1.3474 5.3622,
          -0.7874 -1.3189 5.3622,
          -0.9305 -1.3474 5.3622,
          -1.0519 -1.4284 5.3622,
          -1.1329 -1.5498 5.3622,
          -1.1614 -1.6929 5.3622,
          -1.1329 -1.8360 5.3622,
          -1.0519 -1.9574 5.3622,
          -0.9305 -2.0385 5.3622,
          -0.7874 -2.0669 5.3622,
          -0.6443 -2.0385 5.3622,
          -0.5229 -1.9574 5.3622,
          -0.4419 -1.8360 5.3622,
          -0.4134 -1.6929 5.3622
        ] }
        coordIndex [
          0, 1, 2, 3, 4, 5, 6, 7, 8, 9, 10, 11, 12, 13, 14, 15, -1
        ]
      }
    }
  ]
}

Transform {
  children [
    Shape {
      appearance Appearance {
        material Material { diffuseColor 0.760 0.640 0.330 specularColor 0.500 0.440 0.240 shininess 0.60 }
      }
      geometry IndexedFaceSet {
        creaseAngle 1.05
        coord Coordinate { point [
          -0.6237 -1.5984 5.3701,
          -0.6929 -1.5293 5.3701,
          -0.7874 -1.5039 5.3701,
          -0.8819 -1.5293 5.3701,
          -0.9511 -1.5984 5.3701,
          -0.9764 -1.6929 5.3701,
          -0.9511 -1.7874 5.3701,
          -0.8819 -1.8566 5.3701,
          -0.7874 -1.8819 5.3701,
          -0.6929 -1.8566 5.3701,
          -0.6237 -1.7874 5.3701,
          -0.5984 -1.6929 5.3701
        ] }
        coordIndex [
          0, 1, 2, 3, 4, 5, 6, 7, 8, 9, 10, 11, -1
        ]
      }
    }
  ]
}

Transform {
  children [
    Shape {
      appearance Appearance {
        material Material { diffuseColor 0.030 0.030 0.035 specularColor 0.020 0.020 0.020 shininess 0.05 }
      }
      geometry IndexedFaceSet {
        creaseAngle 1.05
        coord Coordinate { point [
          1.1329 -1.5498 5.3622,
          1.0519 -1.4284 5.3622,
          0.9305 -1.3474 5.3622,
          0.7874 -1.3189 5.3622,
          0.6443 -1.3474 5.3622,
          0.5229 -1.4284 5.3622,
          0.4419 -1.5498 5.3622,
          0.4134 -1.6929 5.3622,
          0.4419 -1.8360 5.3622,
          0.5229 -1.9574 5.3622,
          0.6443 -2.0385 5.3622,
          0.7874 -2.0669 5.3622,
          0.9305 -2.0385 5.3622,
          1.0519 -1.9574 5.3622,
          1.1329 -1.8360 5.3622,
          1.1614 -1.6929 5.3622
        ] }
        coordIndex [
          0, 1, 2, 3, 4, 5, 6, 7, 8, 9, 10, 11, 12, 13, 14, 15, -1
        ]
      }
    }
  ]
}

Transform {
  children [
    Shape {
      appearance Appearance {
        material Material { diffuseColor 0.760 0.640 0.330 specularColor 0.500 0.440 0.240 shininess 0.60 }
      }
      geometry IndexedFaceSet {
        creaseAngle 1.05
        coord Coordinate { point [
          0.9511 -1.5984 5.3701,
          0.8819 -1.5293 5.3701,
          0.7874 -1.5039 5.3701,
          0.6929 -1.5293 5.3701,
          0.6237 -1.5984 5.3701,
          0.5984 -1.6929 5.3701,
          0.6237 -1.7874 5.3701,
          0.6929 -1.8566 5.3701,
          0.7874 -1.8819 5.3701,
          0.8819 -1.8566 5.3701,
          0.9511 -1.7874 5.3701,
          0.9764 -1.6929 5.3701
        ] }
        coordIndex [
          0, 1, 2, 3, 4, 5, 6, 7, 8, 9, 10, 11, -1
        ]
      }
    }
  ]
}

Transform {
  children [
    Shape {
      appearance Appearance {
        material Material { diffuseColor 0.030 0.030 0.035 specularColor 0.020 0.020 0.020 shininess 0.05 }
      }
      geometry IndexedFaceSet {
        creaseAngle 1.05
        coord Coordinate { point [
          2.7078 -1.5498 5.3622,
          2.6267 -1.4284 5.3622,
          2.5053 -1.3474 5.3622,
          2.3622 -1.3189 5.3622,
          2.2191 -1.3474 5.3622,
          2.0977 -1.4284 5.3622,
          2.0167 -1.5498 5.3622,
          1.9882 -1.6929 5.3622,
          2.0167 -1.8360 5.3622,
          2.0977 -1.9574 5.3622,
          2.2191 -2.0385 5.3622,
          2.3622 -2.0669 5.3622,
          2.5053 -2.0385 5.3622,
          2.6267 -1.9574 5.3622,
          2.7078 -1.8360 5.3622,
          2.7362 -1.6929 5.3622
        ] }
        coordIndex [
          0, 1, 2, 3, 4, 5, 6, 7, 8, 9, 10, 11, 12, 13, 14, 15, -1
        ]
      }
    }
  ]
}

Transform {
  children [
    Shape {
      appearance Appearance {
        material Material { diffuseColor 0.760 0.640 0.330 specularColor 0.500 0.440 0.240 shininess 0.60 }
      }
      geometry IndexedFaceSet {
        creaseAngle 1.05
        coord Coordinate { point [
          2.5259 -1.5984 5.3701,
          2.4567 -1.5293 5.3701,
          2.3622 -1.5039 5.3701,
          2.2677 -1.5293 5.3701,
          2.1985 -1.5984 5.3701,
          2.1732 -1.6929 5.3701,
          2.1985 -1.7874 5.3701,
          2.2677 -1.8566 5.3701,
          2.3622 -1.8819 5.3701,
          2.4567 -1.8566 5.3701,
          2.5259 -1.7874 5.3701,
          2.5512 -1.6929 5.3701
        ] }
        coordIndex [
          0, 1, 2, 3, 4, 5, 6, 7, 8, 9, 10, 11, -1
        ]
      }
    }
  ]
}

Transform {
  children [
    Shape {
      appearance Appearance {
        material Material { diffuseColor 0.030 0.030 0.035 specularColor 0.020 0.020 0.020 shininess 0.05 }
      }
      geometry IndexedFaceSet {
        creaseAngle 1.05
        coord Coordinate { point [
          4.2826 -1.5498 5.3622,
          4.2015 -1.4284 5.3622,
          4.0801 -1.3474 5.3622,
          3.9370 -1.3189 5.3622,
          3.7939 -1.3474 5.3622,
          3.6725 -1.4284 5.3622,
          3.5915 -1.5498 5.3622,
          3.5630 -1.6929 5.3622,
          3.5915 -1.8360 5.3622,
          3.6725 -1.9574 5.3622,
          3.7939 -2.0385 5.3622,
          3.9370 -2.0669 5.3622,
          4.0801 -2.0385 5.3622,
          4.2015 -1.9574 5.3622,
          4.2826 -1.8360 5.3622,
          4.3110 -1.6929 5.3622
        ] }
        coordIndex [
          0, 1, 2, 3, 4, 5, 6, 7, 8, 9, 10, 11, 12, 13, 14, 15, -1
        ]
      }
    }
  ]
}

Transform {
  children [
    Shape {
      appearance Appearance {
        material Material { diffuseColor 0.760 0.640 0.330 specularColor 0.500 0.440 0.240 shininess 0.60 }
      }
      geometry IndexedFaceSet {
        creaseAngle 1.05
        coord Coordinate { point [
          4.1007 -1.5984 5.3701,
          4.0315 -1.5293 5.3701,
          3.9370 -1.5039 5.3701,
          3.8425 -1.5293 5.3701,
          3.7733 -1.5984 5.3701,
          3.7480 -1.6929 5.3701,
          3.7733 -1.7874 5.3701,
          3.8425 -1.8566 5.3701,
          3.9370 -1.8819 5.3701,
          4.0315 -1.8566 5.3701,
          4.1007 -1.7874 5.3701,
          4.1260 -1.6929 5.3701
        ] }
        coordIndex [
          0, 1, 2, 3, 4, 5, 6, 7, 8, 9, 10, 11, -1
        ]
      }
    }
  ]
}

Transform {
  children [
    Shape {
      appearance Appearance {
        material Material { diffuseColor 0.030 0.030 0.035 specularColor 0.020 0.020 0.020 shininess 0.05 }
      }
      geometry IndexedFaceSet {
        creaseAngle 1.05
        coord Coordinate { point [
          5.8574 -1.5498 5.3622,
          5.7763 -1.4284 5.3622,
          5.6549 -1.3474 5.3622,
          5.5118 -1.3189 5.3622,
          5.3687 -1.3474 5.3622,
          5.2473 -1.4284 5.3622,
          5.1663 -1.5498 5.3622,
          5.1378 -1.6929 5.3622,
          5.1663 -1.8360 5.3622,
          5.2473 -1.9574 5.3622,
          5.3687 -2.0385 5.3622,
          5.5118 -2.0669 5.3622,
          5.6549 -2.0385 5.3622,
          5.7763 -1.9574 5.3622,
          5.8574 -1.8360 5.3622,
          5.8858 -1.6929 5.3622
        ] }
        coordIndex [
          0, 1, 2, 3, 4, 5, 6, 7, 8, 9, 10, 11, 12, 13, 14, 15, -1
        ]
      }
    }
  ]
}

Transform {
  children [
    Shape {
      appearance Appearance {
        material Material { diffuseColor 0.760 0.640 0.330 specularColor 0.500 0.440 0.240 shininess 0.60 }
      }
      geometry IndexedFaceSet {
        creaseAngle 1.05
        coord Coordinate { point [
          5.6755 -1.5984 5.3701,
          5.6063 -1.5293 5.3701,
          5.5118 -1.5039 5.3701,
          5.4173 -1.5293 5.3701,
          5.3482 -1.5984 5.3701,
          5.3228 -1.6929 5.3701,
          5.3482 -1.7874 5.3701,
          5.4173 -1.8566 5.3701,
          5.5118 -1.8819 5.3701,
          5.6063 -1.8566 5.3701,
          5.6755 -1.7874 5.3701,
          5.7008 -1.6929 5.3701
        ] }
        coordIndex [
          0, 1, 2, 3, 4, 5, 6, 7, 8, 9, 10, 11, -1
        ]
      }
    }
  ]
}
