#VRML V2.0 utf8
# Alps SKRHABE010, 5-smjerni prekidac
# Pojednostavljeni model za prikaz. VRML jedinica je 0,1 inca = 2,54 mm.
# Valjci su izvedeni kao 24-strana tijela, jer KiCadov citac ne crta Cylinder.

Transform {
  translation 0.0000 0.0000 0.7087
  children [
    Shape {
      appearance Appearance {
        material Material { diffuseColor 0.20 0.20 0.22 specularColor 0.10 0.10 0.10 shininess 0.20 }
      }
      geometry Box { size 2.5984 2.5984 1.4173 }
    }
  ]
}
Transform {
  translation 0.0000 0.0000 1.4567
  children [
    Shape {
      appearance Appearance {
        material Material { diffuseColor 0.70 0.71 0.73 specularColor 0.35 0.35 0.35 shininess 0.45 }
      }
      geometry Box { size 2.9134 2.9134 0.0787 }
    }
  ]
}
Shape {
      appearance Appearance {
        material Material { diffuseColor 0.15 0.15 0.16 specularColor 0.08 0.08 0.08 shininess 0.20 }
      }
      geometry IndexedFaceSet {
        creaseAngle 1.2
        coord Coordinate { point [
          0.6890 0.0000 1.4961,
          0.6655 0.1783 1.4961,
          0.5967 0.3445 1.4961,
          0.4872 0.4872 1.4961,
          0.3445 0.5967 1.4961,
          0.1783 0.6655 1.4961,
          0.0000 0.6890 1.4961,
          -0.1783 0.6655 1.4961,
          -0.3445 0.5967 1.4961,
          -0.4872 0.4872 1.4961,
          -0.5967 0.3445 1.4961,
          -0.6655 0.1783 1.4961,
          -0.6890 0.0000 1.4961,
          -0.6655 -0.1783 1.4961,
          -0.5967 -0.3445 1.4961,
          -0.4872 -0.4872 1.4961,
          -0.3445 -0.5967 1.4961,
          -0.1783 -0.6655 1.4961,
          -0.0000 -0.6890 1.4961,
          0.1783 -0.6655 1.4961,
          0.3445 -0.5967 1.4961,
          0.4872 -0.4872 1.4961,
          0.5967 -0.3445 1.4961,
          0.6655 -0.1783 1.4961,
          0.6890 0.0000 2.0472,
          0.6655 0.1783 2.0472,
          0.5967 0.3445 2.0472,
          0.4872 0.4872 2.0472,
          0.3445 0.5967 2.0472,
          0.1783 0.6655 2.0472,
          0.0000 0.6890 2.0472,
          -0.1783 0.6655 2.0472,
          -0.3445 0.5967 2.0472,
          -0.4872 0.4872 2.0472,
          -0.5967 0.3445 2.0472,
          -0.6655 0.1783 2.0472,
          -0.6890 0.0000 2.0472,
          -0.6655 -0.1783 2.0472,
          -0.5967 -0.3445 2.0472,
          -0.4872 -0.4872 2.0472,
          -0.3445 -0.5967 2.0472,
          -0.1783 -0.6655 2.0472,
          -0.0000 -0.6890 2.0472,
          0.1783 -0.6655 2.0472,
          0.3445 -0.5967 2.0472,
          0.4872 -0.4872 2.0472,
          0.5967 -0.3445 2.0472,
          0.6655 -0.1783 2.0472
        ] }
        coordIndex [
          0, 1, 25, 24, -1,
          1, 2, 26, 25, -1,
          2, 3, 27, 26, -1,
          3, 4, 28, 27, -1,
          4, 5, 29, 28, -1,
          5, 6, 30, 29, -1,
          6, 7, 31, 30, -1,
          7, 8, 32, 31, -1,
          8, 9, 33, 32, -1,
          9, 10, 34, 33, -1,
          10, 11, 35, 34, -1,
          11, 12, 36, 35, -1,
          12, 13, 37, 36, -1,
          13, 14, 38, 37, -1,
          14, 15, 39, 38, -1,
          15, 16, 40, 39, -1,
          16, 17, 41, 40, -1,
          17, 18, 42, 41, -1,
          18, 19, 43, 42, -1,
          19, 20, 44, 43, -1,
          20, 21, 45, 44, -1,
          21, 22, 46, 45, -1,
          22, 23, 47, 46, -1,
          23, 0, 24, 47, -1,
          0, 1, 2, 3, 4, 5, 6, 7, 8, 9, 10, 11, 12, 13, 14, 15, 16, 17, 18, 19, 20, 21, 22, 23, -1,
          47, 46, 45, 44, 43, 42, 41, 40, 39, 38, 37, 36, 35, 34, 33, 32, 31, 30, 29, 28, 27, 26, 25, 24, -1
        ]
      }
    }
